<svg xmlns="http://www.w3.org/2000/svg" xmlns:xlink="http://www.w3.org/1999/xlink" width="139.186" height="152.258" viewBox="0 0 139.186 152.258"><defs><style>.a{fill:url(#a);}.b{fill:#fff;}.c{fill:#102744;isolation:isolate;}.c,.h{opacity:0.2;}.d{fill:#dbdbdb;}.e{fill:url(#b);}.f{fill:url(#c);}.g{fill:#37acb9;}</style><linearGradient id="a" x1="1.161" y1="-0.12" x2="1.161" y2="0.88" gradientUnits="objectBoundingBox"><stop offset="0" stop-color="gray" stop-opacity="0.251"/><stop offset="0.54" stop-color="gray" stop-opacity="0.122"/><stop offset="1" stop-color="gray" stop-opacity="0.102"/></linearGradient><linearGradient id="b" x1="0.5" y1="-0.439" x2="0.5" y2="0.561" xlink:href="#a"/><linearGradient id="c" x1="0.5" y1="-0.758" x2="0.5" y2="0.242" xlink:href="#a"/></defs><rect class="a" width="84.353" height="152.258" rx="15.34" transform="translate(27.416 0)"/><rect class="b" width="82.073" height="148.144" rx="13.64" transform="translate(28.556 2.058)"/><path class="c" d="M206.146,27.63a6.654,6.654,0,0,1-6.558,5.659H171.239a6.654,6.654,0,0,1-6.558-5.659H149.667a3.117,3.117,0,0,0-3.117,3.117h0V165.228a3.117,3.117,0,0,0,3.117,3.117h71.72a3.117,3.117,0,0,0,3.117-3.117V30.747a3.117,3.117,0,0,0-3.117-3.117Z" transform="translate(-115.934 -21.858)"/><rect class="d" width="18.29" height="1.143" rx="0.571" transform="translate(60.564 7.546)"/><circle class="d" cx="0.685" cy="0.685" r="0.685" transform="translate(82.055 7.318)"/><circle class="b" cx="8.371" cy="8.371" r="8.371" transform="translate(34.136 26.053)"/><rect class="b" width="14.912" height="2.616" transform="translate(58.991 28.145)"/><rect class="b" width="41.076" height="2.616" transform="translate(58.991 33.115)"/><rect class="b" width="41.076" height="2.616" transform="translate(58.991 38.087)"/><circle class="b" cx="8.371" cy="8.371" r="8.371" transform="translate(34.136 50.908)"/><rect class="b" width="14.912" height="2.616" transform="translate(58.991 52.999)"/><rect class="b" width="41.076" height="2.616" transform="translate(58.991 57.971)"/><rect class="b" width="41.076" height="2.616" transform="translate(58.991 62.941)"/><circle class="b" cx="8.371" cy="8.371" r="8.371" transform="translate(34.136 75.762)"/><rect class="b" width="14.912" height="2.616" transform="translate(58.991 77.853)"/><rect class="b" width="41.076" height="2.616" transform="translate(58.991 82.825)"/><rect class="b" width="41.076" height="2.616" transform="translate(58.991 87.795)"/><circle class="b" cx="8.371" cy="8.371" r="8.371" transform="translate(34.136 100.616)"/><rect class="b" width="14.912" height="2.616" transform="translate(58.991 102.708)"/><rect class="b" width="41.076" height="2.616" transform="translate(58.991 107.68)"/><rect class="b" width="41.076" height="2.616" transform="translate(58.991 112.65)"/><circle class="b" cx="8.371" cy="8.371" r="8.371" transform="translate(34.136 125.471)"/><rect class="b" width="14.912" height="2.616" transform="translate(58.991 127.564)"/><rect class="b" width="41.076" height="2.616" transform="translate(58.991 132.534)"/><rect class="b" width="41.076" height="2.616" transform="translate(58.991 137.504)"/><rect class="e" width="139.186" height="51.453" transform="translate(0 61.546)"/><rect class="b" width="137.207" height="47.494" transform="translate(0.99 62.536)"/><circle class="f" cx="11.875" cy="11.875" r="11.875" transform="translate(25.065 73.09)"/><circle class="g" cx="10.554" cy="10.554" r="10.554" transform="translate(26.386 74.41)"/><g class="h" transform="translate(57.718 77.047)"><rect class="g" width="18.8" height="3.299"/><rect class="g" width="51.783" height="3.299" transform="translate(0 6.267)"/><rect class="g" width="51.783" height="3.299" transform="translate(0 12.535)"/></g><path class="b" d="M158.456,379.74l-2.319-1.77-6.109,8.006-3.409-2.6-1.77,2.319,4.571,3.489.013-.017,1.155.882Z" transform="translate(-114.589 -299.007)"/></svg>