<svg xmlns="http://www.w3.org/2000/svg" width="156.117" height="135.02" viewBox="0 0 156.117 135.02"><defs><style>.a{fill:#a0616a;}.b{fill:#3f3d56;}.c{opacity:0.1;isolation:isolate;}.d{fill:#37acb9;}.e{fill:#fff;}.f{fill:#d0cde1;}</style></defs><g transform="translate(-368.293 -42.959)"><path class="a" d="M508.975,230.434s20.121.97,21.333,8-23.514.727-23.514.727Z" transform="translate(-104.925 -142.028)"/><rect class="b" width="25.454" height="0.485" transform="translate(478.835 55.074)"/><rect class="b" width="80.725" height="0.485" transform="translate(378.232 55.074)"/><path class="c" d="M432.262,212.934l-3.85,13.872,6.516-13.415Z" transform="translate(-45.545 -128.77)"/><rect class="d" width="150.652" height="97.209" transform="translate(368.778 80.77)"/><rect class="e" width="125.814" height="9.697" transform="translate(378.475 102.103)"/><rect class="e" width="113.517" height="4.848" transform="translate(390.31 127.799)"/><rect class="e" width="113.517" height="4.848" transform="translate(390.529 136.284)"/><rect class="e" width="56.759" height="4.848" transform="translate(390.748 144.768)"/><rect class="e" width="10.424" height="4.848" transform="translate(504.047 169.252)"/><circle class="f" cx="9.939" cy="9.939" r="9.939" transform="translate(368.293 45.377)"/><circle class="d" cx="9.939" cy="9.939" r="9.939" transform="translate(413.625 45.377)"/><path class="b" d="M751.475,72.3a10.182,10.182,0,1,1,10.182-10.182A10.182,10.182,0,0,1,751.475,72.3Zm0-19.878a9.7,9.7,0,1,0,9.7,9.7,9.7,9.7,0,0,0-9.7-9.7Z" transform="translate(-282.578 -6.799)"/><path class="b" d="M938.475,72.3a10.182,10.182,0,1,1,10.182-10.182A10.182,10.182,0,0,1,938.475,72.3Zm0-19.878a9.7,9.7,0,1,0,9.7,9.7,9.7,9.7,0,0,0-9.7-9.7Z" transform="translate(-424.246 -6.799)"/><path class="b" d="M390.18,59.545,385.873,53.8l1.551-1.164,2.965,3.954,13.633-13.633,1.371,1.371Z" transform="translate(-13.318)"/></g></svg>