<svg xmlns="http://www.w3.org/2000/svg" width="187.295" height="145.767" viewBox="0 0 187.295 145.767"><defs><style>.a{fill:#a9b3c1;}.b{fill:#7989a3;}.c{fill:#6e97c7;}.d{fill:#f8991d;}.e{fill:#fff;}.f{fill:#7b7b7b;opacity:0.03;}.g{fill:#f36c21;}.h{fill:#8db936;}.i{fill:#b1c0c9;}.j{fill:#bccd30;}.k{fill:#37acb9;}.l{fill:#818e97;}.m{fill:#f34c36;}.n{fill:#82958b;}.o{fill:#537195;}.p{fill:#0d0e1f;}</style></defs><g transform="translate(-219 -314.497)"><g transform="translate(229.666 316.059)"><path class="a" d="M372.856,681.271l-1.54.642q.8,1.619,1.54,3.273Z" transform="translate(-352.418 -611.644)"/><rect class="b" width="3.606" height="3.521" transform="translate(41.53 61.937)"/><path class="c" d="M539.442,610.087l-2.523,1.052h2.523Z" transform="translate(-485.878 -554.276)"/><path class="d" d="M604.189,532.43V554.3a.582.582,0,0,1-.582.582H583v.865h20.607a.582.582,0,0,1,.582.582v21.874h.865V556.333a.583.583,0,0,1,.582-.582h27.643a.582.582,0,0,1,.582.582v21.874h.866V556.333a.582.582,0,0,1,.582-.582h20.607v-.865H635.309a.582.582,0,0,1-.582-.582V532.43h-.866V554.3a.582.582,0,0,1-.582.582H605.637a.583.583,0,0,1-.582-.582V532.43Z" transform="translate(-523.015 -491.692)"/><path class="e" d="M565.685,542.215v-8.993l-1.359.567V569.03h78.35v-51.6H562.96v11.741l2.725-1.137v-8.275a.582.582,0,0,1,.582-.582h74.081a.582.582,0,0,1,.582.582V566.7a.582.582,0,0,1-.582.582H566.267a.582.582,0,0,1-.582-.582V542.215Z" transform="translate(-506.865 -479.604)"/><rect class="b" width="3.269" height="3.521" transform="translate(50.295 57.64)"/><path class="c" d="M386.818,702.578V675.4l-1.568.654v26.525Z" transform="translate(-363.648 -606.911)"/><path class="b" d="M491.526,628.2l-3.606,1.5v.331h3.606Z" transform="translate(-446.39 -568.871)"/><path class="b" d="M514.106,619.509h-.34l-3.266,1.362v2.159h3.606Z" transform="translate(-464.587 -561.87)"/><rect class="a" width="3.606" height="3.327" transform="translate(41.53 66.234)"/><path class="f" d="M855.5,532.43v21.292h20.025V532.43Zm13.748,18.924H863.3a.315.315,0,0,1-.124-.025.3.3,0,0,1,.124-.557h5.951A.291.291,0,0,1,869.248,551.354Z" transform="translate(-742.624 -491.692)"/><path class="g" d="M411.607,493.451c.338-4.767-.906-9.868-2.616-14.413l-.505.643a.293.293,0,0,1-.412,0,.3.3,0,0,1,0-.412l.676-.86a70.247,70.247,0,0,0-4.421-9.175l-.212.285a.3.3,0,0,1-.4.1.293.293,0,0,1-.1-.4l.4-.537c-.759-1.3-1.4-2.309-1.805-2.93-.626.954-1.8,2.817-3.113,5.255l.531.617c.244.283-.167.7-.412.412l-.413-.479a67.22,67.22,0,0,0-2.972,6.4c-.453,1.136-.894,2.353-1.3,3.625l1.011,1.171c.244.282-.167.7-.412.412l-.8-.928c-1.749,5.837-2.548,12.708.43,18.229Zm-2-1.942a.291.291,0,0,1,.582,0v.323a.291.291,0,0,1-.582,0Zm-2.892-2.545a.3.3,0,0,1,.358.2l.065.259a.291.291,0,1,1-.562.155l-.065-.259A.3.3,0,0,1,406.714,488.965Zm-2.08-13.642.324-1.488c.08-.367.641-.211.561.155l-.323,1.488C405.117,475.844,404.555,475.688,404.635,475.323Zm.151,6.838a.291.291,0,0,1,0,.582A.291.291,0,0,1,404.786,482.161Zm-1.909,10.19v.776a.291.291,0,0,1-.582,0v-.776A.291.291,0,0,1,402.877,492.351Zm-1.06-5.258.259-.582a.293.293,0,0,1,.4-.1.3.3,0,0,1,.1.4l-.259.582a.293.293,0,0,1-.4.1A.3.3,0,0,1,401.817,487.093Zm-.945-9.364c.027-.372.609-.374.582,0l-.065.906c-.027.372-.609.374-.582,0Zm-2.94.593a.293.293,0,0,1,.358.2l.1.582a.3.3,0,0,1-.2.358.293.293,0,0,1-.358-.2l-.1-.582A.3.3,0,0,1,397.932,478.322Zm-1.225,17.764a.294.294,0,0,1,.4-.1l.453.323a.3.3,0,0,1,.1.4.294.294,0,0,1-.4.1l-.453-.324A.3.3,0,0,1,396.706,496.086Zm-.667-7.251a.294.294,0,0,1,.358.2l.129.712a.3.3,0,0,1-.2.358.294.294,0,0,1-.358-.2l-.129-.712A.3.3,0,0,1,396.039,488.835Z" transform="translate(-369.711 -437.962)"/><path class="c" d="M552.626,496.939a3.594,3.594,0,0,1,1.175.38,3.335,3.335,0,0,0,3.014,0,3.917,3.917,0,0,1,3.515,0,3.335,3.335,0,0,0,3.014,0,3.918,3.918,0,0,1,3.515,0,3.336,3.336,0,0,0,3.015,0,3.917,3.917,0,0,1,3.515,0,3.335,3.335,0,0,0,3.015,0,3.917,3.917,0,0,1,3.515,0,3.335,3.335,0,0,0,3.015,0,3.919,3.919,0,0,1,3.515,0,3.336,3.336,0,0,0,3.015,0,3.918,3.918,0,0,1,3.515,0,3.335,3.335,0,0,0,3.015,0,3.917,3.917,0,0,1,3.515,0,3.335,3.335,0,0,0,3.014,0,3.918,3.918,0,0,1,3.515,0,3.336,3.336,0,0,0,3.015,0,3.918,3.918,0,0,1,3.515,0,3.336,3.336,0,0,0,3.015,0,3.92,3.92,0,0,1,3.516,0,3.336,3.336,0,0,0,3.015,0,3.919,3.919,0,0,1,3.515,0,3.337,3.337,0,0,0,3.016,0,3.92,3.92,0,0,1,3.516,0,3.339,3.339,0,0,0,3.016,0,3.6,3.6,0,0,1,1.176-.38v-.845H552.626Z" transform="translate(-498.537 -462.409)"/><path class="h" d="M478.353,377.536l11.84-4.938V360.371H488.77a.582.582,0,0,1-.582-.582v-4.141a.582.582,0,0,1,.582-.582h5.677l.035-.206a.294.294,0,0,1,.358-.2.3.3,0,0,1,.2.358l-.009.052h9.246c-1.526-9.161-6.018-18.279-9.748-24.627l-.023.07c-.118.354-.68.2-.561-.155l.192-.578c-2.1-3.523-3.915-6.105-4.732-7.232-.495.681-1.354,1.9-2.421,3.528l.5,1.013c.165.335-.337.63-.5.294l-.365-.74A95.248,95.248,0,0,0,477.19,345.3l.261.261a.291.291,0,0,1-.412.412l-.064-.064a48.983,48.983,0,0,0-2.862,13.6C476.325,364.418,478.64,371.18,478.353,377.536ZM501.6,350.278a.291.291,0,1,1,.582,0v.34a.291.291,0,1,1-.582,0Zm-4.222-1.262a.291.291,0,0,1,.582,0v.679a.291.291,0,0,1-.582,0Zm-2.458-7.8.183.731a.291.291,0,0,1-.561.155l-.183-.731A.291.291,0,0,1,494.924,341.217Zm-2.78-5.963.284-1.409c.074-.368.635-.211.562.155l-.284,1.409C492.632,335.776,492.071,335.62,492.144,335.254Zm-.574,11.017q.1-.485.194-.97c.073-.368.635-.211.561.155l-.194.97C492.058,346.793,491.5,346.636,491.57,346.271Zm-4.329,19.924a.3.3,0,0,1-.291-.291l-.048-.437a.294.294,0,0,1,.291-.291.3.3,0,0,1,.291.291q.024.218.049.437A.294.294,0,0,1,487.241,366.194Zm1.07-37.315a.3.3,0,0,1,.291.291l.1.825a.293.293,0,0,1-.291.291.3.3,0,0,1-.291-.291l-.1-.825A.293.293,0,0,1,488.311,328.879Zm-.039,20.092a.293.293,0,0,1,.2.358l-.326.782a.3.3,0,0,1-.358.2.293.293,0,0,1-.2-.358l.326-.782A.3.3,0,0,1,488.272,348.971Zm-1.78-8.988.922-1.844c.168-.336.67-.04.5.294l-.922,1.844C486.827,340.613,486.325,340.318,486.492,339.984Zm-.9,32.219a.294.294,0,0,1,.4.1l.194.388a.291.291,0,1,1-.5.294l-.194-.388A.3.3,0,0,1,485.59,372.2Zm-1.714-37.285.244,1.116c.08.366-.481.521-.562.155l-.244-1.116C483.234,334.706,483.8,334.551,483.876,334.917Zm-.036,23.227.635,1.308c.163.336-.339.631-.5.294l-.635-1.308C483.175,358.1,483.677,357.807,483.841,358.144Zm-1.069-16.406a1.691,1.691,0,0,0,.356.918c.226.3-.28.59-.5.294a2.23,2.23,0,0,1-.435-1.212C482.165,341.364,482.747,341.366,482.772,341.738Zm-.723,9.122.1,1.31c.028.374-.555.371-.582,0q-.049-.655-.1-1.31C481.439,350.486,482.021,350.489,482.049,350.861ZM481.32,368.1l.338-1.165a.291.291,0,0,1,.561.155l-.338,1.165A.291.291,0,0,1,481.32,368.1Zm-2.657-9.9a.3.3,0,0,1,.358-.2.293.293,0,0,1,.2.358,1.372,1.372,0,0,0-.087.7.293.293,0,0,1-.291.291.3.3,0,0,1-.291-.291A1.739,1.739,0,0,1,478.663,358.207Z" transform="translate(-435.263 -322.545)"/><path class="h" d="M286.052,865.892c2.392-9.381-3.918-21.934-5.782-25.349-1.864,3.416-8.175,15.975-5.782,25.35a12.7,12.7,0,0,0,5.782,7.9A12.7,12.7,0,0,0,286.052,865.892Zm-2.855-5.63a.294.294,0,0,1,.4.1l.324.647a.291.291,0,0,1-.5.294l-.324-.647A.3.3,0,0,1,283.2,860.261Zm-6.345-.6.388-1.035c.131-.348.693-.2.562.155l-.388,1.035C277.283,860.162,276.72,860.01,276.852,859.659Zm1.344,7.014-.325,1.293a.291.291,0,0,1-.561-.155l.325-1.294A.291.291,0,0,1,278.2,866.674Zm1.343-17.8-.257.971a.291.291,0,0,1-.562-.155l.257-.971A.291.291,0,0,1,279.54,848.878Zm.8,6.977a.291.291,0,0,1-.582,0v-.518a.291.291,0,0,1,.582,0Zm1.1,8.411a.291.291,0,0,1-.582,0v-.841a.291.291,0,0,1,.582,0Zm.551-14.2a.3.3,0,0,1,.358.2l.448,1.1a.293.293,0,0,1-.2.358.3.3,0,0,1-.358-.2l-.448-1.1A.293.293,0,0,1,281.987,850.069Zm.33,18.419-.194-.388a.3.3,0,0,1,.1-.4.294.294,0,0,1,.4.1l.194.388a.291.291,0,1,1-.5.294Z" transform="translate(-273.954 -740.002)"/><path class="a" d="M386.161,568.29l-.017-.718-3.952,1.648v.019h-.045l-48.319,20.153.008.723Z" transform="translate(-322.207 -520.013)"/><path class="a" d="M633.67,504.038a3.552,3.552,0,0,1-1.758-.417,3.34,3.34,0,0,0-3.016,0,3.918,3.918,0,0,1-3.516,0,3.338,3.338,0,0,0-3.015,0,3.917,3.917,0,0,1-3.515,0,3.337,3.337,0,0,0-3.015,0,3.916,3.916,0,0,1-3.515,0,3.337,3.337,0,0,0-3.015,0,3.916,3.916,0,0,1-3.515,0,3.337,3.337,0,0,0-3.015,0,3.915,3.915,0,0,1-3.515,0,3.336,3.336,0,0,0-3.014,0,3.916,3.916,0,0,1-3.515,0,3.337,3.337,0,0,0-3.015,0,3.916,3.916,0,0,1-3.515,0,3.338,3.338,0,0,0-3.015,0,3.916,3.916,0,0,1-3.515,0,3.337,3.337,0,0,0-3.015,0,3.916,3.916,0,0,1-3.515,0,3.336,3.336,0,0,0-3.014,0,3.916,3.916,0,0,1-3.515,0,3.337,3.337,0,0,0-3.015,0,3.915,3.915,0,0,1-3.515,0,3.336,3.336,0,0,0-3.014,0,3.915,3.915,0,0,1-3.515,0,3.183,3.183,0,0,0-.925-.315v1.541h83.728v-1.541a3.176,3.176,0,0,0-.926.316A3.552,3.552,0,0,1,633.67,504.038Z" transform="translate(-498.537 -468.186)"/><rect class="i" width="78.609" height="1.941" transform="translate(62.702 96.831)"/><path class="f" d="M702.63,658.58v21.292h26.477V658.58Zm22.457,18.637H706.7a.291.291,0,0,1,0-.582h18.389A.291.291,0,0,1,725.087,677.217Z" transform="translate(-619.426 -593.357)"/><path class="f" d="M855.5,658.58v21.292h20.025V658.58Zm13.748,18.637H863.3a.291.291,0,0,1,0-.582h5.951A.291.291,0,0,1,869.248,677.217Z" transform="translate(-742.624 -593.357)"/><path class="f" d="M583,658.58v21.292h20.025V658.58Zm13.329,18.637h-5.953a.291.291,0,0,1,0-.582h5.953A.291.291,0,0,1,596.329,677.217Z" transform="translate(-523.015 -593.357)"/><path class="f" d="M582.79,532.43v7.207l4.29-1.788a.581.581,0,0,1,.805.522l.1,3.886a.583.583,0,0,1-.359.553l-4.882,2.036h.051v8.876h20.025V532.43Zm13.328,18.924h-5.953a.262.262,0,0,1-.256-.167.3.3,0,0,1,.134-.39.3.3,0,0,1,.122-.025h5.953A.291.291,0,0,1,596.119,551.354Z" transform="translate(-522.806 -491.692)"/><path class="i" d="M648.35,794.353v-5.076H570v5.076h78.35Z" transform="translate(-512.539 -698.687)"/><rect class="d" width="4.141" height="0.906" transform="translate(150.821 125.428)"/><rect class="a" width="1.747" height="1.586" transform="translate(120.106 115.076)"/><path class="d" d="M597,848.105h1.65a.582.582,0,0,1,.582.582V851.4H665.71V837.43H597Zm51.937-7.473h5.6a1.99,1.99,0,0,1,0,3.979h-5.6a1.99,1.99,0,0,1,0-3.979Zm-20.38,0h5.6a1.99,1.99,0,0,1,0,3.979h-5.6a1.99,1.99,0,0,1,0-3.979Zm-20.38,0h5.6a1.99,1.99,0,0,1,0,3.979h-5.6a1.99,1.99,0,1,1,0-3.979Z" transform="translate(-534.298 -737.493)"/><path class="a" d="M651.158,861.58h5.6a.825.825,0,0,0,0-1.65h-5.6a.825.825,0,0,0,0,1.65Z" transform="translate(-577.279 -755.626)"/><path class="i" d="M791.339,953.949V930.764H777v23.185ZM779.5,943.412h2.038a.558.558,0,1,1,0,1.116H779.5a.558.558,0,0,1,0-1.116Z" transform="translate(-679.361 -812.711)"/><path class="a" d="M756.158,861.58h5.6a.825.825,0,1,0,0-1.65h-5.6a.825.825,0,1,0,0,1.65Z" transform="translate(-661.899 -755.626)"/><rect class="b" width="48.378" height="1.586" transform="translate(66.535 115.076)"/><rect class="a" width="3.639" height="1.586" transform="translate(115.69 115.076)"/><path class="a" d="M861.158,861.58h5.6a.825.825,0,0,0,0-1.65h-5.6a.825.825,0,0,0,0,1.65Z" transform="translate(-746.519 -755.626)"/><path class="j" d="M979.667,654.586h4.917a.582.582,0,0,1,.582.582v.971h9.2c5.344-7.618,3.151-18.258.347-25.88a79.939,79.939,0,0,0-7.154-14.411,78.422,78.422,0,0,0-7.891,16.532Zm8.4-2.184c-.019.374-.6.375-.582,0l.045-.874c.019-.373.6-.374.582,0Zm2.046-4.027a.291.291,0,0,1-.582,0v-1.262a.291.291,0,0,1,.582,0Zm4.27.243q.049.509.1,1.019c.036.373-.547.37-.582,0l-.1-1.019C993.768,648.244,994.351,648.248,994.386,648.618Zm-1.335-10.589a2.958,2.958,0,0,1,.458,1.564.291.291,0,0,1-.582,0,2.369,2.369,0,0,0-.378-1.27C992.346,638,992.851,637.712,993.051,638.028Zm-2.5,4.766a.291.291,0,0,1,.582,0v1.116a.291.291,0,0,1-.582,0Zm-.919-15.62a2.917,2.917,0,0,1,.615,1.5c.043.372-.54.368-.582,0a2.192,2.192,0,0,0-.445-1.089C988.994,627.294,989.4,626.879,989.634,627.174Zm-.877,10.768a.291.291,0,1,1,.582,0v.049a.291.291,0,0,1-.582,0Zm-.194-6.26q.024.655.049,1.31c.014.375-.569.373-.582,0q-.024-.655-.048-1.31C987.967,631.307,988.549,631.309,988.563,631.683ZM988,620.55l.4,1.549a.291.291,0,0,1-.562.155l-.4-1.549A.291.291,0,0,1,988,620.55Zm-2.448,23.215q-.024.412-.049.825c-.022.373-.6.374-.582,0q.024-.412.049-.825C984.994,643.392,985.576,643.391,985.555,643.765Zm-1.019-18.342a.291.291,0,1,1,.582,0v.1a.291.291,0,1,1-.582,0Zm-1.464,9.218.437-.97a.293.293,0,0,1,.4-.1.3.3,0,0,1,.1.4l-.437.971a.293.293,0,0,1-.4.1A.3.3,0,0,1,983.071,634.641Zm-.2,17.607.867-1.169c.221-.3.726-.007.5.294l-.867,1.169C983.149,652.84,982.644,652.549,982.867,652.248Zm-2.376-10.333.962-1.655a.291.291,0,0,1,.5.294l-.962,1.655A.291.291,0,0,1,980.491,641.915Z" transform="translate(-842.691 -558.919)"/><rect class="d" width="4.141" height="1.1" transform="translate(150.821 105.695)"/><path class="i" d="M711.464,953.949V930.764H697.125v23.185Zm-4.537-10.537h2.038a.558.558,0,1,1,0,1.116h-2.038a.558.558,0,1,1,0-1.116Z" transform="translate(-614.989 -812.711)"/><rect class="a" width="3.608" height="3.327" transform="translate(37.145 66.234)"/><rect class="e" width="4.788" height="1.423" transform="translate(131.024 123.228)"/><rect class="b" width="8.783" height="1.586" transform="translate(122.629 115.076)"/><path class="b" d="M446.356,647.036l-3.606,1.5v.971h3.606Z" transform="translate(-409.987 -584.054)"/><rect class="a" width="3.606" height="3.327" transform="translate(32.763 66.234)"/><path class="b" d="M432.306,656.454l-1.552.647h1.552Z" transform="translate(-400.319 -591.644)"/><path class="a" d="M420.17,663.87v3.246h3.606V663.79h-3.413Z" transform="translate(-391.79 -597.555)"/><path class="k" d="M597,930.76v23.187h18.268V930.76Zm13.263,22.354H598.65a.388.388,0,0,1,0-.776h11.613a.388.388,0,0,1,0,.776Zm3.56,0h-1.23a.388.388,0,1,1,0-.776h1.23a.388.388,0,1,1,0,.776Z" transform="translate(-534.298 -812.708)"/><path class="b" d="M465.33,642.371v2.8h3.608v-3.521h-1.878Z" transform="translate(-428.185 -579.713)"/><path class="a" d="M483.852,637.615l-.016.007h.016Z" transform="translate(-443.099 -576.461)"/><path class="b" d="M386.25,575.563l-52.336,21.829.012,1.092,52.351-21.835Z" transform="translate(-322.276 -526.453)"/><path class="c" d="M557.488,645.21v-41l-1.568.654V645.21Z" transform="translate(-501.191 -549.543)"/><path class="a" d="M598.65,915.43H597v1.586h3.057V915.43Z" transform="translate(-534.298 -800.353)"/><path class="d" d="M428.559,786.82V779.93H399.33v2.93h1.677a.253.253,0,0,1,.253.254v.523a.253.253,0,0,1-.253.253H399.33v2.931h13.4v-.5a.253.253,0,0,1,.253-.253h1.929a.253.253,0,0,1,.253.253v.5Zm-24.085-4.852h-1.326a.291.291,0,0,1,0-.582h1.326a.291.291,0,0,1,0,.582Zm1.779-.582h.323a.291.291,0,0,1,0,.582h-.323a.291.291,0,1,1,0-.582Zm.922,3.688H406.3a.291.291,0,1,1,0-.582h.873a.291.291,0,0,1,0,.582Zm4.8-3.135a.253.253,0,0,1-.253.253H409.8a.253.253,0,0,1-.253-.253v-.523a.253.253,0,0,1,.253-.254h1.929a.254.254,0,0,1,.253.254Zm13.538,3.135h-.243a.291.291,0,1,1,0-.582h.243a.291.291,0,1,1,0,.582Zm-.878-3.658a.253.253,0,0,1,.253-.254h1.929a.253.253,0,0,1,.253.254v.523a.253.253,0,0,1-.253.253h-1.929a.253.253,0,0,1-.253-.253Zm-5.673,3.076h4.4a.291.291,0,1,1,0,.582h-4.4a.291.291,0,1,1,0-.582Z" transform="translate(-374.995 -691.153)"/><rect class="f" width="29.229" height="16.886" transform="translate(24.335 70.726)"/><path class="a" d="M399.33,667.236v1.559H402.6v-2.923Z" transform="translate(-374.995 -599.234)"/><path class="f" d="M702.63,532.43v21.292h26.477V532.43Zm22.457,18.924H706.7a.291.291,0,0,1,0-.582h18.389A.291.291,0,0,1,725.087,551.354Z" transform="translate(-619.426 -491.692)"/><rect class="d" width="6.89" height="2.426" transform="translate(16.604 132.933)"/><path class="i" d="M407.384,839.093v-3.3a.582.582,0,0,1,.582-.582h8.152v-8.928h-2.265a.582.582,0,1,1,0-1.164h2.265V821.43H374v6.793h7.473a.582.582,0,0,1,.582.582v4.464a.582.582,0,0,1-.582.582H374v22.515h4.658a.582.582,0,0,1,.582.582v3.591a.582.582,0,0,1-.582.582H374v6.516h10.659v-1.22a.388.388,0,0,1,.776,0v1.22H388.3V865.2a.388.388,0,0,1,.776,0v2.44H397.1V865.2a.388.388,0,0,1,.776,0v2.44h1.359v-.929a.388.388,0,0,1,.776,0v.929h7.473v-.929a.388.388,0,0,1,.776,0v.929h1.116v-3.022a.388.388,0,1,1,.776,0v3.022H411.7v-.5a.388.388,0,0,1,.776,0v.5h3.639V839.675h-8.152A.582.582,0,0,1,407.384,839.093Zm-28.314,2.213v-1.9a.51.51,0,0,1,.51-.51h5.88a.51.51,0,0,1,.509.51v1.9a.509.509,0,0,1-.509.509h-5.88A.509.509,0,0,1,379.071,841.305Zm2.984,6.133h-1.262a.388.388,0,1,1,0-.776h1.262a.388.388,0,1,1,0,.776Zm6.017,14.169h-3.3a.388.388,0,1,1,0-.776h3.3a.388.388,0,1,1,0,.776Zm0-14.169h-3.3a.388.388,0,1,1,0-.776h3.3a.388.388,0,1,1,0,.776Zm6.987-13.781h-6.987a.388.388,0,0,1,0-.776h6.987a.388.388,0,0,1,0,.776Zm4.076-6.866a.51.51,0,0,1,.51-.51h4.949a.51.51,0,0,1,.51.51v1.5a.51.51,0,0,1-.51.51h-4.949a.51.51,0,0,1-.51-.51Zm.485,6.866h-.97a.388.388,0,0,1,0-.776h.97a.388.388,0,0,1,0,.776Zm1.359,20a.388.388,0,0,1,.388-.388h.97a.388.388,0,1,1,0,.776h-.97A.388.388,0,0,1,400.979,853.657Zm7.574,7.822a.51.51,0,0,1-.509.51h-5.88a.51.51,0,0,1-.51-.51v-1.9a.509.509,0,0,1,.51-.509h5.88a.509.509,0,0,1,.509.509Zm5.285-7.822a.388.388,0,0,1-.388.388H405.1a.388.388,0,1,1,0-.776h8.346A.388.388,0,0,1,413.838,853.657Zm-4.416-10.2v2.62a.582.582,0,0,1-.582.582h-7.473a.582.582,0,0,1-.582-.582v-2.62a.582.582,0,0,1,.582-.582h7.473A.582.582,0,0,1,409.422,843.46Z" transform="translate(-354.581 -724.599)"/><rect class="d" width="6.308" height="1.456" transform="translate(47.368 119.444)"/><rect class="d" width="10.578" height="3.3" transform="translate(15.731 104.789)"/><path class="g" d="M317.765,725.429H314.66a.582.582,0,0,1-.582-.582v-4.464a.582.582,0,0,1,.582-.582h3.106v-7.376a.582.582,0,0,1,.582-.582h1.6v-19.19c-.8-1.938-1.683-3.87-2.617-5.758l-4.827,2.013c-3.223,6.913-6.877,16.807-6.839,26.065a.576.576,0,0,1,.66.26,60.64,60.64,0,0,1,4.656,10.157l.385-.559c.211-.307.716-.016.5.294l-.653.95a44.407,44.407,0,0,1,1.56,5.919,21.613,21.613,0,0,0,2.626,1.883,21.564,21.564,0,0,0,2.362-1.665Zm.059-18.944-.291-.825c-.125-.355.438-.506.561-.155l.291.825C318.511,706.685,317.948,706.836,317.824,706.485Zm-.638-11.893a.293.293,0,0,1,.412,0l.59.721a.3.3,0,0,1,0,.412.293.293,0,0,1-.412,0l-.59-.721A.3.3,0,0,1,317.186,694.592Zm-1.275,4.8.194,1.068c.067.367-.495.523-.561.155l-.194-1.067C315.283,699.179,315.844,699.023,315.911,699.391Zm-.873,15.625.146.534a.291.291,0,1,1-.561.155l-.146-.534a.291.291,0,1,1,.561-.155Zm-.766-6.279a.3.3,0,0,1,.291-.291.293.293,0,0,1,.291.291l-.1.728a.3.3,0,0,1-.291.291.293.293,0,0,1-.291-.291Zm-3.7,3.862-.34,1.067c-.113.356-.675.2-.561-.155l.34-1.068C310.125,712.088,310.687,712.241,310.573,712.6Zm.741-8.2-.586,1.406c-.142.341-.705.191-.561-.155l.586-1.406C310.9,703.908,311.458,704.058,311.314,704.4Zm-.412-4.641c-.174.332-.677.038-.5-.294l.713-1.358c.174-.332.677-.038.5.294Zm1.272,18.368-.1.388a.291.291,0,1,1-.561-.155l.1-.388a.291.291,0,1,1,.561.155Zm1.553-25.815-.243.582a.3.3,0,0,1-.358.2.293.293,0,0,1-.2-.358l.243-.582a.3.3,0,0,1,.358-.2A.293.293,0,0,1,313.727,692.316Zm2.438,36.211a.3.3,0,0,1-.4-.1l-.259-.388a.294.294,0,0,1,.1-.4.3.3,0,0,1,.4.1l.259.388A.294.294,0,0,1,316.165,728.527Z" transform="translate(-299.511 -616.175)"/><path class="i" d="M974.08,857.962v-2.07a.582.582,0,0,1,.582-.582h2.523v-16.3h-2.523a.582.582,0,0,1-.582-.582v-2.264a.582.582,0,0,1,.582-.582h2.523V829.43H966.9v.97a.582.582,0,0,1-.582.582H957v19.41h4.561a.388.388,0,1,1,0,.776H957v1.941h3.817a.582.582,0,0,1,.582.582v2.588a.582.582,0,0,1-.582.582H957v17.223h.388v-.319a.388.388,0,1,1,.776,0v.319h1.116v-1.22a.388.388,0,0,1,.776,0v1.22h13.474v-1.793a.388.388,0,0,1,.776,0v1.793h.809v-.741a.388.388,0,0,1,.776,0v.741h1.294V858.544h-2.523A.582.582,0,0,1,974.08,857.962Zm-13.263,10.044h-1.149a.388.388,0,1,1,0-.776h1.149a.388.388,0,1,1,0,.776Zm4.222-30.554H969.5a.388.388,0,0,1,0,.776h-4.464a.388.388,0,0,1,0-.776Zm-5.95-3.227a.51.51,0,0,1-.51-.509v-.873a.51.51,0,0,1,.51-.51h3.458a.509.509,0,0,1,.509.51v.873a.509.509,0,0,1-.509.509Zm4.042,3.227h.453a.388.388,0,1,1,0,.776h-.453a.388.388,0,0,1,0-.776Zm-.372,7.958v-2.2a.582.582,0,0,1,.582-.582H969.1a.582.582,0,0,1,.582.582v2.2a.582.582,0,0,1-.582.582h-5.758A.582.582,0,0,1,962.758,845.411Zm7.1,15.172a.388.388,0,0,1-.388.388H964.5a.388.388,0,1,1,0-.776h4.974A.388.388,0,0,1,969.859,860.582Zm-6.26-9.8a.388.388,0,0,1,.388-.388h1.019a.388.388,0,0,1,0,.776h-1.019A.388.388,0,0,1,963.6,850.781Zm7.246,19.927a.582.582,0,0,1-.582.582h-5.629a.582.582,0,0,1-.582-.582v-2.135a.582.582,0,0,1,.582-.582h5.629a.582.582,0,0,1,.582.582Zm1.634-9.737H971.46a.388.388,0,0,1,0-.776h1.019a.388.388,0,0,1,0,.776Zm1.219-8.856h-3.457a.51.51,0,0,1-.51-.509v-.873a.51.51,0,0,1,.51-.51H973.7a.51.51,0,0,1,.51.51v.873A.51.51,0,0,1,973.7,852.115Z" transform="translate(-824.424 -731.046)"/><path class="j" d="M1108.906,835c2.786-10.987-5.551-25.49-7.687-28.955-2.136,3.467-10.473,17.976-7.687,28.957a14.921,14.921,0,0,0,7.687,9.646A14.922,14.922,0,0,0,1108.906,835Zm-2.52-2.181a.293.293,0,0,1,.358.2l.1.582a.3.3,0,0,1-.2.358.293.293,0,0,1-.358-.2l-.1-.582A.3.3,0,0,1,1106.387,832.815Zm-9.444-5.95-.194.582a.291.291,0,1,1-.561-.155l.194-.582a.291.291,0,1,1,.561.155Zm.5,6.408a.294.294,0,0,1-.2-.358l.385-.972a.3.3,0,0,1,.358-.2.294.294,0,0,1,.2.358l-.385.972A.3.3,0,0,1,1097.444,833.273Zm1.16,6.422a.291.291,0,0,1-.582,0v-.971a.291.291,0,0,1,.582,0Zm.766-18.75-.388,1.165c-.118.354-.68.2-.561-.155l.388-1.164C1098.926,820.436,1099.488,820.589,1099.369,820.945Zm.884-8.326a.291.291,0,0,1,0-.582A.291.291,0,0,1,1100.253,812.619Zm2.182,3.533a.3.3,0,0,1,.4.1l.291.388a.293.293,0,0,1-.1.4.3.3,0,0,1-.4-.1l-.291-.388A.293.293,0,0,1,1102.436,816.152Zm-.532,11.218a.291.291,0,0,1,.582,0v1.456a.291.291,0,0,1-.582,0Zm-.1,11.743a.291.291,0,1,1-.582,0v-.291a.291.291,0,0,1,.582,0Zm.982-2.706a.293.293,0,0,1-.412,0l-.679-.873a.3.3,0,0,1,0-.412.293.293,0,0,1,.412,0l.679.873A.3.3,0,0,1,1102.788,836.407Zm.911-12.571a.3.3,0,0,1-.4-.1l-.291-.485a.291.291,0,1,1,.5-.294l.291.485A.3.3,0,0,1,1103.7,823.836Z" transform="translate(-934.001 -712.196)"/><path class="d" d="M561.8,898.43H552v2.135h9.8Z" transform="translate(-498.032 -786.653)"/><rect class="a" width="68.71" height="0.638" transform="translate(62.702 142.402)"/><path class="k" d="M873.591,937.945v-2.588a.582.582,0,0,1,.582-.582h.97v-4.011H856.875v23.185h18.269V938.528h-.97A.582.582,0,0,1,873.591,937.945Zm-14.04,15.172h-1.229a.388.388,0,1,1,0-.776h1.229a.388.388,0,0,1,0,.776Zm13.942,0H861.881a.388.388,0,0,1,0-.776h11.613a.388.388,0,1,1,0,.776Z" transform="translate(-743.732 -812.711)"/><rect class="d" width="4.593" height="1.035" transform="translate(139.499 112.747)"/><rect class="d" width="4.464" height="0.97" transform="translate(140.793 138.109)"/></g><g transform="translate(245.348 384.546)"><rect class="e" width="1.108" height="7.702" transform="translate(3.211 28.018)"/><rect class="e" width="1.108" height="23.693" transform="translate(3.211 40.184)"/><rect class="e" width="1.108" height="7.292" transform="translate(3.211 67.746)"/><rect class="e" width="10.886" height="0.906" transform="translate(0 35.927)"/><rect class="e" width="7.521" height="0.906" transform="translate(0.607 64.007)"/><rect class="l" width="5.629" height="14.916" transform="translate(40.615 28.018)"/><rect class="l" width="5.629" height="28.919" transform="translate(40.615 46.118)"/><rect class="e" width="0.873" height="27.579" transform="translate(5.435 0)"/><rect class="m" width="29.633" height="3.141" transform="translate(8.653 24.438)"/><rect class="l" width="79.223" height="1.458" transform="translate(41.294 25.721)"/><rect class="e" width="79.353" height="0.825" transform="translate(46.567 28.018)"/><path class="m" d="M595.657,893.905h69.357v3.318H597.185v-2.795h-1.852" transform="translate(-548.637 -851.494)"/><rect class="n" width="30.635" height="2.07" transform="translate(66.333 49.565)"/><rect class="m" width="69.13" height="0.799" transform="translate(46.697 31.255)"/><rect class="e" width="0.938" height="7.621" transform="translate(136.466 29.587)"/><rect class="e" width="0.938" height="16.879" transform="translate(136.466 39.285)"/><rect class="e" width="0.938" height="16.879" transform="translate(136.466 58.623)"/><path class="l" d="M963.9,835.2l-2.206,4.29a6.821,6.821,0,0,0-.754,3.118v36.18h-6.745V860.805h4.044v-2.782H954V834.667h9.608" transform="translate(-837.688 -803.754)"/><rect class="o" width="5.176" height="23.467" transform="translate(46.244 49.565)"/><path class="o" d="M933.551,954.227h-5.176V930.76h5.176v4.7l-1.173-.121-.849,1.3.849,1.364,1.173.024Z" transform="translate(-817.036 -881.195)"/></g><g transform="translate(219 314.497)"><path class="p" d="M512,932.512v2.62a.582.582,0,0,0,.582.582h7.473a.582.582,0,0,0,.582-.582v-2.62a.582.582,0,0,0-.582-.582h-7.473A.582.582,0,0,0,512,932.512Zm1.165.582h6.308v1.456h-6.308Z" transform="translate(-455.13 -812.089)"/><path class="p" d="M451.876,880.43h-6.987a.388.388,0,1,0,0,.776h6.987a.388.388,0,1,0,0-.776Z" transform="translate(-400.731 -770.585)"/><path class="p" d="M500.359,880.43h-.97a.388.388,0,1,0,0,.776h.97a.388.388,0,1,0,0-.776Z" transform="translate(-444.653 -770.585)"/><path class="p" d="M431.188,951.43h-3.3a.388.388,0,0,0,0,.776h3.3a.388.388,0,0,0,0-.776Z" transform="translate(-387.031 -827.804)"/><path class="p" d="M408.65,951.43h-1.262a.388.388,0,0,0,0,.776h1.262a.388.388,0,0,0,0-.776Z" transform="translate(-370.51 -827.804)"/><path class="p" d="M532.25,985.853a.388.388,0,0,0,.388.388h8.346a.388.388,0,0,0,0-.776h-8.346A.388.388,0,0,0,532.25,985.853Z" transform="translate(-471.449 -855.233)"/><path class="p" d="M514.747,985.853a.388.388,0,0,0-.388-.388h-.97a.388.388,0,1,0,0,.776h.97A.388.388,0,0,0,514.747,985.853Z" transform="translate(-455.936 -855.233)"/><path class="p" d="M431.188,1024.43h-3.3a.388.388,0,0,0,0,.776h3.3a.388.388,0,1,0,0-.776Z" transform="translate(-387.031 -886.635)"/><rect class="p" width="5.968" height="2.523" rx="1.262" transform="translate(55.22 103.246)"/><path class="p" d="M.515,0H1.921a.515.515,0,0,1,.515.515v0a.515.515,0,0,1-.515.515H.515A.515.515,0,0,1,0,.515v0A.515.515,0,0,1,.515,0Z" transform="translate(60.311 91.571)"/><path class="p" d="M.515,0H1.921a.515.515,0,0,1,.515.515v0a.515.515,0,0,1-.515.515H.515A.515.515,0,0,1,0,.515v0A.515.515,0,0,1,.515,0Z" transform="translate(45.215 91.571)"/><rect class="p" width="4.476" height="1.892" rx="0.946" transform="translate(155.974 120.739)"/><rect class="p" width="4.476" height="1.892" rx="0.946" transform="translate(144.822 102.85)"/><rect class="p" width="6.898" height="2.916" rx="1.458" transform="translate(35.156 115.862)"/><rect class="p" width="6.898" height="2.916" rx="1.458" transform="translate(57.739 136.035)"/><path class="p" d="M993.59,900.212v-2.2a.582.582,0,0,0-.582-.582h-5.758a.582.582,0,0,0-.582.582v2.2a.582.582,0,0,0,.582.582h5.758A.582.582,0,0,0,993.59,900.212Zm-1.165-.582h-4.593v-1.035h4.593Z" transform="translate(-837.666 -784.285)"/><path class="p" d="M999.544,1028.1h-5.629a.582.582,0,0,0-.582.582v2.135a.582.582,0,0,0,.582.582h5.629a.582.582,0,0,0,.582-.582v-2.135A.582.582,0,0,0,999.544,1028.1Zm-.582,2.135H994.5v-.97h4.464Z" transform="translate(-843.038 -889.589)"/><path class="p" d="M996.805,871.539h4.464a.388.388,0,0,0,0-.776h-4.464a.388.388,0,0,0,0,.776Z" transform="translate(-845.524 -762.794)"/><path class="p" d="M986.971,871.539h.453a.388.388,0,1,0,0-.776h-.453a.388.388,0,1,0,0,.776Z" transform="translate(-837.598 -762.794)"/><path class="p" d="M992.8,937.818a.388.388,0,0,0-.388-.388h-1.019a.388.388,0,0,0,0,.776h1.019A.388.388,0,0,0,992.8,937.818Z" transform="translate(-841.158 -816.521)"/><path class="p" d="M1030.907,987.93h-1.019a.388.388,0,0,0,0,.776h1.019a.388.388,0,1,0,0-.776Z" transform="translate(-872.185 -857.219)"/><path class="p" d="M994.013,987.93a.388.388,0,1,0,0,.776h4.974a.388.388,0,0,0,0-.776Z" transform="translate(-843.273 -857.219)"/><path class="p" d="M970.287,1024.18h-1.149a.388.388,0,0,0,0,.776h1.149a.388.388,0,1,0,0-.776Z" transform="translate(-823.227 -886.434)"/><path class="p" d="M646.322,857.909h5.6a1.99,1.99,0,0,0,0-3.979h-5.6a1.99,1.99,0,0,0,0,3.979Zm0-2.814h5.6a.825.825,0,1,1,0,1.65h-5.6a.825.825,0,0,1,0-1.65Z" transform="translate(-561.778 -749.228)"/><path class="p" d="M751.323,857.909h5.6a1.99,1.99,0,0,0,0-3.979h-5.6a1.99,1.99,0,0,0,0,3.979Zm0-2.814h5.6a.825.825,0,1,1,0,1.65h-5.6a.825.825,0,1,1,0-1.65Z" transform="translate(-646.398 -749.228)"/><path class="p" d="M856.322,857.909h5.6a1.99,1.99,0,0,0,0-3.979h-5.6a1.99,1.99,0,0,0,0,3.979Zm0-2.814h5.6a.825.825,0,0,1,0,1.65h-5.6a.825.825,0,0,1,0-1.65Z" transform="translate(-731.018 -749.228)"/><path class="p" d="M745.308,997.046h2.038a.558.558,0,0,0,0-1.116h-2.038a.558.558,0,0,0,0,1.116Z" transform="translate(-642.704 -863.667)"/><path class="p" d="M787.558,997.046H789.6a.558.558,0,0,0,0-1.116h-2.038a.558.558,0,0,0,0,1.116Z" transform="translate(-676.754 -863.667)"/><path class="p" d="M603.888,1042.706H615.5a.388.388,0,0,0,0-.776H603.888a.388.388,0,1,0,0,.776Z" transform="translate(-528.87 -900.738)"/><path class="p" d="M675.721,1042.706h1.229a.388.388,0,0,0,0-.776h-1.229a.388.388,0,0,0,0,.776Z" transform="translate(-586.761 -900.738)"/><path class="p" d="M892.669,1041.93H881.055a.388.388,0,0,0,0,.776h11.613a.388.388,0,0,0,0-.776Z" transform="translate(-752.24 -900.738)"/><path class="p" d="M863.951,1041.93h-1.229a.388.388,0,0,0,0,.776h1.229a.388.388,0,1,0,0-.776Z" transform="translate(-737.465 -900.738)"/><path class="p" d="M419.117,787.43h-1.326a.291.291,0,1,0,0,.582h1.326a.291.291,0,0,0,0-.582Z" transform="translate(-378.972 -695.636)"/><path class="p" d="M433.791,788.012h.323a.291.291,0,0,0,0-.582h-.323a.291.291,0,0,0,0,.582Z" transform="translate(-391.866 -695.636)"/><path class="p" d="M499.291,804.012h4.4a.291.291,0,0,0,0-.582h-4.4a.291.291,0,0,0,0,.582Z" transform="translate(-444.653 -708.53)"/><path class="p" d="M532.034,803.43h-.243a.291.291,0,0,0,0,.582h.243a.291.291,0,1,0,0-.582Z" transform="translate(-470.845 -708.53)"/><path class="p" d="M434.915,803.43h-.873a.291.291,0,1,0,0,.582h.873a.291.291,0,1,0,0-.582Z" transform="translate(-392.068 -708.53)"/><path class="k" d="M405.7,439.145c1.728-6.816-.638-14.8-2.927-20.3a68.121,68.121,0,0,0-5.4-10.357.582.582,0,0,0-.969,0,68.1,68.1,0,0,0-5.4,10.357c-2.289,5.5-4.655,13.48-2.927,20.3A16.036,16.036,0,0,0,396.3,449.51v3.306l-1.059-.972a.388.388,0,1,0-.525.572l1.584,1.454v5.23h-2.519v-2.052a.388.388,0,0,0-.776,0V459.1h-1.456v-.823a.388.388,0,0,0-.776,0v.823h-7.182V443.558h1.617a.582.582,0,0,0,.582-.582V440.9a.582.582,0,0,0-.582-.582h-1.617v-16.3h1.617a.582.582,0,0,0,.582-.582v-2.264a.582.582,0,0,0-.582-.582h-1.617v-6.729a.582.582,0,0,0-.582-.582h-.274a21.37,21.37,0,0,0,3.041-12.393,44.968,44.968,0,0,0-3-13.889,80.274,80.274,0,0,0-7.766-15.405.582.582,0,0,0-.964,0,80.682,80.682,0,0,0-7.409,14.462V353.885h1.423a.582.582,0,0,0,.582-.582v-4.141a.582.582,0,0,0-.582-.582h-68.2c-2.745-16.917-15.459-33.685-15.588-33.854a.583.583,0,0,0-.462-.228h0a.583.583,0,0,0-.462.227,99.641,99.641,0,0,0-7.69,12.2c-3.287,6.125-7.231,15.061-8.149,23.977a70.486,70.486,0,0,0-4.87-8.421l-.476-.677-.476.677a72.168,72.168,0,0,0-6.976,13.136c-3.8,9.51-4.163,17.585-1.076,23.413l-7.315,3.051c-.164-.288-.258-.445-.263-.454a.582.582,0,0,0-.5-.284h0a.582.582,0,0,0-.5.283c-.012.02-.281.469-.73,1.287l-3.851,1.606a.583.583,0,0,0-.358.544l.042,3.909a.582.582,0,0,0,.806.531l.109-.045c-3.324,7.371-6.862,17.616-6.373,27.05-2.2,4.077-8.059,16.22-5.632,25.735a13.829,13.829,0,0,0,6.329,8.619V459.1h-3.558v-.3a.388.388,0,1,0-.776,0v.3h-2.329v-1.179a.388.388,0,0,0-.776,0V459.1H219v1.165H405.72V459.1h-3.882v-.6a.388.388,0,0,0-.776,0v.6h-3.6v-2.372l1.856-1.127a.388.388,0,0,0-.4-.663l-1.453.883V449.51A16.036,16.036,0,0,0,405.7,439.145Zm-21.072,2.342v.906h-4.141v-.906Zm0-19.733v1.1h-4.141v-1.1Zm-10.1-48.766a79.929,79.929,0,0,1,7.155,14.411c2.8,7.622,5,18.262-.347,25.88h-9.2v-.971a.582.582,0,0,0-.582-.582h-4.917V389.52A78.425,78.425,0,0,1,374.533,372.988Zm-9.056,66.3v1.423H360.69v-1.423Zm-4.4-6.566H352.3v-1.586h8.783Zm0-2.75H294.6v-2.717a.582.582,0,0,0-.582-.582h-1.65V416h68.71Zm-9.559,1.165v1.586h-1.747v-1.586Zm-2.523,0v1.586h-3.639v-1.586ZM296.2,432.721v-1.586H344.58v1.586Zm45.443,1.39V457.3H327.305V434.112Zm-15.5,0V457.3H311.8V434.112Zm-15.5,0V457.3H292.368V434.112Zm-18.269-1.39v-1.586h3.057v1.586ZM269.58,410.968h-1.929a.253.253,0,0,0-.253.254v.5H254V408.8h1.677a.253.253,0,0,0,.253-.253v-.523a.253.253,0,0,0-.253-.254H254v-2.93H283.23v6.89h-13.4v-.5A.253.253,0,0,0,269.58,410.968ZM254,403.671V386.785H283.23v16.886Zm16.4-26.452.016-.007v.007Zm-20.3,8.467V389.6q-.74-1.652-1.54-3.273Zm38.965,18.052h74.081a.582.582,0,0,0,.582-.582V356.215a.582.582,0,0,0-.582-.582H289.069a.582.582,0,0,0-.582.582v8.275l-2.725,1.137V353.885h79.717v51.6h-78.35V370.244l1.359-.567v33.479A.582.582,0,0,0,289.069,403.739Zm23.219-24.486H339.93a.582.582,0,0,0,.582-.582V356.8h.865v21.874a.582.582,0,0,0,.582.582h20.607v.865H341.96a.582.582,0,0,0-.582.582v21.874h-.865V380.7a.582.582,0,0,0-.582-.582H312.288a.583.583,0,0,0-.582.582v21.874h-.865V380.7a.582.582,0,0,0-.582-.582H289.651v-.865h20.607a.582.582,0,0,0,.582-.582V356.8h.865v21.874A.583.583,0,0,0,312.288,379.253Zm.582-1.165V356.8h26.478v21.292Zm29.673,0V356.8h20.024v21.292Zm20.024,3.194v21.292H342.542V381.283Zm-23.219,0v21.292H312.87V381.283Zm-29.672,0v21.292H289.651V381.283ZM289.651,356.8h20.024v21.292H289.651v-8.875H289.6l4.883-2.037a.582.582,0,0,0,.358-.551l-.094-3.886a.582.582,0,0,0-.806-.523L289.651,364Zm-2.523,49.853h78.35v5.076h-78.35Zm5.241,8.182v-1.941h78.609v1.941Zm-20.99-75.41.064.064a.291.291,0,0,0,.412-.412l-.261-.261a95.252,95.252,0,0,1,9.429-18.659l.365.74c.166.336.668.041.5-.294l-.5-1.013c1.067-1.632,1.927-2.847,2.421-3.528.817,1.127,2.628,3.709,4.732,7.232l-.192.578c-.119.356.443.509.561.155l.023-.07c3.731,6.348,8.222,15.466,9.748,24.626h-9.246l.009-.052a.3.3,0,0,0-.2-.358.294.294,0,0,0-.358.2l-.035.206h-5.677a.582.582,0,0,0-.582.582V353.3a.582.582,0,0,0,.582.582H284.6v12.227l-11.84,4.938c.287-6.356-2.028-13.118-4.24-18.025A48.981,48.981,0,0,1,271.379,339.421Zm-17.09,20.924.8.928c.245.284.656-.129.412-.412l-1.011-1.171c.4-1.272.843-2.489,1.3-3.625a67.233,67.233,0,0,1,2.972-6.4l.413.479c.245.284.655-.129.412-.412l-.531-.617c1.312-2.439,2.487-4.3,3.113-5.255.407.621,1.047,1.628,1.805,2.93l-.4.537a.293.293,0,0,0,.1.4.3.3,0,0,0,.4-.1l.212-.285a70.256,70.256,0,0,1,4.421,9.175l-.676.86a.3.3,0,0,0,0,.412.293.293,0,0,0,.412,0l.505-.643c1.71,4.545,2.954,9.645,2.616,14.413l-16.843,7.025C251.741,373.053,252.54,366.182,254.289,360.345ZM230.2,441.951c-2.392-9.375,3.918-21.934,5.782-25.35,1.864,3.414,8.175,15.967,5.782,25.349a12.7,12.7,0,0,1-5.782,7.9A12.7,12.7,0,0,1,230.2,441.951Zm14.775,3.452-.45-.45a.388.388,0,0,0-.549.549l1,1v12.6h-2.1v-2.311a.388.388,0,0,0-.776,0V459.1h-1v-.791a.388.388,0,0,0-.776,0v.791h-3.753v-4.026l1.019-1.019a.388.388,0,1,0-.549-.549l-.47.47v-3.12a13.828,13.828,0,0,0,6.328-8.619,22.88,22.88,0,0,0,.312-8.666q.845.626,1.771,1.191Zm-2.044-13.527a44.409,44.409,0,0,0-1.56-5.919l.653-.95c.213-.31-.292-.6-.5-.294l-.385.559a60.636,60.636,0,0,0-4.656-10.157.576.576,0,0,0-.66-.26c-.038-9.257,3.616-19.151,6.839-26.065l4.827-2.013c.933,1.888,1.813,3.82,2.617,5.758v19.19h-1.6a.582.582,0,0,0-.582.582v7.376h-3.106a.582.582,0,0,0-.582.582v4.464a.582.582,0,0,0,.582.582h3.106v6.78a21.557,21.557,0,0,1-2.362,1.665A21.6,21.6,0,0,1,242.932,431.876Zm13.043-11.027v3.3H245.4v-3.3Zm-8.055,18.761v8.219h-1.78v-6.438Zm-1.78.682v-5.529q.933-.568,1.78-1.2v4.946Zm.13,8.7h6.89v2.426h-6.89Zm1.65,10.107h-1.78v-6.516h1.78ZM291.2,433.3v25.8h-3.639v-.5a.388.388,0,0,0-.776,0v.5h-1.553v-3.022a.388.388,0,1,0-.776,0V459.1h-1.116v-.929a.388.388,0,0,0-.776,0v.929h-7.473v-.929a.388.388,0,0,0-.776,0v.929h-1.359v-2.44a.388.388,0,0,0-.776,0v2.44H264.16v-2.44a.388.388,0,0,0-.776,0v2.44H260.52v-1.22a.388.388,0,0,0-.776,0v1.22H249.085v-6.516h4.658a.582.582,0,0,0,.582-.582V448.41a.582.582,0,0,0-.582-.582h-4.658V425.313h7.473a.582.582,0,0,0,.582-.582v-4.464a.582.582,0,0,0-.582-.582h-7.473v-6.793H291.2v3.688h-2.265a.582.582,0,0,0,0,1.165H291.2v8.928h-8.152a.582.582,0,0,0-.582.582v3.3a.582.582,0,0,0,.582.582H291.2Zm-7.57-3.333v-2.135h9.8v2.135h-9.8ZM361.078,459.1h-68.71v-.638h68.71Zm0-1.8H342.809V434.112h18.269v4.011h-.97a.582.582,0,0,0-.582.582v2.588a.582.582,0,0,0,.582.582h.97Zm21.351,1.8h-1.294v-.741a.388.388,0,1,0-.776,0v.741h-.809v-1.793a.388.388,0,1,0-.776,0V459.1H365.3v-1.22a.388.388,0,1,0-.776,0v1.22h-1.116v-.319a.388.388,0,1,0-.776,0v.319h-.388V441.875h3.817a.582.582,0,0,0,.582-.582v-2.588a.582.582,0,0,0-.582-.582h-3.817v-1.941H366.8a.388.388,0,0,0,0-.776h-4.561V416h9.317a.582.582,0,0,0,.582-.582v-.971h10.287v6.146h-2.523a.582.582,0,0,0-.582.582v2.264a.582.582,0,0,0,.582.582h2.523v16.3h-2.523a.582.582,0,0,0-.582.582v2.07a.582.582,0,0,0,.582.582h2.523Zm14.455-10.592a14.922,14.922,0,0,1-7.687-9.646c-2.786-10.981,5.551-25.49,7.687-28.957,2.136,3.466,10.473,17.968,7.687,28.955A14.922,14.922,0,0,1,396.884,448.507Z" transform="translate(-219 -314.497)"/><path class="p" d="M298.729,881.827l-.257.971a.291.291,0,0,0,.562.155l.257-.971A.291.291,0,0,0,298.729,881.827Z" transform="translate(-283.038 -771.544)"/><path class="p" d="M315.036,891.242a.293.293,0,0,0,.2-.358l-.448-1.1a.3.3,0,0,0-.358-.2.293.293,0,0,0-.2.358l.448,1.1A.3.3,0,0,0,315.036,891.242Z" transform="translate(-295.733 -777.949)"/><path class="p" d="M304.124,915.263a.3.3,0,0,0-.291.291v.518a.291.291,0,1,0,.582,0v-.518A.3.3,0,0,0,304.124,915.263Z" transform="translate(-287.367 -798.657)"/><path class="p" d="M289.366,934.068l.388-1.035c.132-.351-.431-.5-.562-.155l-.388,1.035C288.673,934.265,289.235,934.417,289.366,934.068Z" transform="translate(-275.24 -812.694)"/><path class="p" d="M321.212,943.022a.291.291,0,0,0,.5-.294l-.324-.647a.294.294,0,0,0-.4-.1.3.3,0,0,0-.1.4Z" transform="translate(-301.083 -820.155)"/><path class="p" d="M309.5,957.262v.841a.291.291,0,0,0,.582,0v-.841A.291.291,0,0,0,309.5,957.262Z" transform="translate(-291.934 -832.277)"/><path class="p" d="M291.528,973.511,291.2,974.8a.291.291,0,0,0,.561.155l.325-1.293A.291.291,0,0,0,291.528,973.511Z" transform="translate(-277.181 -845.432)"/><path class="p" d="M316.585,980.8l-.194-.388a.294.294,0,0,0-.4-.1.3.3,0,0,0-.1.4l.194.388a.291.291,0,0,0,.5-.294Z" transform="translate(-297.054 -851.049)"/><path class="p" d="M343.59,712.937a.3.3,0,0,0-.358.2l-.243.582a.293.293,0,0,0,.2.358.3.3,0,0,0,.358-.2l.243-.582A.293.293,0,0,0,343.59,712.937Z" transform="translate(-318.911 -635.593)"/><path class="p" d="M365.263,727.338a.294.294,0,0,0,.412,0,.3.3,0,0,0,0-.412l-.59-.721a.293.293,0,0,0-.412,0,.3.3,0,0,0,0,.412Z" transform="translate(-336.331 -646.226)"/><path class="p" d="M355.725,751.63c.067.368.628.212.561-.155l-.194-1.068c-.067-.368-.628-.212-.561.155Z" transform="translate(-329.027 -665.63)"/><path class="p" d="M329.344,775.51l-.586,1.406c-.144.346.419.5.561.155l.586-1.406C330.049,775.319,329.486,775.168,329.344,775.51Z" transform="translate(-307.436 -685.874)"/><path class="p" d="M366.729,782.108l.291.825c.124.351.687.2.561-.155l-.291-.825C367.167,781.6,366.6,781.753,366.729,782.108Z" transform="translate(-338.041 -691.061)"/><path class="p" d="M349.784,799.24a.3.3,0,0,0,.291-.291l.1-.728a.292.292,0,0,0-.291-.291.3.3,0,0,0-.291.291l-.1.728A.293.293,0,0,0,349.784,799.24Z" transform="translate(-324.163 -704.098)"/><path class="p" d="M326.581,817.69l-.34,1.068c-.114.358.448.511.561.155l.34-1.068C327.256,817.487,326.694,817.333,326.581,817.69Z" transform="translate(-305.414 -719.859)"/><path class="p" d="M351.216,830.692a.3.3,0,0,0-.2.358l.146.534a.291.291,0,1,0,.561-.155l-.146-.534A.3.3,0,0,0,351.216,830.692Z" transform="translate(-325.382 -730.493)"/><path class="p" d="M336.223,845.95a.3.3,0,0,0-.358.2l-.1.388a.291.291,0,1,0,.561.155l.1-.388A.3.3,0,0,0,336.223,845.95Z" transform="translate(-313.097 -742.791)"/><path class="p" d="M356.7,896.745a.3.3,0,0,0-.4-.1.294.294,0,0,0-.1.4l.259.388a.3.3,0,0,0,.4.1.294.294,0,0,0,.1-.4Z" transform="translate(-329.539 -783.617)"/><path class="p" d="M330.617,744.077l-.713,1.358c-.174.331.328.626.5.294l.713-1.358C331.294,744.04,330.791,743.745,330.617,744.077Z" transform="translate(-308.349 -660.58)"/><path class="p" d="M454.417,508.138l.323-1.488c.08-.365-.482-.521-.561-.155l-.324,1.488C453.776,508.349,454.337,508.505,454.417,508.138Z" transform="translate(-408.265 -469.061)"/><path class="p" d="M434.746,527.174l.065-.906c.027-.374-.556-.372-.582,0l-.065.906C434.137,527.548,434.719,527.546,434.746,527.174Z" transform="translate(-392.4 -484.939)"/><path class="p" d="M453.5,550.845a.291.291,0,0,0,0-.582A.291.291,0,0,0,453.5,550.845Z" transform="translate(-407.757 -504.502)"/><path class="p" d="M439.336,573.064a.293.293,0,0,0,.4-.1l.259-.582a.3.3,0,0,0-.1-.4.293.293,0,0,0-.4.1l-.259.582A.3.3,0,0,0,439.336,573.064Z" transform="translate(-396.458 -521.973)"/><path class="p" d="M408.657,585.681a.294.294,0,0,0,.358.2.3.3,0,0,0,.2-.358l-.129-.712a.294.294,0,0,0-.358-.2.3.3,0,0,0-.2.358Z" transform="translate(-371.736 -532.176)"/><path class="p" d="M463.581,585.893a.291.291,0,1,0,.561-.155l-.065-.259a.291.291,0,1,0-.561.155Z" transform="translate(-416.049 -532.711)"/><path class="p" d="M441.833,601.6v.776a.291.291,0,0,0,.582,0V601.6A.291.291,0,0,0,441.833,601.6Z" transform="translate(-398.582 -545.644)"/><path class="p" d="M412.978,621.8l.453.323a.294.294,0,0,0,.4-.1.3.3,0,0,0-.1-.4l-.453-.323a.294.294,0,0,0-.4.1A.3.3,0,0,0,412.978,621.8Z" transform="translate(-375.212 -561.712)"/><path class="p" d="M479.791,597.835a.3.3,0,0,0,.291-.291v-.323a.291.291,0,0,0-.582,0v.323A.294.294,0,0,0,479.791,597.835Z" transform="translate(-428.938 -542.11)"/><path class="p" d="M418.378,531.385a.293.293,0,0,0,.358.2.3.3,0,0,0,.2-.358l-.1-.582a.293.293,0,0,0-.358-.2.3.3,0,0,0-.2.358Z" transform="translate(-379.597 -488.523)"/><path class="p" d="M546.142,356.585a.293.293,0,0,0,.291-.291l-.1-.825a.3.3,0,0,0-.291-.291.293.293,0,0,0-.291.291l.1.825A.3.3,0,0,0,546.142,356.585Z" transform="translate(-482.331 -347.282)"/><path class="p" d="M567.546,381.458l.284-1.409c.074-.366-.487-.522-.562-.155l-.284,1.409C566.911,381.669,567.472,381.825,567.546,381.458Z" transform="translate(-499.437 -367.032)"/><path class="p" d="M538.254,404.415l.922-1.844c.167-.334-.335-.629-.5-.294l-.922,1.844C537.584,404.455,538.087,404.75,538.254,404.415Z" transform="translate(-475.856 -385.12)"/><path class="p" d="M516.659,421.187a1.691,1.691,0,0,1-.356-.918c-.025-.372-.607-.375-.582,0a2.231,2.231,0,0,0,.435,1.212C516.379,421.776,516.884,421.486,516.659,421.187Z" transform="translate(-458.128 -399.513)"/><path class="p" d="M578.584,418.77a.291.291,0,0,0,.561-.155l-.183-.731a.291.291,0,0,0-.561.155Z" transform="translate(-508.634 -397.651)"/><path class="p" d="M564.588,440.035l.194-.97c.073-.366-.488-.523-.561-.155q-.1.485-.194.97C563.953,440.246,564.514,440.4,564.588,440.035Z" transform="translate(-497.053 -414.593)"/><path class="p" d="M543.469,459.636a.293.293,0,0,0,.2.358.3.3,0,0,0,.358-.2l.326-.782a.293.293,0,0,0-.2-.358.3.3,0,0,0-.358.2Z" transform="translate(-480.479 -430.662)"/><path class="p" d="M512.675,468.578q-.049-.655-.1-1.31c-.028-.371-.61-.375-.582,0q.049.655.1,1.31C512.121,468.95,512.7,468.953,512.675,468.578Z" transform="translate(-455.126 -437.391)"/><path class="p" d="M522.142,506.938c.163.337.666.042.5-.294l-.635-1.308c-.164-.337-.666-.042-.5.294Z" transform="translate(-462.765 -468.175)"/><path class="p" d="M594.582,458.441v-.679a.291.291,0,0,0-.582,0v.679A.291.291,0,0,0,594.582,458.441Z" transform="translate(-521.214 -429.728)"/><path class="p" d="M540.286,542.179a.294.294,0,0,0-.291.291q.024.218.048.437a.3.3,0,0,0,.291.291.294.294,0,0,0,.291-.291q-.024-.218-.048-.437A.3.3,0,0,0,540.286,542.179Z" transform="translate(-477.69 -497.986)"/><path class="p" d="M511.753,551.73l.338-1.165a.291.291,0,0,0-.561-.155l-.338,1.165A.291.291,0,0,0,511.753,551.73Z" transform="translate(-454.468 -504.455)"/><path class="p" d="M532.749,579.014a.291.291,0,1,0,.5-.294l-.194-.388a.291.291,0,1,0-.5.294Z" transform="translate(-471.666 -527.008)"/><path class="p" d="M497.235,506.536a.293.293,0,0,0,.291-.291,1.372,1.372,0,0,1,.087-.7.293.293,0,0,0-.2-.358.3.3,0,0,0-.358.2,1.739,1.739,0,0,0-.108.854A.3.3,0,0,0,497.235,506.536Z" transform="translate(-442.985 -468.167)"/><path class="p" d="M521.733,386.691c.08.366.642.211.562-.155l-.244-1.116c-.08-.366-.642-.211-.562.155Z" transform="translate(-462.771 -371.486)"/><path class="p" d="M616.041,464.851a.3.3,0,0,0,.291-.291v-.34a.291.291,0,0,0-.582,0v.34A.3.3,0,0,0,616.041,464.851Z" transform="translate(-538.742 -434.925)"/><path class="p" d="M1005.041,664.358a.3.3,0,0,0,.291-.291v-.1a.291.291,0,0,0-.582,0v.1A.3.3,0,0,0,1005.041,664.358Z" transform="translate(-852.239 -595.904)"/><path class="p" d="M1029.062,675.283c.042.368.625.372.582,0a2.917,2.917,0,0,0-.615-1.5c-.23-.3-.64.12-.412.412A2.193,2.193,0,0,1,1029.062,675.283Z" transform="translate(-871.42 -603.965)"/><path class="p" d="M1022.5,696.264q.024.655.048,1.31c.014.374.6.375.582,0q-.024-.655-.048-1.31C1023.067,695.89,1022.485,695.888,1022.5,696.264Z" transform="translate(-866.543 -621.938)"/><path class="p" d="M997.168,708.451a.293.293,0,0,0,.4-.1l.437-.971a.3.3,0,0,0-.1-.4.293.293,0,0,0-.4.1l-.437.971A.3.3,0,0,0,997.168,708.451Z" transform="translate(-846.017 -630.768)"/><path class="p" d="M1026.791,728.81a.3.3,0,0,0,.291-.291v-.049a.291.291,0,1,0-.582,0v.049A.3.3,0,0,0,1026.791,728.81Z" transform="translate(-869.768 -647.885)"/><path class="p" d="M1046.215,731.122a.291.291,0,0,0,.582,0,2.957,2.957,0,0,0-.458-1.564c-.2-.316-.7-.024-.5.294A2.369,2.369,0,0,1,1046.215,731.122Z" transform="translate(-885.313 -648.887)"/><path class="p" d="M1036.332,754.628v-1.116a.291.291,0,0,0-.582,0v1.116A.291.291,0,0,0,1036.332,754.628Z" transform="translate(-877.222 -668.074)"/><path class="p" d="M1006.8,758.516l-.049.825c-.022.374.56.373.582,0q.024-.412.048-.825C1007.4,758.141,1006.818,758.143,1006.8,758.516Z" transform="translate(-853.848 -672.108)"/><path class="p" d="M984.241,742.984l.962-1.655a.291.291,0,0,0-.5-.294l-.962,1.655A.291.291,0,0,0,984.241,742.984Z" transform="translate(-835.272 -658.133)"/><path class="p" d="M1030.5,775.762v1.262a.291.291,0,0,0,.582,0v-1.262A.291.291,0,0,0,1030.5,775.762Z" transform="translate(-872.991 -686.006)"/><path class="p" d="M1053.173,784.541q-.049-.509-.1-1.019c-.035-.37-.618-.374-.582,0q.049.51.1,1.019C1052.626,784.911,1053.208,784.915,1053.173,784.541Z" transform="translate(-890.715 -692.262)"/><path class="p" d="M1020,798.512l-.045.874c-.02.375.563.374.582,0l.045-.874C1020.6,798.137,1020.021,798.138,1020,798.512Z" transform="translate(-864.494 -704.34)"/><path class="p" d="M996.426,798.307l.867-1.169c.224-.3-.282-.592-.5-.294l-.867,1.169C995.7,798.314,996.205,798.6,996.426,798.307Z" transform="translate(-845.081 -703.122)"/><path class="p" d="M1020.08,640.919a.291.291,0,0,0,.562-.155l-.4-1.548a.291.291,0,0,0-.561.155Z" transform="translate(-864.259 -576.023)"/><path class="p" d="M1141.318,858.758a.3.3,0,0,0,.4.1.293.293,0,0,0,.1-.4l-.291-.388a.3.3,0,0,0-.4-.1.293.293,0,0,0-.1.4Z" transform="translate(-962.031 -752.454)"/><path class="p" d="M1121.374,881.2l-.388,1.165c-.119.356.443.509.562.155l.388-1.164C1122.054,880.994,1121.492,880.841,1121.374,881.2Z" transform="translate(-945.901 -771.039)"/><path class="p" d="M1145.046,892.579a.291.291,0,1,0-.5.294l.291.485a.291.291,0,0,0,.5-.294Z" transform="translate(-964.867 -780.26)"/><path class="p" d="M1139.582,916.218v-1.456a.291.291,0,0,0-.582,0v1.456A.291.291,0,0,0,1139.582,916.218Z" transform="translate(-960.432 -798.026)"/><path class="p" d="M1115.657,938.4a.3.3,0,0,0-.358.2l-.385.972a.293.293,0,0,0,.2.358.3.3,0,0,0,.358-.2l.385-.972A.293.293,0,0,0,1115.657,938.4Z" transform="translate(-941.009 -817.292)"/><path class="p" d="M1138.008,955.517a.293.293,0,0,0-.412,0,.3.3,0,0,0,0,.412l.679.873a.293.293,0,0,0,.412,0,.3.3,0,0,0,0-.412Z" transform="translate(-959.234 -831.029)"/><path class="p" d="M1161.128,944.885a.293.293,0,0,0,.358.2.3.3,0,0,0,.2-.358q-.048-.291-.1-.582a.293.293,0,0,0-.358-.2.3.3,0,0,0-.2.358Z" transform="translate(-978.182 -821.764)"/><path class="p" d="M1110.055,911.439a.3.3,0,0,0-.358.2l-.194.582a.291.291,0,1,0,.562.155l.194-.582A.294.294,0,0,0,1110.055,911.439Z" transform="translate(-936.65 -795.567)"/><path class="p" d="M1129.332,836.93a.291.291,0,0,0,0,.582A.291.291,0,0,0,1129.332,836.93Z" transform="translate(-952.414 -735.528)"/><path class="p" d="M1135.791,973.429a.3.3,0,0,0-.291.291v.291a.291.291,0,0,0,.582,0v-.291A.294.294,0,0,0,1135.791,973.429Z" transform="translate(-957.611 -845.533)"/><path class="p" d="M1119,973.262v.97a.291.291,0,0,0,.582,0v-.97A.291.291,0,0,0,1119,973.262Z" transform="translate(-944.314 -845.172)"/><path class="p" d="M619.832,752.178h5.952a.291.291,0,0,0,0-.582h-5.952A.291.291,0,0,0,619.832,752.178Z" transform="translate(-541.806 -666.757)"/><path class="p" d="M894.5,752.178h5.952a.291.291,0,0,0,0-.582H894.5A.291.291,0,0,0,894.5,752.178Z" transform="translate(-763.161 -666.757)"/><path class="p" d="M722.422,752.178h18.389a.291.291,0,0,0,0-.582H722.422A.291.291,0,0,0,722.422,752.178Z" transform="translate(-624.483 -666.757)"/><path class="p" d="M619.832,627.511h5.952a.291.291,0,0,0,0-.582h-5.952A.291.291,0,0,0,619.832,627.511Z" transform="translate(-541.806 -566.287)"/><path class="p" d="M900.451,626.929H894.5a.291.291,0,0,0,0,.582h5.952A.291.291,0,0,0,900.451,626.929Z" transform="translate(-763.161 -566.287)"/><path class="p" d="M740.811,626.929H722.422a.291.291,0,0,0,0,.582h18.389A.291.291,0,0,0,740.811,626.929Z" transform="translate(-624.483 -566.287)"/></g></g></svg>