<svg xmlns="http://www.w3.org/2000/svg" width="438.739" height="405.896" viewBox="0 0 438.739 405.896"><defs><style>.a,.b{fill:none;}.a{stroke:#27debf;stroke-miterlimit:10;opacity:0.5;}.b{opacity:0.2;}.c,.d{stroke:none;}.d{fill:#37acb9;}</style></defs><g transform="translate(219.503 -1365.413)"><path class="a" d="M687.55,157.332c14.734,73.168,31.612,115.05,86.559,132.009,71.255,21.993,71.961,157.407-27.338,170.228-51.922,6.7-87.251-5.861-115.62,29.346-50.592,62.8-89.313,15.345-96.5-13.744C508.055,367.625,445.333,396.794,398.174,337.4c-27.772-34.963-.611-74.959,51.067-84.266,78.921-14.2,97.467-60.239,103.776-82.326C568.253,117.485,672.816,84.15,687.55,157.332Z" transform="translate(-606.092 1250.912)"/><g class="b" transform="translate(-81 1411.654)"><path class="c" d="M80.791,0A80.791,80.791,0,1,1,0,80.791,80.791,80.791,0,0,1,80.791,0Z"/><path class="d" d="M 80.79084777832031 35.00001525878906 C 55.54167938232422 35.00001525878906 35.00001525878906 55.54167938232422 35.00001525878906 80.79084777832031 C 35.00001525878906 106.0400161743164 55.54167938232422 126.5816802978516 80.79084777832031 126.5816802978516 C 106.0400161743164 126.5816802978516 126.5816802978516 106.0400161743164 126.5816802978516 80.79084777832031 C 126.5816802978516 55.54167938232422 106.0400161743164 35.00001525878906 80.79084777832031 35.00001525878906 M 80.79084777832031 1.52587890625e-05 C 125.410400390625 1.52587890625e-05 161.5816802978516 36.17129516601562 161.5816802978516 80.79084777832031 C 161.5816802978516 125.410400390625 125.410400390625 161.5816802978516 80.79084777832031 161.5816802978516 C 36.17129516601562 161.5816802978516 1.52587890625e-05 125.410400390625 1.52587890625e-05 80.79084777832031 C 1.52587890625e-05 36.17129516601562 36.17129516601562 1.52587890625e-05 80.79084777832031 1.52587890625e-05 Z"/></g></g></svg>