<svg xmlns="http://www.w3.org/2000/svg" width="1087.236" height="520" viewBox="0 0 1087.236 520"><defs><style>.a,.c,.f{fill:none;}.a,.c{stroke:#27debf;}.a{stroke-miterlimit:10;opacity:0.5;}.b{fill:#37acb9;}.b,.c,.d{opacity:0.22;}.c{stroke-width:9px;}.d{fill:#52b590;}.e{stroke:none;}</style></defs><g transform="translate(-330 -128)"><path class="a" d="M687.55,157.332c14.734,73.168,31.612,115.05,86.559,132.009,71.255,21.993,71.961,157.407-27.338,170.228-51.922,6.7-87.251-5.861-115.62,29.346-50.592,62.8-89.313,15.345-96.5-13.744C508.055,367.625,445.333,396.794,398.174,337.4c-27.772-34.963-.611-74.959,51.067-84.266,78.921-14.2,97.467-60.239,103.776-82.326C568.253,117.485,672.816,84.15,687.55,157.332Z" transform="translate(591.908 112.912)"/><path class="a" d="M412.18,167.979c-.76,74.633,25.1,72.015,80.033,88.974,71.255,21.993,78.609,261.373-20.69,274.194-51.922,6.7-64.607-63.956-106.028-14.246-50.2,60.239-124.14,36.5-119.283-33.823,2.374-34.407,12.441-67.728-28.939-69.207-73.819-2.632-90.833-107.493,9.158-139.96,78.351-25.439,49.751-74.077,43.076-114.3C253.226,61.584,413.319,56.5,412.18,167.979Z" transform="translate(232.361 61.265)"/><circle class="b" cx="43.5" cy="43.5" r="43.5" transform="translate(608 536)"/><g class="c" transform="translate(966 609)"><circle class="e" cx="19.5" cy="19.5" r="19.5"/><circle class="f" cx="19.5" cy="19.5" r="15"/></g><circle class="d" cx="43.5" cy="43.5" r="43.5" transform="translate(330 128)"/></g></svg>