<svg xmlns="http://www.w3.org/2000/svg" width="1498.236" height="520" viewBox="0 0 1498.236 520">
  <g id="Group_532" data-name="Group 532" transform="translate(81 -128)">
    <path id="Path_27" data-name="Path 27" d="M687.55,157.332c14.734,73.168,31.612,115.05,86.559,132.009,71.255,21.993,71.961,157.407-27.338,170.228-51.922,6.7-87.251-5.861-115.62,29.346-50.592,62.8-89.313,15.345-96.5-13.744C508.055,367.625,445.333,396.794,398.174,337.4c-27.772-34.963-.611-74.959,51.067-84.266,78.921-14.2,97.467-60.239,103.776-82.326C568.253,117.485,672.816,84.15,687.55,157.332Z" transform="translate(591.908 112.912)" fill="none" stroke="#27debf" stroke-miterlimit="10" stroke-width="1" opacity="0.5"/>
    <path id="Path_6" data-name="Path 6" d="M412.18,167.979c-.76,74.633,25.1,72.015,80.033,88.974,71.255,21.993,78.609,261.373-20.69,274.194-51.922,6.7-64.607-63.956-106.028-14.246-50.2,60.239-124.14,36.5-119.283-33.823,2.374-34.407,12.441-67.728-28.939-69.207-73.819-2.632-90.833-107.493,9.158-139.96,78.351-25.439,49.751-74.077,43.076-114.3C253.226,61.584,413.319,56.5,412.18,167.979Z" transform="translate(232.361 61.265)" fill="none" stroke="#27debf" stroke-miterlimit="10" stroke-width="1" opacity="0.5"/>
    <circle id="Ellipse_5" data-name="Ellipse 5" cx="43.5" cy="43.5" r="43.5" transform="translate(608 536)" fill="#37acb9" opacity="0.22"/>
    <circle id="Ellipse_125" data-name="Ellipse 125" cx="43.5" cy="43.5" r="43.5" transform="translate(330 128)" fill="#52b590" opacity="0.22"/>
    <g id="Ellipse_6" data-name="Ellipse 6" transform="translate(966 609)" fill="none" stroke="#27debf" stroke-width="9" opacity="0.22">
      <circle cx="19.5" cy="19.5" r="19.5" stroke="none"/>
      <circle cx="19.5" cy="19.5" r="15" fill="none"/>
    </g>
    <g id="Path_137" data-name="Path 137" transform="translate(-81 171.654)" fill="none" opacity="0.2">
      <path d="M80.791,0A80.791,80.791,0,1,1,0,80.791,80.791,80.791,0,0,1,80.791,0Z" stroke="none"/>
      <path d="M 80.79084777832031 35.00001525878906 C 55.54167938232422 35.00001525878906 35.00001525878906 55.54167938232422 35.00001525878906 80.79084777832031 C 35.00001525878906 106.0400161743164 55.54167938232422 126.5816802978516 80.79084777832031 126.5816802978516 C 106.0400161743164 126.5816802978516 126.5816802978516 106.0400161743164 126.5816802978516 80.79084777832031 C 126.5816802978516 55.54167938232422 106.0400161743164 35.00001525878906 80.79084777832031 35.00001525878906 M 80.79084777832031 1.52587890625e-05 C 125.410400390625 1.52587890625e-05 161.5816802978516 36.17129516601562 161.5816802978516 80.79084777832031 C 161.5816802978516 125.410400390625 125.410400390625 161.5816802978516 80.79084777832031 161.5816802978516 C 36.17129516601562 161.5816802978516 1.52587890625e-05 125.410400390625 1.52587890625e-05 80.79084777832031 C 1.52587890625e-05 36.17129516601562 36.17129516601562 1.52587890625e-05 80.79084777832031 1.52587890625e-05 Z" stroke="none" fill="#37acb9"/>
    </g>
  </g>
</svg>
