<svg xmlns="http://www.w3.org/2000/svg" xmlns:xlink="http://www.w3.org/1999/xlink" width="165px" height="64px" viewBox="0 0 165 64" version="1.1">
    <!-- Generator: sketchtool 56.2 (101010) - https://sketch.com -->
    <title>11A795A1-F780-4ECA-B27D-E9D8ADBA3D4D</title>
    <desc>Created with sketchtool.</desc>
    <defs>
        <polygon id="path-1" points="0.11619854 0.229313869 70.0499431 0.229313869 70.0499431 31.244665 0.11619854 31.244665"/>
        <polygon id="path-3" points="0.0300131387 0.164542336 62.0758905 0.164542336 62.0758905 62.2105642 0.0300131387 62.2105642"/>
    </defs>
    <g id="Page-2" stroke="none" stroke-width="1" fill="none" fill-rule="evenodd">
        <g id="Otared-Website-Teaser-home-2-code" transform="translate(-1341.000000, -2709.000000)">
            <g id="Otared-logo-w" transform="translate(1341.000000, 2709.000000)">
                <path d="M5.66436569,58.3121562 C5.66436569,58.4477693 5.67424161,58.8449737 5.6253438,59.3780321 C5.77083285,59.5329153 5.94522701,59.5912073 6.21669416,59.5912073 L6.43950438,59.5912073 L6.43950438,60.4048861 L6.0032781,60.4048861 C5.79973796,60.4048861 5.6253438,60.3567109 5.46082555,60.298419 C5.18935839,61.2966088 4.5693438,62.3039518 3.12553358,62.3039518 C1.21659197,62.3039518 0.431818248,60.9186745 0.431818248,59.5524263 C0.431818248,58.6900905 0.790241606,58.0797109 1.5752562,58.0797109 L1.91440949,58.1086161 L1.91440949,58.1473971 C1.47842409,58.3217912 1.18768686,58.9805869 1.18768686,59.4844993 C1.18768686,60.3952511 1.66245328,61.4710029 3.05784745,61.4710029 C4.93740219,61.4710029 4.83093504,58.7869226 4.83093504,58.6221635 L4.83093504,54.571835 L5.09252628,54.571835 C5.52875255,54.571835 5.66436569,54.7558642 5.66436569,55.2212365 L5.66436569,58.3121562 Z" id="Fill-1" fill="#FEFEFE"/>
                <path d="M7.52397591,61.4611993 C7.52397591,61.199608 7.73691022,60.9963088 8.00837737,60.9963088 C8.25069854,60.9963088 8.47350876,61.199608 8.47350876,61.4611993 C8.47350876,61.7230314 8.25069854,61.9265715 8.00837737,61.9265715 C7.73691022,61.9265715 7.52397591,61.7230314 7.52397591,61.4611993 M6.41931898,61.4611993 C6.41931898,61.199608 6.63249416,60.9963088 6.8940854,60.9963088 C7.15567664,60.9963088 7.35921679,61.199608 7.35921679,61.4611993 C7.35921679,61.7230314 7.15567664,61.9265715 6.8940854,61.9265715 C6.63249416,61.9265715 6.41931898,61.7230314 6.41931898,61.4611993 M7.0200635,60.4049584 L6.19626788,60.4049584 L6.19626788,59.5910387 L6.80688832,59.5910387 C7.26238467,59.5910387 7.5141,59.3879803 7.54348686,58.8645569 L7.54348686,57.1006226 L7.80483723,57.1006226 C8.24082263,57.1006226 8.37667664,57.2848927 8.37667664,57.750265 L8.37667664,58.5350387 C8.37667664,59.4554255 8.08593942,60.3372723 7.0200635,60.4049584" id="Fill-3" fill="#FEFEFE"/>
                <path d="M12.0195635,59.5911109 C12.0195635,58.1764467 12.0971255,57.0330088 10.9052715,57.0330088 C10.314162,57.0330088 9.9265927,57.5176511 9.9265927,58.2732788 C9.9265927,59.4750088 10.8373445,59.5911109 12.0195635,59.5911109 L12.0195635,59.5911109 Z M13.7056949,60.4050307 L12.7364102,60.4050307 C12.5620161,61.3352934 11.6611401,62.1007971 10.4208701,62.1007971 C9.97500876,62.1007971 9.6165854,61.9940891 9.6165854,61.6549358 L9.6165854,61.2673664 C9.77146861,61.2965124 9.93646861,61.3063883 10.1009869,61.3063883 C10.9344175,61.3063883 11.7967533,61.0057752 11.9227314,60.4050307 C10.7405124,60.3664905 9.15121314,60.0853883 9.15121314,58.408892 C9.15121314,57.0913007 9.86854161,56.2870161 10.9924686,56.2870161 C12.0487095,56.2870161 12.7754321,57.0816657 12.7754321,58.2636438 C12.7754321,59.5622058 12.7754321,59.5718409 12.7850672,59.5911109 L13.7056949,59.5911109 L13.7056949,60.4050307 Z" id="Fill-5" fill="#FEFEFE"/>
                <path d="M17.2609752,58.4283547 C17.2609752,57.5563839 16.8830409,57.1006467 16.1950993,57.1006467 C15.6138657,57.1006467 15.2359314,57.5563839 15.2359314,58.3026175 C15.2359314,59.1162964 15.6331358,59.6394788 16.3405883,59.6394788 C16.9314569,59.6394788 17.2609752,59.1360482 17.2609752,58.4283547 L17.2609752,58.4283547 Z M19.1795518,59.5910628 L19.1795518,60.4049825 C18.3947781,60.4049825 17.9197708,60.2792453 17.5904934,59.8333839 C17.2804861,60.2209533 16.8249898,60.4244934 16.2825372,60.4244934 C15.7203328,60.4244934 15.2455664,60.1920482 14.9162891,59.8141139 C14.6159168,60.2209533 14.1505445,60.4148584 13.452727,60.4148584 C13.4336978,60.4148584 13.4141869,60.4148584 13.3756467,60.4049825 L13.3173547,60.4049825 L13.3173547,59.5910628 L13.4433328,59.5910628 C14.2960336,59.5910628 14.4415226,59.2711796 14.4415226,58.4382307 C14.4415226,57.1201577 15.1583693,56.315873 16.2825372,56.315873 C17.3289022,56.315873 18.0553839,57.1105226 18.0553839,58.4382307 C18.0553839,59.2711796 18.200873,59.5910628 19.0535737,59.5910628 L19.1795518,59.5910628 Z" id="Fill-7" fill="#FEFEFE"/>
                <path d="M20.5260964,56.1221606 C20.5260964,55.8605693 20.7390307,55.6572701 21.0104978,55.6572701 C21.252819,55.6572701 21.4753883,55.8605693 21.4753883,56.1221606 C21.4753883,56.3839927 21.252819,56.5875328 21.0104978,56.5875328 C20.7390307,56.5875328 20.5260964,56.3839927 20.5260964,56.1221606 M19.4211985,56.1221606 C19.4211985,55.8605693 19.6343737,55.6572701 19.8962058,55.6572701 C20.1577971,55.6572701 20.3610964,55.8605693 20.3610964,56.1221606 C20.3610964,56.3839927 20.1577971,56.5875328 19.8962058,56.5875328 C19.6343737,56.5875328 19.4211985,56.3839927 19.4211985,56.1221606 M19.5666876,60.4049343 L18.742892,60.4049343 L18.742892,59.5910146 L19.3535124,59.5910146 C19.8087679,59.5910146 20.0607241,59.3879562 20.0898701,58.8645328 L20.0898701,57.1005985 L20.3514613,57.1005985 C20.7874467,57.1005985 20.9230599,57.2848686 20.9230599,57.7502409 L20.9230599,58.5350146 C20.9230599,59.4554015 20.6325635,60.3372482 19.5666876,60.4049343" id="Fill-9" fill="#FEFEFE"/>
                <path d="M28.8390131,59.5911109 L28.8390131,59.8334321 C28.8390131,60.2691766 28.664619,60.4050307 28.1997285,60.4050307 L26.7754292,60.4050307 C26.1065168,60.4050307 26.0096847,60.4630818 25.9224876,60.5021036 C25.6898015,60.6280818 25.2925971,60.9865051 25.2925971,61.5773737 C25.2925971,62.7692277 26.3779839,62.8373956 26.8915314,62.8373956 C27.404838,62.8373956 27.8506993,62.7111766 28.1318015,62.4206803 L28.1318015,62.7595927 C28.1318015,63.059965 27.7731372,63.6026584 26.7460423,63.6026584 C25.7478526,63.6026584 24.4883124,63.176308 24.4594073,61.7035927 C24.4594073,60.8797971 24.7983197,60.2595416 25.4378453,59.8625781 C25.108327,59.3586657 24.9729547,58.8545124 24.9729547,58.3992569 C24.9729547,57.2560599 25.8256555,56.3742131 26.8720204,56.3742131 C28.0831445,56.3742131 28.5191299,57.2365489 28.5191299,57.6339942 C28.5191299,57.8083883 28.4805898,57.9440015 28.4225387,58.0309577 L28.2286336,58.3120599 C28.1414365,57.8278993 27.6567942,57.1686219 26.9303124,57.1686219 C26.3392029,57.1686219 25.8157796,57.6436292 25.8157796,58.3799869 C25.8157796,58.7287752 25.9417577,59.1452496 26.2421299,59.5911109 L26.7754292,59.5911109 L28.8390131,59.5911109 Z" id="Fill-11" fill="#FEFEFE"/>
                <path d="M31.8131562,60.3760774 C31.8032803,60.4049825 31.7936453,60.4244934 31.7936453,60.4533985 L31.7936453,60.8797489 C31.7936453,61.5192745 31.2897328,62.1106248 30.5244701,62.1106248 C30.1272657,62.1106248 29.8557985,61.9458657 29.8557985,61.6650044 L29.8557985,61.4417124 C29.9333606,61.4515883 30.0109226,61.4612234 30.0884847,61.4612234 C31.1447255,61.4612234 31.0187474,60.8216978 31.0187474,59.5525226 L31.0187474,57.0912526 L31.2800978,57.0912526 C31.7160832,57.0912526 31.8519372,57.2755226 31.8519372,57.7404131 L31.8519372,59.5041066 C31.9680394,59.5621577 32.1038934,59.5910628 32.2879226,59.5910628 L32.8014701,59.5910628 L32.8014701,60.4049825 L32.0747474,60.4049825 C31.9779153,60.4049825 31.8907182,60.3953474 31.8131562,60.3760774" id="Fill-13" fill="#FEFEFE"/>
                <path d="M32.6557401,59.5911109 L33.7408861,59.5911109 L33.7408861,56.6066584 L34.0024774,56.6066584 C34.4387036,56.6066584 34.5743168,56.7906876 34.5743168,57.2560599 L34.5743168,59.5911109 L35.4462876,59.5911109 C35.9017839,59.5911109 36.1534993,59.3878117 36.1828861,58.8643883 L36.1828861,56.6066584 L36.4444774,56.6066584 C36.8804628,56.6066584 37.0160759,56.7906876 37.0160759,57.2560599 C37.0160759,57.2560599 37.0160759,58.9518263 37.0257109,58.9710964 C37.0160759,59.1163445 36.9968058,59.2521985 36.967419,59.3683007 C37.2776672,59.5525708 37.5780394,59.6202569 37.8396307,59.6202569 C38.430981,59.6202569 38.5954993,59.3102496 38.6150102,58.8643883 L38.6150102,56.6066584 L38.8763606,56.6066584 C39.312346,56.6066584 39.4482,56.7906876 39.4482,57.2560599 L39.4482,58.5348701 C39.4482,59.775381 38.8279445,60.4050307 37.9851197,60.4050307 C36.9968058,60.4050307 36.6285066,60.0755124 36.5800905,60.0369723 C36.3474044,60.2691766 36.0470321,60.3953956 35.6594628,60.4050307 L32.6557401,60.4050307 L32.6557401,59.5911109 Z" id="Fill-15" fill="#FEFEFE"/>
                <path d="M41.1817839,60.4050066 C40.8715358,60.4050066 40.6583606,60.2306124 40.6583606,59.8235321 L40.6583606,54.5620796 L41.0461708,54.5620796 C41.2497109,54.5620796 41.4722803,54.7270796 41.4722803,54.9595248 L41.4722803,60.4050066 L41.1817839,60.4050066 Z M40.4355504,54.1940212 C40.3194482,54.1940212 40.2418861,54.0971891 40.2418861,54.0097511 L40.2418861,53.8551088 L40.5904336,53.8551088 L40.5615285,53.7968168 C40.5227474,53.7192547 40.5227474,53.6320577 40.5227474,53.5253496 C40.5227474,53.1185102 40.7747036,52.827773 41.162273,52.827773 C41.4238642,52.827773 41.6466745,52.9730212 41.7047255,53.2153423 C41.7047255,53.3316854 41.6081343,53.4285175 41.6081343,53.5253496 C41.4527693,53.1377803 41.191419,53.1185102 41.1333679,53.1185102 C41.0362949,53.1185102 40.8715358,53.1669263 40.8715358,53.4964445 C40.8715358,53.6416927 40.8814117,53.7773058 40.9878788,53.8551088 L41.8116745,53.8551088 L41.8116745,54.0097511 C41.8116745,54.0971891 41.7338715,54.1940212 41.6081343,54.1940212 L40.4355504,54.1940212 Z" id="Fill-17" fill="#FEFEFE"/>
                <path d="M45.8033737,60.4050066 C45.4543445,60.4050066 45.1831182,60.1530504 45.1831182,59.8045029 C45.1831182,59.4460796 45.4543445,59.1941234 45.8033737,59.1941234 C46.1422861,59.1941234 46.4137533,59.4460796 46.4137533,59.8045029 C46.4137533,60.1530504 46.1422861,60.4050066 45.8033737,60.4050066" id="Fill-19" fill="#FEFEFE"/>
                <path d="M48.4385321,60.4050066 C48.0895029,60.4050066 47.8182766,60.1530504 47.8182766,59.8045029 C47.8182766,59.4460796 48.0895029,59.1941234 48.4385321,59.1941234 C48.7774445,59.1941234 49.0489117,59.4460796 49.0489117,59.8045029 C49.0489117,60.1530504 48.7774445,60.4050066 48.4385321,60.4050066" id="Fill-21" fill="#FEFEFE"/>
                <path d="M55.6855007,61.4611993 C55.6855007,61.199608 55.8989168,60.9963088 56.160508,60.9963088 C56.4220993,60.9963088 56.6253985,61.199608 56.6253985,61.4611993 C56.6253985,61.7230314 56.4220993,61.9265715 56.160508,61.9265715 C55.8989168,61.9265715 55.6855007,61.7230314 55.6855007,61.4611993 M59.2222818,58.5350387 C59.2222818,59.4265204 59.4453328,59.5910387 59.9492453,59.5910387 L60.1718146,59.5910387 L60.1718146,60.4049584 L59.7358292,60.4049584 C59.3388657,60.3854474 59.0189825,60.2597102 58.7571504,60.0369 C58.5538511,60.2503161 58.2631139,60.3854474 57.8755445,60.4049584 L54.5618146,60.4049584 C53.3504496,60.4049584 52.7301942,59.2810314 52.7301942,58.2734474 C52.7301942,57.0912285 53.2825226,56.6745131 53.8348511,56.6745131 L54.1643693,56.6745131 C54.1643693,56.6745131 53.4764277,57.1203745 53.4764277,58.0988124 C53.4764277,58.6222358 53.6989971,59.5910387 54.5712088,59.5910387 L57.6626102,59.5910387 C58.1176248,59.5910387 58.369581,59.3879803 58.3989679,58.8645569 L58.3989679,57.1006226 L58.6603182,57.1006226 C59.0963036,57.1006226 59.2319168,57.2848927 59.2319168,57.750265 C59.2319168,58.0797832 59.2222818,58.3411336 59.2222818,58.5350387" id="Fill-23" fill="#FEFEFE"/>
                <path d="M60.713665,57.3721861 L60.5585409,57.168646 C60.4715847,57.0621788 60.4325628,56.9458358 60.4325628,56.8393686 C60.4325628,56.6842445 60.5101248,56.5387555 60.7037891,56.3937482 L64.3277672,53.699792 L64.5604533,54.0097993 C64.6185044,54.0873613 64.6476504,54.1841934 64.6476504,54.2812664 C64.6476504,54.3973686 64.5989934,54.5137117 64.5024022,54.5912737 L61.9052781,56.5293613 C63.5914095,56.8487628 63.9888547,58.3898869 63.9789788,59.591135 L63.9693438,60.4050547 L59.9773073,60.4050547 L59.9773073,59.591135 L63.0971321,59.591135 C63.0487161,58.7287993 62.8261467,57.314135 61.2464825,57.314135 C61.0720883,57.314135 60.9169642,57.333646 60.7235409,57.3916971 L60.713665,57.3721861 Z" id="Fill-25" fill="#FEFEFE"/>
                <path d="M68.0967285,59.5911109 C68.0967285,58.1764467 68.1742905,57.0330088 66.9824365,57.0330088 C66.391327,57.0330088 66.0037577,57.5176511 66.0037577,58.2732788 C66.0037577,59.4750088 66.9145095,59.5911109 68.0967285,59.5911109 L68.0967285,59.5911109 Z M69.7828599,60.4050307 L68.8138161,60.4050307 C68.639181,61.3352934 67.7383051,62.1007971 66.498035,62.1007971 C66.0521737,62.1007971 65.6937504,61.9940891 65.6937504,61.6549358 L65.6937504,61.2673664 C65.8486336,61.2965124 66.0136336,61.3063883 66.1781518,61.3063883 C67.0115825,61.3063883 67.8739182,61.0057752 67.9998964,60.4050307 C66.8176774,60.3664905 65.2283781,60.0853883 65.2283781,58.408892 C65.2283781,57.0913007 65.9457066,56.2870161 67.0696336,56.2870161 C68.1258745,56.2870161 68.8525971,57.0816657 68.8525971,58.2636438 C68.8525971,59.5622058 68.8525971,59.5718409 68.8622321,59.5911109 L69.7828599,59.5911109 L69.7828599,60.4050307 Z" id="Fill-27" fill="#FEFEFE"/>
                <path d="M70.3247102,57.3721861 L70.1695861,57.168646 C70.0826299,57.0621788 70.043608,56.9458358 70.043608,56.8393686 C70.043608,56.6842445 70.1211701,56.5387555 70.3150752,56.3937482 L73.9388124,53.699792 L74.1714985,54.0097993 C74.2295496,54.0873613 74.2586956,54.1841934 74.2586956,54.2812664 C74.2586956,54.3973686 74.2102796,54.5137117 74.1134474,54.5912737 L71.5163234,56.5293613 C73.2024547,56.8487628 73.5999,58.3898869 73.5900241,59.591135 L73.5803891,60.4050547 L69.5883526,60.4050547 L69.5883526,59.591135 L72.7084182,59.591135 C72.6597613,58.7287993 72.437192,57.314135 70.8575277,57.314135 C70.6831336,57.314135 70.5280095,57.333646 70.3345861,57.3916971 L70.3247102,57.3721861 Z" id="Fill-29" fill="#FEFEFE"/>
                <path d="M81.9803825,59.5911109 L81.9803825,59.8334321 C81.9803825,60.2691766 81.8059883,60.4050307 81.3410978,60.4050307 L79.9165577,60.4050307 C79.2478861,60.4050307 79.151054,60.4630818 79.0638569,60.5021036 C78.8311708,60.6280818 78.4337255,60.9865051 78.4337255,61.5773737 C78.4337255,62.7692277 79.5193533,62.8373956 80.0329007,62.8373956 C80.5462073,62.8373956 80.9918277,62.7111766 81.2731708,62.4206803 L81.2731708,62.7595927 C81.2731708,63.059965 80.9145066,63.6026584 79.8874117,63.6026584 C78.8892219,63.6026584 77.6296818,63.176308 77.6007766,61.7035927 C77.6007766,60.8797971 77.9396891,60.2595416 78.5792146,59.8625781 C78.2496964,59.3586657 78.1143241,58.8545124 78.1143241,58.3992569 C78.1143241,57.2560599 78.9670248,56.3742131 80.0133898,56.3742131 C81.2245139,56.3742131 81.6604993,57.2365489 81.6604993,57.6339942 C81.6604993,57.8083883 81.6219591,57.9440015 81.563908,58.0309577 L81.3700029,58.3120599 C81.2828058,57.8278993 80.7981635,57.1686219 80.0714409,57.1686219 C79.4805723,57.1686219 78.9571489,57.6436292 78.9571489,58.3799869 C78.9571489,58.7287752 79.083127,59.1452496 79.3834993,59.5911109 L79.9165577,59.5911109 L81.9803825,59.5911109 Z" id="Fill-31" fill="#FEFEFE"/>
                <path d="M84.9545255,60.3760774 C84.9448905,60.4049825 84.9350146,60.4244934 84.9350146,60.4533985 L84.9350146,60.8797489 C84.9350146,61.5192745 84.4311022,62.1106248 83.6658394,62.1106248 C83.2683942,62.1106248 82.9971679,61.9458657 82.9971679,61.6650044 L82.9971679,61.4417124 C83.0747299,61.4515883 83.152292,61.4612234 83.229854,61.4612234 C84.2860949,61.4612234 84.1601168,60.8216978 84.1601168,59.5525226 L84.1601168,57.0912526 L84.4214672,57.0912526 C84.8574526,57.0912526 84.9930657,57.2755226 84.9930657,57.7404131 L84.9930657,59.5041066 C85.1094088,59.5621577 85.2450219,59.5910628 85.429292,59.5910628 L85.9428394,59.5910628 L85.9428394,60.4049825 L85.2161168,60.4049825 C85.1192847,60.4049825 85.0320876,60.3953474 84.9545255,60.3760774" id="Fill-33" fill="#FEFEFE"/>
                <path d="M85.7971095,59.5911109 L86.8822555,59.5911109 L86.8822555,56.6066584 L87.1438467,56.6066584 C87.5798321,56.6066584 87.7156861,56.7906876 87.7156861,57.2560599 L87.7156861,59.5911109 L88.5876569,59.5911109 C89.0431533,59.5911109 89.2948686,59.3878117 89.3242555,58.8643883 L89.3242555,56.6066584 L89.5858467,56.6066584 C90.0218321,56.6066584 90.1574453,56.7906876 90.1574453,57.2560599 C90.1574453,57.2560599 90.1574453,58.9518263 90.1670803,58.9710964 C90.1574453,59.1163445 90.1379343,59.2521985 90.1087883,59.3683007 C90.4187956,59.5525708 90.7194088,59.6202569 90.981,59.6202569 C91.5723504,59.6202569 91.7368686,59.3102496 91.7561387,58.8643883 L91.7561387,56.6066584 L92.0177299,56.6066584 C92.4537153,56.6066584 92.5893285,56.7906876 92.5893285,57.2560599 L92.5893285,58.5348701 C92.5893285,59.775381 91.9693139,60.4050307 91.1264891,60.4050307 C90.1379343,60.4050307 89.7698759,60.0755124 89.721219,60.0369723 C89.4887737,60.2691766 89.1884015,60.3953956 88.8008321,60.4050307 L85.7971095,60.4050307 L85.7971095,59.5911109 Z" id="Fill-35" fill="#FEFEFE"/>
                <path d="M94.3232737,60.4050066 C94.0132664,60.4050066 93.7998504,60.2306124 93.7998504,59.8235321 L93.7998504,54.5620796 L94.1876606,54.5620796 C94.3912007,54.5620796 94.6140109,54.7270796 94.6140109,54.9595248 L94.6140109,60.4050066 L94.3232737,60.4050066 Z M93.577281,54.1940212 C93.460938,54.1940212 93.3836168,54.0971891 93.3836168,54.0097511 L93.3836168,53.8551088 L93.7321642,53.8551088 L93.7032591,53.7968168 C93.6644781,53.7192547 93.6644781,53.6320577 93.6644781,53.5253496 C93.6644781,53.1185102 93.9164343,52.827773 94.3040036,52.827773 C94.5655949,52.827773 94.7884051,52.9730212 94.8464562,53.2153423 C94.8464562,53.3316854 94.749865,53.4285175 94.749865,53.5253496 C94.5945,53.1377803 94.3331496,53.1185102 94.2750985,53.1185102 C94.1777847,53.1185102 94.0132664,53.1669263 94.0132664,53.4964445 C94.0132664,53.6416927 94.0231423,53.7773058 94.1293686,53.8551088 L94.9531642,53.8551088 L94.9531642,54.0097511 C94.9531642,54.0971891 94.8756022,54.1940212 94.749865,54.1940212 L93.577281,54.1940212 Z" id="Fill-37" fill="#FEFEFE"/>
                <path d="M47.2240358,38.2712321 L44.1743058,38.2712321 L44.1743058,48.8331591 L42.624992,48.8331591 C42.0379774,48.8331591 41.5622474,48.3571883 41.5622474,47.7704146 L41.5622474,38.2712321 L37.7308752,38.2712321 L37.7308752,36.9709839 C37.7308752,36.5203051 38.0960431,36.1553781 38.546481,36.1553781 L48.0577073,36.1553781 L48.0577073,37.4373197 C48.0577073,37.8978745 47.6845905,38.2712321 47.2240358,38.2712321" id="Fill-39" fill="#FEFEFE"/>
                <path d="M53.5679606,44.1049577 L56.7374058,44.1049577 L55.1440117,39.3597022 L53.5679606,44.1049577 Z M57.4426905,46.2208117 L52.8626759,46.2208117 L51.9919095,48.8331109 L50.1475226,48.8331109 C49.6953985,48.8331109 49.3822599,48.3821912 49.5397927,47.9584905 L53.9336102,36.1553299 L55.1348584,36.1553299 C55.8683255,36.1553299 56.5247124,36.6103445 56.781727,37.2970818 L60.7190847,47.8161328 C60.9033547,48.3084832 60.5393912,48.8331109 60.0140409,48.8331109 L58.3221285,48.8331109 L57.4426905,46.2208117 Z" id="Fill-41" fill="#FEFEFE"/>
                <path d="M66.6787642,42.0763248 L68.7859467,42.0763248 C69.4423336,42.0763248 69.9496182,41.9093978 70.3097277,41.5760255 C70.6698372,41.2419307 70.8495307,40.7820985 70.8495307,40.1953248 C70.8495307,39.5977117 70.6794723,39.1277628 70.3405599,38.7849964 C70.0002022,38.4419891 69.4794285,38.271208 68.7772752,38.271208 L66.6787642,38.271208 L66.6787642,42.0763248 Z M68.7599321,44.1921788 L66.6787642,44.1921788 L66.6787642,48.833135 L65.1465526,48.833135 C64.5501438,48.833135 64.0667058,48.3496971 64.0667058,47.7532883 L64.0667058,36.155354 L68.7772752,36.155354 C70.2750416,36.155354 71.4298007,36.4894489 72.2427569,37.1566752 C73.0557131,37.8239015 73.4618299,38.7674124 73.4618299,39.9864854 C73.4618299,40.8517117 73.2741876,41.5726533 72.9005891,42.1507555 C72.5253044,42.7276533 71.9585234,43.1874854 71.1978372,43.5302518 L73.9406912,48.7112518 L73.9406912,48.833135 L71.9968226,48.833135 C71.4690635,48.833135 70.9856255,48.5375803 70.7449905,48.0678723 L68.7599321,44.1921788 Z" id="Fill-43" fill="#FEFEFE"/>
                <path d="M84.1819161,43.3388036 L79.8427774,43.3388036 L79.8427774,46.7346723 L85.7288212,46.7346723 L85.7288212,47.9395336 C85.7288212,48.4328474 85.3287263,48.8331832 84.8351715,48.8331832 L77.2304781,48.8331832 L77.2304781,36.1554022 L84.754719,36.1554022 C85.2832007,36.1554022 85.7114781,36.5836796 85.7114781,37.1119204 L85.7114781,38.2712562 L79.8427774,38.2712562 L79.8427774,41.2925628 L84.8580547,41.2925628 L84.8580547,42.6624241 C84.8580547,43.0360226 84.5552737,43.3388036 84.1819161,43.3388036" id="Fill-45" fill="#FEFEFE"/>
                <path d="M14.6947314,14.7445445 L20.6328044,14.7445445 L20.6328044,24.0789679 L20.6116073,25.2965956 C20.3765124,29.6326029 19.0309796,32.9863182 16.5316511,35.3998949 C14.0325635,37.8137124 10.7646,38.9029533 6.70608175,38.7109752 C6.64200876,38.7109752 6.59913285,38.7109752 6.57793577,38.6895372 L6.87686277,32.9863182 C6.94093577,32.9863182 6.9835708,33.0075153 7.00500876,33.0075153 C9.09846131,33.1142234 10.8925051,32.4949314 12.4093007,31.1491577 C13.9258555,29.8036248 14.6947314,27.4324423 14.7376073,24.0789679" id="Fill-47" fill="#FEFEFE"/>
                <g id="Group-51" transform="translate(24.810219, 0.011562)">
                    <mask id="mask-2" fill="white">
                        <use xlink:href="#path-1"/>
                    </mask>
                    <g id="Clip-50"/>
                    <path d="M36.3432131,25.4771321 L21.2841328,25.4771321 L21.2841328,25.349227 C21.2841328,22.9351686 22.0744467,21.1411248 23.6338774,19.9232562 C25.2145051,18.7061102 26.9447168,18.1077745 28.8245124,18.1077745 C30.7040672,18.1077745 32.4342788,18.7061102 33.9937095,19.9232562 C35.5528993,21.1411248 36.3432131,22.9351686 36.3432131,25.349227 L36.3432131,25.4771321 Z M59.2416,20.0516431 C60.6940818,18.5991613 63.0862204,17.8729204 66.4184978,17.8729204 L66.4184978,17.8514825 L70.0499431,17.8514825 L70.0499431,15.4805409 C70.0499431,14.562081 69.7081401,13.7715263 69.0030964,13.1307964 C68.3197314,12.4900664 67.5294175,12.1697015 66.6107168,12.1697015 L66.4184978,12.1697015 L65.500038,12.1697015 C61.1425927,12.1697015 57.7036073,13.3658912 55.1616438,15.7368328 C52.6196803,18.1077745 51.3594175,21.3119058 51.3594175,25.391862 L51.3594175,25.4771321 L47.3011401,25.4771321 L45.1650526,25.4771321 L42.0464321,25.4771321 L42.0464321,25.349227 C42.0464321,22.2518036 41.3201912,19.710081 39.8462715,17.7235774 C38.3937898,15.7368328 36.5995051,14.284592 34.4422204,13.3873292 C32.3061328,12.4686285 30.0204613,12.1056285 27.5642496,12.2978474 C25.1289942,12.4686285 22.9290745,13.1736723 20.9852058,14.4124971 L20.9852058,0.229241606 L17.8665854,0.229241606 C16.9907606,0.229241606 16.2218847,0.571044526 15.6023518,1.23321241 C14.982819,1.89538029 14.683892,2.66449708 14.683892,3.5403219 C14.683892,10.8880007 14.6410161,18.1932854 14.6410161,25.4771321 L10.7108847,25.4771321 L8.57479708,25.4771321 L6.41751241,25.4771321 L6.41751241,3.5403219 C6.41751241,2.66449708 6.09714745,1.89538029 5.4776146,1.23321241 C4.85808175,0.571044526 4.1106438,0.229241606 3.23481898,0.229241606 L0.11619854,0.229241606 L0.11619854,25.4771321 L0.11619854,26.3529569 C0.11619854,27.6984898 0.586147445,28.8520445 1.52604526,29.8131394 C2.48714015,30.7747161 3.64045401,31.244665 4.98622774,31.244665 L8.57479708,31.244665 L10.7108847,31.244665 L45.1650526,31.244665 L47.0874832,31.244665 L47.3011401,31.244665 L52.9400453,31.244665 L57.5966584,31.244665 L70.0285051,31.244665 L70.0285051,25.4771321 L61.6766146,25.4771321 L58.6220672,25.4771321 L58.4936803,25.4771321 L57.0840745,25.4771321 L57.0840745,25.391862 C57.0840745,23.2769715 57.8103153,21.5041248 59.2416,20.0516431 L59.2416,20.0516431 Z" id="Fill-49" fill="#FEFEFE" mask="url(#mask-2)"/>
                </g>
                <path d="M33.0042394,42.2068796 C33.0042394,40.8777263 32.7660131,39.8677336 32.2902832,39.1766606 C31.8145533,38.4858285 31.1352832,38.1404124 30.2527139,38.1404124 C29.3764073,38.1404124 28.699546,38.4817336 28.2238161,39.1631715 C27.7480861,39.845573 27.5067285,40.8454489 27.5011883,42.163281 L27.5011883,42.7816095 C27.5011883,44.0758358 27.7394146,45.0802883 28.2151445,45.7944854 C28.6908745,46.5082007 29.3764073,46.8654197 30.2700569,46.8654197 C31.1463635,46.8654197 31.8198526,46.5216898 32.2902832,45.8330255 C32.760473,45.1460474 32.9986993,44.1430401 33.0042394,42.8249672 L33.0042394,42.2068796 Z M35.6512248,42.7816095 C35.6512248,44.0298285 35.4303416,45.123646 34.9895387,46.0642664 C34.5487358,47.004646 33.9169182,47.730646 33.0960131,48.241062 C32.2743854,48.751719 31.3325606,49.0072883 30.2700569,49.0072883 C29.219838,49.0072883 28.2816263,48.7548504 27.4575898,48.2497336 C26.6335533,47.7446168 25.9947504,47.0236752 25.5421445,46.0861861 C25.0892978,45.1484562 24.8597431,44.0700547 24.8542029,42.8512226 L24.8542029,42.2242226 C24.8542029,40.9760036 25.0789401,39.8771277 25.5286555,38.9290401 C25.9788526,37.9790255 26.614765,37.2508577 27.4363927,36.7426095 C28.2570569,36.2353248 29.1959912,35.9809599 30.2527139,35.9809599 C31.3094365,35.9809599 32.2481299,36.2353248 33.0692759,36.7426095 C33.8909036,37.2508577 34.5263343,37.9790255 34.9767723,38.9290401 C35.4264876,39.8771277 35.6512248,40.9735949 35.6512248,42.2155511 L35.6512248,42.7816095 Z" id="Fill-52" fill="#FEFEFE"/>
                <path d="M0,8.7838292 L0,13.868238 C3.00637226,14.0604569 5.37273723,16.5513547 5.37273723,19.6022891 C5.37273723,22.4183693 3.35636496,24.7575153 0.68119708,25.2517927 C0.28640146,25.3247781 0,25.668508 0,26.0698073 L0,30.420508 C0,30.9236978 0.442729927,31.3127124 0.942065693,31.2486394 C6.72116058,30.5048146 11.163635,25.5779387 11.163635,19.6022891 C11.163635,13.6263985 6.72116058,8.69928175 0.942065693,7.95569781 C0.442729927,7.89138394 0,8.28063942 0,8.7838292" id="Fill-54" fill="#FEFEFE"/>
                <path d="M88.7970022,36.6187511 L88.7970022,39.3801526 C90.4299,39.4844518 91.714973,40.8374518 91.714973,42.4944372 C91.714973,44.1511818 90.4299,45.5039409 88.7970022,45.6082401 L88.7970022,48.3694007 C88.7970022,48.644481 89.0395642,48.8540431 89.3122358,48.8188752 C92.4491628,48.413481 94.8600898,45.7383131 94.8600898,42.4944372 C94.8600898,39.2500796 92.4491628,36.5749117 89.3122358,36.1695175 C89.0395642,36.1341088 88.7970022,36.3439117 88.7970022,36.6187511" id="Fill-56" fill="#FEFEFE"/>
                <g id="Group-60" transform="translate(102.854015, 0.734190)">
                    <mask id="mask-4" fill="white">
                        <use xlink:href="#path-3"/>
                    </mask>
                    <g id="Clip-59"/>
                    <path d="M31.0529036,54.8954036 C17.9596117,54.8954036 7.34517372,44.2812066 7.34517372,31.1876737 C7.34517372,18.0941409 17.9596117,7.47970292 31.0529036,7.47970292 C44.1464365,7.47970292 54.7608745,18.0941409 54.7608745,31.1876737 C54.7608745,44.2812066 44.1464365,54.8954036 31.0529036,54.8954036 M31.0529036,0.164542336 C13.9194,0.164542336 0.0300131387,14.0541701 0.0300131387,31.1876737 C0.0300131387,48.3211774 13.9194,62.2105642 31.0529036,62.2105642 C48.1866482,62.2105642 62.076035,48.3211774 62.076035,31.1876737 C62.076035,14.0541701 48.1866482,0.164542336 31.0529036,0.164542336" id="Fill-58" fill="#1D3355" mask="url(#mask-4)"/>
                </g>
                <path d="M133.906918,45.4248372 C126.4494,45.4248372 120.403896,39.3793336 120.403896,31.9218153 C120.403896,24.4642971 126.4494,18.4187934 133.906918,18.4187934 C141.364677,18.4187934 147.410181,24.4642971 147.410181,31.9218153 C147.410181,39.3793336 141.364677,45.4248372 133.906918,45.4248372 M133.906918,11.8144577 C122.801816,11.8144577 113.799561,20.8167131 113.799561,31.9218153 C113.799561,43.0269175 122.801816,52.029173 133.906918,52.029173 C145.01202,52.029173 154.014517,43.0269175 154.014517,31.9218153 C154.014517,20.8167131 145.01202,11.8144577 133.906918,11.8144577" id="Fill-61" fill="#45B7C4"/>
                <path d="M133.906918,36.9560737 C131.126728,36.9560737 128.872853,34.7021978 128.872853,31.9217672 C128.872853,29.1415774 131.126728,26.8874606 133.906918,26.8874606 C136.687349,26.8874606 138.941225,29.1415774 138.941225,31.9217672 C138.941225,34.7021978 136.687349,36.9560737 133.906918,36.9560737 M133.906918,21.7943803 C128.31378,21.7943803 123.779531,26.3286285 123.779531,31.9217672 C123.779531,37.5149058 128.31378,42.0493949 133.906918,42.0493949 C139.500298,42.0493949 144.034305,37.5149058 144.034305,31.9217672 C144.034305,26.3286285 139.500298,21.7943803 133.906918,21.7943803" id="Fill-63" fill="#BE9E5F"/>
                <path d="M134.317853,0.967694891 C117.222407,0.967694891 103.363853,14.8262496 103.363853,31.9219358 C103.363853,49.017381 117.222407,62.8761766 134.317853,62.8761766" id="Fill-65" fill="#004B40"/>
                <path d="M133.595225,0.967694891 C116.49978,0.967694891 102.641225,14.8262496 102.641225,31.9219358 C102.641225,49.017381 116.49978,62.8761766 133.595225,62.8761766" id="Fill-67" fill="#59C0A1"/>
            </g>
        </g>
    </g>
</svg>