<svg xmlns="http://www.w3.org/2000/svg" width="144.694" height="55.588" viewBox="0 0 144.694 55.588"><defs><style>.a{fill:#313133;}.b{fill:#102744;}.c{fill:#37acb9;}.d{fill:#b68c4b;}.e{fill:#043b31;opacity:0.2;}.f{fill:#52b590;}</style></defs><g transform="translate(0.379 46.135)"><path class="a" d="M53.19,404.028a9,9,0,0,1-.034.935.641.641,0,0,0,.519.187h.2v.714h-.382a1.4,1.4,0,0,1-.476-.093,2.068,2.068,0,0,1-2.049,1.759,2.245,2.245,0,0,1-2.363-2.414c0-.757.314-1.292,1-1.292l.3.025v.034a1.34,1.34,0,0,0-.637,1.173A1.591,1.591,0,0,0,50.9,406.8c1.649,0,1.556-2.355,1.556-2.5v-3.553h.229c.382,0,.5.161.5.57Z" transform="translate(-48.599 -399.217)"/><path class="a" d="M73.253,414.144H72.53v-.714h.536c.4,0,.62-.178.646-.638v-1.547h.229c.382,0,.5.162.5.57v.688C74.443,413.311,74.188,414.084,73.253,414.144Zm-.527.927a.41.41,0,0,1,.417-.408.408.408,0,1,1,0,.816A.41.41,0,0,1,72.726,415.071Zm.969,0a.417.417,0,1,1,.425.408A.412.412,0,0,1,73.695,415.071Z" transform="translate(-67.473 -407.496)"/><path class="a" d="M88.793,411.48h-.85a1.964,1.964,0,0,1-2.032,1.488c-.391,0-.705-.094-.705-.391v-.34a2.313,2.313,0,0,0,.425.034c.731,0,1.488-.264,1.6-.791-1.037-.034-2.431-.281-2.431-1.751,0-1.156.629-1.862,1.615-1.862a1.572,1.572,0,0,1,1.564,1.734c0,1.139,0,1.147.009,1.164h.807Zm-1.479-.714c0-1.241.068-2.244-.978-2.244-.518,0-.858.425-.858,1.088C85.478,410.664,86.277,410.766,87.314,410.766Z" transform="translate(-77.148 -404.832)"/><path class="a" d="M107.237,410.86v.714c-.688,0-1.105-.111-1.394-.5a1.415,1.415,0,0,1-1.147.519,1.56,1.56,0,0,1-1.2-.536,1.462,1.462,0,0,1-1.284.527.233.233,0,0,1-.068-.009h-.051v-.714h.111c.748,0,.876-.281.876-1.012,0-1.156.629-1.862,1.615-1.862.918,0,1.556.7,1.556,1.862,0,.731.128,1.012.876,1.012Zm-1.683-1.02c0-.765-.332-1.165-.935-1.165-.51,0-.841.4-.841,1.054,0,.714.348,1.173.969,1.173C105.264,410.9,105.554,410.461,105.554,409.84Z" transform="translate(-90.789 -404.927)"/><path class="a" d="M125.34,409.417h-.723V408.7h.536c.4,0,.62-.178.646-.638v-1.547h.229c.383,0,.5.162.5.57v.689C126.531,408.584,126.276,409.358,125.34,409.417Zm-.127-3.757a.41.41,0,0,1,.417-.408.408.408,0,0,1,0,.816A.41.41,0,0,1,125.213,405.66Zm.969,0a.417.417,0,1,1,.425.408A.412.412,0,0,1,126.182,405.66Z" transform="translate(-108.554 -402.77)"/><path class="a" d="M152.192,411.051v.212c0,.383-.153.5-.561.5h-1.25c-.587,0-.672.051-.748.085a1.088,1.088,0,0,0-.553.943c0,1.046.952,1.105,1.4,1.105a1.483,1.483,0,0,0,1.088-.365v.3c0,.264-.315.74-1.216.74-.876,0-1.981-.374-2.006-1.667a1.786,1.786,0,0,1,.858-1.615,2.341,2.341,0,0,1-.408-1.284,1.712,1.712,0,0,1,1.666-1.777,1.309,1.309,0,0,1,1.445,1.105.636.636,0,0,1-.085.348l-.17.247a1.239,1.239,0,0,0-1.139-1,1,1,0,0,0-.978,1.063,1.938,1.938,0,0,0,.374,1.063h2.278Z" transform="translate(-127.27 -405.118)"/><path class="a" d="M172.47,414.088a.2.2,0,0,0-.017.068v.374a1.084,1.084,0,0,1-1.113,1.08c-.349,0-.587-.145-.587-.391v-.2a1.657,1.657,0,0,0,.2.017c.927,0,.816-.561.816-1.675v-2.159H172c.382,0,.5.161.5.57v1.547a.828.828,0,0,0,.383.076h.451v.714H172.7A.955.955,0,0,1,172.47,414.088Z" transform="translate(-144.939 -407.466)"/><path class="a" d="M182.377,411.812h.952v-2.618h.229c.383,0,.5.161.5.57v2.049h.765c.4,0,.62-.178.646-.638v-1.981h.229c.382,0,.5.161.5.57,0,0,0,1.488.009,1.5a2.019,2.019,0,0,1-.051.349,1.493,1.493,0,0,0,.765.221c.519,0,.663-.272.68-.663v-1.981h.229c.382,0,.5.161.5.57v1.122c0,1.088-.544,1.641-1.284,1.641a1.826,1.826,0,0,1-1.233-.323,1.129,1.129,0,0,1-.808.323h-2.635Z" transform="translate(-154.107 -405.879)"/><path class="a" d="M214.041,394.7a.169.169,0,0,1-.17-.162v-.136h.306l-.025-.051a.523.523,0,0,1-.034-.238.559.559,0,0,1,.561-.612.464.464,0,0,1,.476.34c0,.1-.085.187-.085.272-.136-.34-.366-.357-.417-.357-.085,0-.23.043-.23.332a.359.359,0,0,0,.1.314h.723v.136a.171.171,0,0,1-.179.162Zm.655,5.449c-.272,0-.459-.153-.459-.51v-4.616h.34a.372.372,0,0,1,.374.349v4.777Z" transform="translate(-178.945 -393.506)"/><path class="a" d="M234.929,421a.531.531,0,1,1,.535-.527A.523.523,0,0,1,234.929,421Z" transform="translate(-195.124 -414.35)"/><path class="a" d="M245.869,421a.531.531,0,1,1,.535-.527A.523.523,0,0,1,245.869,421Z" transform="translate(-203.753 -414.35)"/><path class="a" d="M271.412,411.108c0,.782.2.927.638.927h.2v.714h-.383a1.382,1.382,0,0,1-.859-.323,1.106,1.106,0,0,1-.774.323h-2.907a1.725,1.725,0,0,1-1.607-1.87c0-1.037.484-1.4.969-1.4h.289a1.517,1.517,0,0,0-.6,1.25c0,.459.2,1.309.96,1.309h2.712c.4,0,.62-.178.646-.638V409.85h.229c.382,0,.5.162.5.57C271.421,410.709,271.412,410.938,271.412,411.108Zm-3.1,2.567a.41.41,0,0,1,.417-.408.408.408,0,1,1,0,.816A.41.41,0,0,1,268.309,413.675Z" transform="translate(-219.835 -406.101)"/><path class="a" d="M296.449,400.348l-.136-.179a.458.458,0,0,1-.111-.289.487.487,0,0,1,.238-.391l3.179-2.363.2.272a.4.4,0,0,1,.076.238.347.347,0,0,1-.127.272l-2.278,1.7a2.416,2.416,0,0,1,1.819,2.686l-.008.714h-3.5v-.714h2.737c-.042-.757-.238-2-1.624-2a1.506,1.506,0,0,0-.459.068Z" transform="translate(-243.564 -396.361)"/><path class="a" d="M321.6,411.48h-.85a1.964,1.964,0,0,1-2.032,1.488c-.391,0-.705-.094-.705-.391v-.34a2.314,2.314,0,0,0,.425.034c.731,0,1.488-.264,1.6-.791-1.037-.034-2.431-.281-2.431-1.751,0-1.156.629-1.862,1.615-1.862a1.572,1.572,0,0,1,1.564,1.734c0,1.139,0,1.147.009,1.164h.807Zm-1.479-.714c0-1.241.068-2.244-.978-2.244-.518,0-.858.425-.858,1.088C318.283,410.664,319.082,410.766,320.119,410.766Z" transform="translate(-260.757 -404.832)"/><path class="a" d="M336.349,400.348l-.136-.179a.459.459,0,0,1-.11-.289.487.487,0,0,1,.238-.391l3.179-2.363.2.272a.4.4,0,0,1,.076.238.346.346,0,0,1-.127.272l-2.279,1.7a2.415,2.415,0,0,1,1.819,2.686l-.008.714h-3.5v-.714h2.737c-.042-.757-.238-2-1.624-2a1.5,1.5,0,0,0-.459.068Z" transform="translate(-275.032 -396.361)"/><path class="a" d="M372.809,411.051v.212c0,.383-.153.5-.561.5H371c-.587,0-.672.051-.748.085a1.088,1.088,0,0,0-.553.943c0,1.046.952,1.105,1.4,1.105a1.483,1.483,0,0,0,1.088-.365v.3c0,.264-.315.74-1.216.74-.875,0-1.981-.374-2.006-1.667a1.786,1.786,0,0,1,.858-1.615,2.341,2.341,0,0,1-.408-1.284,1.712,1.712,0,0,1,1.666-1.777,1.309,1.309,0,0,1,1.445,1.105.634.634,0,0,1-.085.348l-.17.247a1.239,1.239,0,0,0-1.139-1,1,1,0,0,0-.978,1.063,1.938,1.938,0,0,0,.374,1.063h2.278Z" transform="translate(-301.266 -405.118)"/><path class="a" d="M393.087,414.088a.2.2,0,0,0-.017.068v.374a1.083,1.083,0,0,1-1.113,1.08c-.349,0-.587-.145-.587-.391v-.2a1.657,1.657,0,0,0,.2.017c.927,0,.816-.561.816-1.675v-2.159h.229c.383,0,.5.161.5.57v1.547a.827.827,0,0,0,.383.076h.451v.714h-.638A.957.957,0,0,1,393.087,414.088Z" transform="translate(-318.935 -407.466)"/><path class="a" d="M402.994,411.812h.952v-2.618h.229c.383,0,.5.161.5.57v2.049h.765c.4,0,.62-.178.646-.638v-1.981h.229c.383,0,.5.161.5.57,0,0,0,1.488.009,1.5a2.022,2.022,0,0,1-.051.349,1.493,1.493,0,0,0,.765.221c.519,0,.663-.272.68-.663v-1.981h.229c.383,0,.5.161.5.57v1.122c0,1.088-.544,1.641-1.284,1.641a1.827,1.827,0,0,1-1.233-.323,1.128,1.128,0,0,1-.807.323h-2.635Z" transform="translate(-328.103 -405.879)"/><path class="a" d="M434.659,394.7a.169.169,0,0,1-.17-.162v-.136h.306l-.026-.051a.522.522,0,0,1-.034-.238.559.559,0,0,1,.561-.612.464.464,0,0,1,.476.34c0,.1-.085.187-.085.272-.136-.34-.366-.357-.417-.357-.085,0-.229.043-.229.332a.359.359,0,0,0,.1.314h.723v.136a.171.171,0,0,1-.179.162Zm.655,5.449c-.272,0-.459-.153-.459-.51v-4.616h.34a.372.372,0,0,1,.374.349v4.777Z" transform="translate(-352.942 -393.506)"/></g><path class="b" d="M211.774,326.146H209.1v9.266H207.74a.932.932,0,0,1-.932-.932v-8.334h-3.361v-1.141a.716.716,0,0,1,.716-.716h8.344v1.125A.732.732,0,0,1,211.774,326.146Z" transform="translate(-170.345 -292.782)"/><path class="b" d="M259.269,333.121h-4.018l-.764,2.292h-1.618a.569.569,0,0,1-.533-.767l3.855-10.355h1.054a1.542,1.542,0,0,1,1.445,1l3.454,9.229a.661.661,0,0,1-.619.892h-1.484Zm-3.4-1.856h2.781l-1.4-4.163Z" transform="translate(-208.874 -292.782)"/><path class="b" d="M316.9,331.341h-1.826v4.071h-1.344a.947.947,0,0,1-.947-.947V324.29h4.133a4.673,4.673,0,0,1,3.04.878,3.031,3.031,0,0,1,1.069,2.483,3.43,3.43,0,0,1-.492,1.9,3.37,3.37,0,0,1-1.494,1.21l2.406,4.545v.107h-1.705a1.234,1.234,0,0,1-1.1-.671Zm-1.826-1.856h1.849a1.9,1.9,0,0,0,1.337-.439,1.57,1.57,0,0,0,.474-1.211,1.683,1.683,0,0,0-.447-1.238,1.858,1.858,0,0,0-1.371-.451h-1.841Z" transform="translate(-256.574 -292.782)"/><path class="b" d="M373.528,330.592h-3.807v2.979h5.164v1.057a.784.784,0,0,1-.784.784H367.43V324.29h6.6a.839.839,0,0,1,.839.839v1.017h-5.149V328.8h4.4V330A.593.593,0,0,1,373.528,330.592Z" transform="translate(-299.675 -292.782)"/><path class="b" d="M81.235,235.4h5.209v8.189l-.019,1.068c-.206,3.8-1.387,6.746-3.579,8.864a11.061,11.061,0,0,1-8.62,2.9c-.056,0-.094,0-.112-.019l.262-5a.661.661,0,0,1,.112.019,6.373,6.373,0,0,0,4.741-1.63c1.33-1.181,2.005-3.261,2.043-6.2" transform="translate(-68.343 -222.679)"/><path class="b" d="M202.159,192.581q1.911-1.911,6.3-1.911v-.019h3.186v-2.08a2.681,2.681,0,0,0-.918-2.061,2.963,2.963,0,0,0-2.1-.843h-.975q-5.734,0-9.07,3.129a11,11,0,0,0-3.336,8.47v.075h-8.171v-.112a10.93,10.93,0,0,0-1.93-6.69,11.085,11.085,0,0,0-4.741-3.8,12.546,12.546,0,0,0-6.034-.956,12.155,12.155,0,0,0-5.772,1.855V175.191h-2.736a2.645,2.645,0,0,0-1.986.881,2.862,2.862,0,0,0-.806,2.024c0,6.446-.037,12.855-.037,19.245h-7.215V178.1a2.881,2.881,0,0,0-.825-2.024,2.606,2.606,0,0,0-1.968-.881h-2.736v22.918a4.188,4.188,0,0,0,1.237,3.036,4.131,4.131,0,0,0,3.036,1.256h57.062v-5.06H200.266v-.075A6.418,6.418,0,0,1,202.159,192.581Zm-20.089,4.76H168.859v-.112a5.659,5.659,0,0,1,2.061-4.76,7.29,7.29,0,0,1,4.554-1.593,7.2,7.2,0,0,1,4.535,1.593,5.659,5.659,0,0,1,2.061,4.76Z" transform="translate(-128.42 -175.191)"/><path class="b" d="M159.461,329.533a6.718,6.718,0,0,1-.581,2.88,4.373,4.373,0,0,1-1.661,1.91,4.91,4.91,0,0,1-4.947.008,4.418,4.418,0,0,1-1.681-1.9,6.524,6.524,0,0,1-.6-2.838v-.55a6.679,6.679,0,0,1,.591-2.891,4.41,4.41,0,0,1,1.674-1.918,4.9,4.9,0,0,1,4.942,0,4.41,4.41,0,0,1,1.674,1.918,6.659,6.659,0,0,1,.592,2.883Zm-2.322-.5a4.683,4.683,0,0,0-.627-2.658,2.213,2.213,0,0,0-3.567-.012,4.629,4.629,0,0,0-.634,2.632v.542a4.741,4.741,0,0,0,.626,2.643,2.193,2.193,0,0,0,3.575.034,4.706,4.706,0,0,0,.627-2.639Z" transform="translate(-128.184 -292.212)"/><path class="b" d="M46.806,207.923v4.461a5.042,5.042,0,0,1,.6,9.987.73.73,0,0,0-.6.718V226.9a.733.733,0,0,0,.826.727,10.3,10.3,0,0,0,0-20.435A.733.733,0,0,0,46.806,207.923Z" transform="translate(-46.806 -200.428)"/><path class="b" d="M415.449,324.73v2.423a2.738,2.738,0,0,1,0,5.464v2.422a.4.4,0,0,0,.452.394,5.6,5.6,0,0,0,0-11.1A.4.4,0,0,0,415.449,324.73Z" transform="translate(-337.547 -292.816)"/><g transform="translate(90.047 0.577)"><path class="b" d="M501.147,177.922a27.217,27.217,0,1,0,27.217,27.217A27.217,27.217,0,0,0,501.147,177.922Zm0,48.016a20.8,20.8,0,1,1,20.8-20.8A20.8,20.8,0,0,1,501.147,225.938Z" transform="translate(-473.717 -177.922)"/><path class="c" d="M536.887,223.238a17.64,17.64,0,1,0,17.64,17.641A17.64,17.64,0,0,0,536.887,223.238Zm0,29.487a11.846,11.846,0,1,1,11.846-11.846A11.846,11.846,0,0,1,536.887,252.725Z" transform="translate(-509.458 -213.662)"/><path class="d" d="M569.564,264.671a8.885,8.885,0,1,0,8.885,8.885A8.885,8.885,0,0,0,569.564,264.671Zm0,13.3a4.417,4.417,0,1,1,4.417-4.416A4.417,4.417,0,0,1,569.564,277.972Z" transform="translate(-542.134 -246.339)"/><path class="e" d="M503.078,178.208a27.156,27.156,0,1,0,0,54.312" transform="translate(-475.288 -178.148)"/><path class="f" d="M500.078,178.208a27.156,27.156,0,1,0,0,54.312" transform="translate(-472.922 -178.148)"/></g></svg>