<?xml version="1.0" encoding="UTF-8"?>
<svg width="66px" height="64px" viewBox="0 0 66 64" version="1.1" xmlns="http://www.w3.org/2000/svg" xmlns:xlink="http://www.w3.org/1999/xlink">
    <!-- Generator: sketchtool 59 (101010) - https://sketch.com -->
    <title>F5079513-20B8-4991-AAB5-D144DD14A5D9</title>
    <desc>Created with sketchtool.</desc>
    <g id="Website-Design" stroke="none" stroke-width="1" fill="none" fill-rule="evenodd">
        <g id="JE-WS-Home-Page-01" transform="translate(-925.000000, -1628.000000)" fill-rule="nonzero">
            <g id="auction" transform="translate(925.000000, 1628.000000)">
                <path d="M12.821875,55.9171875 C11.334375,57.3609375 8.996875,57.3609375 7.615625,55.9171875 L7.615625,55.9171875 C6.128125,54.4734375 6.128125,52.2046875 7.615625,50.8640625 L34.178125,25.0828125 C35.665625,23.6390625 38.003125,23.6390625 39.384375,25.0828125 L39.384375,25.0828125 C40.871875,26.5265625 40.871875,28.7953125 39.384375,30.1359375 L12.821875,55.9171875 Z" id="Path" fill="#00678A"></path>
                <path d="M12.28125,61.78125 C10.65625,63.40625 8.1171875,63.40625 6.4921875,61.78125 L1.71875,57.0078125 C0.09375,55.3828125 0.09375,52.84375 1.71875,51.21875 L1.71875,51.21875 C3.34375,49.59375 5.8828125,49.59375 7.5078125,51.21875 L12.28125,55.9921875 C13.90625,57.6171875 13.90625,60.15625 12.28125,61.78125 L12.28125,61.78125 Z" id="Path" fill="#00B5F0"></path>
                <path d="M57.2246222,34.6869416 C52.7146295,39.0521543 47.8824945,36.6616807 43.3725018,32.2964679 L32.3122817,21.5913032 C27.802289,17.2260904 25.4399119,12.5490767 29.8425238,8.18386392 L31.7753778,6.31305844 C36.2853705,1.94784565 41.1175055,4.33831932 45.6274982,8.70353211 L56.6877183,19.4086968 C61.197711,23.7739096 63.5600881,28.4509233 59.1574762,32.8161361 L57.2246222,34.6869416 Z" id="Path" fill="#00678A"></path>
                <path d="M27.1601307,14.4155844 C26.3235294,15.1948052 24.9640523,15.1948052 24.127451,14.4155844 L24.127451,14.4155844 C23.2908497,13.6363636 23.2908497,12.3701299 24.127451,11.5909091 L35.8398693,0.584415584 C36.6764706,-0.194805195 38.0359477,-0.194805195 38.872549,0.584415584 L38.872549,0.584415584 C39.7091503,1.36363636 39.7091503,2.62987013 38.872549,3.40909091 L27.1601307,14.4155844 Z" id="Path" fill="#00B5F0"></path>
                <path d="M52.6601307,39.4117647 C51.8235294,40.1960784 50.4640523,40.1960784 49.627451,39.4117647 L49.627451,39.4117647 C48.7908497,38.627451 48.7908497,37.3529412 49.627451,36.5686275 L61.3398693,25.5882353 C62.1764706,24.8039216 63.5359477,24.8039216 64.372549,25.5882353 L64.372549,25.5882353 C65.2091503,26.372549 65.2091503,27.6470588 64.372549,28.4313725 L52.6601307,39.4117647 Z" id="Path" fill="#00B5F0"></path>
                <g id="Group" transform="translate(30.500000, 22.000000)" fill="#00B5F0">
                    <path d="M10.119685,10.0058824 C9.37007874,10.7470588 8.08503937,10.7470588 7.33543307,10.0058824 L0.588976378,3.33529412 C-0.160629921,2.59411765 -0.160629921,1.32352941 0.588976378,0.582352941 L0.588976378,0.582352941 C1.33858268,-0.158823529 2.62362205,-0.158823529 3.37322835,0.582352941 L10.119685,7.25294118 C10.8692913,7.99411765 10.8692913,9.26470588 10.119685,10.0058824 L10.119685,10.0058824 Z" id="Path"></path>
                </g>
                <rect id="Rectangle" fill="#00678A" x="41.5" y="52" width="23" height="9"></rect>
                <g id="Group" transform="translate(40.500000, 50.000000)" fill="#003F55">
                    <path d="M24.811828,13.0490566 C24.811828,13.4716981 24.4892473,13.8943396 23.9516129,13.8943396 L0.940860215,13.8943396 C0.510752688,13.8943396 0.0806451613,13.5773585 0.0806451613,13.0490566 L0.0806451613,12.5207547 C0.0806451613,12.0981132 0.403225806,11.6754717 0.940860215,11.6754717 L24.0591398,11.6754717 C24.4892473,11.6754717 24.9193548,11.9924528 24.9193548,12.5207547 L24.9193548,13.0490566 L24.811828,13.0490566 Z" id="Path"></path>
                    <path d="M24.811828,1.42641509 C24.811828,1.8490566 24.4892473,2.27169811 23.9516129,2.27169811 L0.940860215,2.27169811 C0.510752688,2.27169811 0.0806451613,1.95471698 0.0806451613,1.42641509 L0.0806451613,0.898113208 C0.0806451613,0.475471698 0.403225806,0.0528301887 0.940860215,0.0528301887 L24.0591398,0.0528301887 C24.4892473,0.0528301887 24.9193548,0.369811321 24.9193548,0.898113208 L24.9193548,1.42641509 L24.811828,1.42641509 Z" id="Path"></path>
                </g>
            </g>
        </g>
    </g>
</svg>