<?xml version="1.0" encoding="UTF-8"?>
<svg width="57px" height="73px" viewBox="0 0 57 73" version="1.1" xmlns="http://www.w3.org/2000/svg" xmlns:xlink="http://www.w3.org/1999/xlink">
    <!-- Generator: sketchtool 59 (101010) - https://sketch.com -->
    <title>0AB41C34-8941-44BE-9AD9-5DAE2C66DAD5</title>
    <desc>Created with sketchtool.</desc>
    <g id="Website-Design" stroke="none" stroke-width="1" fill="none" fill-rule="evenodd">
        <g id="JE-WS-Home-Page-01" transform="translate(-452.000000, -1624.000000)" fill-rule="nonzero">
            <g id="certificate" transform="translate(452.000000, 1624.000000)">
                <path d="M36.1521178,23 L14,32.9362645 L31.9052934,72 L41.5465828,63.9374443 L54,62.1205364 C54,62.1205364 36.1521178,23 36.1521178,23 Z" id="Path" fill="#00678A"></path>
                <path d="M19.8795507,24 L42,33.9247597 L24.1203038,73 L14.4927975,64.8900445 L2,63.0752403 C2,63.0752403 19.8795507,24 19.8795507,24 Z" id="Path" fill="#00B5F0"></path>
                <path d="M57,28.5 C57,30.6050112 53.9789842,32.3688176 53.5229518,34.3599976 C53.0669194,36.4080932 55.0619708,39.3097787 54.2069281,41.1872719 C53.2948632,43.0647651 49.8179598,43.2922831 48.5639068,44.8853427 C47.3098538,46.4784022 47.8799305,50.0057261 46.2838894,51.314352 C44.6878483,52.6229779 41.4959108,51.2574364 39.6719259,52.1677974 C37.847941,53.0781585 36.8789987,56.4916511 34.8839473,56.9468316 C32.9459181,57.4020121 30.6090233,54.7849048 28.5569498,54.7849048 C26.505021,54.7849048 24.1679815,57.4020121 22.2299522,56.9468316 C20.2349009,56.4916511 19.2659586,53.078014 17.4419737,52.1677974 C15.6179887,51.2574364 12.3690291,52.6229779 10.8300101,51.314352 C9.23396903,50.0058706 9.80404573,46.4784022 8.54999276,44.8853427 C7.29593979,43.2922831 3.81903633,43.0647651 2.90697149,41.1872719 C2.05192879,39.3666943 4.04698017,36.4082377 3.59094775,34.3599976 C3.02101578,32.3686732 0,30.6050112 0,28.5 C0,26.3949888 3.02101578,24.6311824 3.47704819,22.6400024 C3.93308061,20.5919068 1.93802923,17.6902213 2.79307193,15.8127281 C3.70513677,13.9352349 7.18204023,13.7077169 8.4360932,12.1146573 C9.69014617,10.5215978 9.12006947,6.99427387 10.7161106,5.68564796 C12.3121517,4.37702206 15.5040892,5.74256358 17.3280741,4.83220257 C19.152059,3.92184155 20.1210013,0.508348874 22.1160527,0.0531683656 C24.0540819,-0.402012143 26.3909767,2.21509521 28.4430502,2.21509521 C30.494979,2.21509521 32.8320185,-0.402012143 34.7700478,0.0531683656 C36.7650991,0.508348874 37.7340414,3.92198601 39.5580263,4.83220257 C41.3820113,5.74256358 44.6309709,4.37702206 46.1699899,5.68564796 C47.766031,6.99412941 47.1959543,10.5215978 48.4500072,12.1146573 C49.7040602,13.7077169 53.1809637,13.9352349 54.0930285,15.8127281 C54.9480712,17.6333057 52.9530198,20.5917623 53.4090522,22.6400024 C53.9789842,24.6313268 57,26.3949888 57,28.5 Z" id="Path" fill="#ED8D22"></path>
                <path d="M28.5000723,17.1111754 C22.1792227,17.1111754 17.1112075,22.2361392 17.1112075,28.5 C17.1112075,34.7638608 22.2361894,39.8888246 28.5000723,39.8888246 C34.8209219,39.8888246 39.8889371,34.7638608 39.8889371,28.5 C39.8889371,22.2361392 34.8207773,17.1111754 28.5000723,17.1111754 Z M28.5000723,33.6249639 C25.6528922,33.6249639 23.3750904,31.34717 23.3750904,28.5 C23.3750904,25.65283 25.6528922,23.3750361 28.5000723,23.3750361 C31.3472523,23.3750361 33.6250542,25.65283 33.6250542,28.5 C33.6250542,31.34717 31.3472523,33.6249639 28.5000723,33.6249639 Z M28.5000723,8 C17.1681742,8 8,17.1679973 8,28.5 C8,39.8320027 17.1680297,49 28.5000723,49 C39.8321149,49 49,39.8318581 49,28.5 C49,17.1681419 39.8319703,8 28.5000723,8 Z M28.5000723,45.5833092 C19.0473536,45.5833092 11.4167028,37.95283 11.4167028,28.5 C11.4167028,19.04717 19.047209,11.4166908 28.5000723,11.4166908 C37.9529356,11.4166908 45.5834418,19.04717 45.5834418,28.5 C45.5834418,37.95283 37.952791,45.5833092 28.5000723,45.5833092 Z" id="Shape" fill="#DA811D"></path>
            </g>
        </g>
    </g>
</svg>