<?xml version="1.0" encoding="UTF-8"?>
<svg width="78px" height="78px" viewBox="0 0 78 78" version="1.1" xmlns="http://www.w3.org/2000/svg" xmlns:xlink="http://www.w3.org/1999/xlink">
    <!-- Generator: sketchtool 59 (101010) - https://sketch.com -->
    <title>2742F3FE-767D-45D2-B4C0-C765292C18F8</title>
    <desc>Created with sketchtool.</desc>
    <g id="Website-Design" stroke="none" stroke-width="1" fill="none" fill-rule="evenodd">
        <g id="JE-WS-Home-Page-01" transform="translate(-600.000000, -2361.000000)" fill-rule="nonzero">
            <g id="explosion" transform="translate(600.000000, 2361.000000)">
                <polygon id="Path" fill="#000000" points="61.3978296 44.4683374 71.5 38.1544809 61.4972859 31.9028582 67.0890544 21.3838835 55.3006878 20.9710516 54.8838835 9.06542657 44.4683374 14.6021704 38.1544809 4.5 31.9028582 14.5027141 21.3838835 8.91094564 20.9710516 20.6993122 9.06542657 21.1161165 14.6021704 31.5316626 4.5 37.8455191 14.5027141 44.0971418 8.91094564 54.6161165 20.6993122 55.0289484 21.1161165 66.9345734 31.5316626 61.3978296 37.8455191 71.5 44.0971418 61.4972859 54.6161165 67.0890544 55.0289484 55.3006878 66.9345734 54.8838835"></polygon>
                <polygon id="Path" fill="#5C4EA0" points="77.5 39.2779879 66.1248101 32.2528232 72.4768006 20.4453557 59.070943 19.9816752 58.5973734 6.61782826 46.752481 12.8393779 39.5803703 1.5 39.4240506 1.74705135 30.5 39.1235257 39.4240506 76.5 46.3773734 65.5070231 58.3268259 71.7835383 58.7960823 58.536971 72.3206297 58.0690284 66.0242658 46.3648786"></polygon>
                <polygon id="Path" fill="#5C4EA0" points="31.5605469 12.4929769 19.6349297 6.21616773 19.1666094 19.463029 5.66903906 19.9309716 11.9528438 31.6351214 0.5 38.7220121 11.8525 45.7471768 5.51317969 57.5546443 18.8922969 58.0183248 19.3649219 71.3821717 31.1861875 65.1606221 38.3439922 76.5 38.5 76.2529486 38.5 1.5"></polygon>
                <polygon id="Path" fill="#ED8D22" points="68.5 39.281026 59.7841833 33.7561878 64.6634644 24.4476393 54.3917331 24.0827439 54.0279881 13.5469818 44.9525282 18.4397901 39.4436152 9.5 39.2896498 9.74975133 30.5 39.1248757 39.2896498 68.5 44.5832164 59.910248 53.7615152 64.8587712 54.1213049 54.4412733 64.5096455 54.0723664 59.6852997 44.8681162"></polygon>
                <polygon id="Path" fill="#FA9647" points="33.2445536 18.089752 24.1323497 13.1412288 23.775151 23.5587267 13.4616191 23.9276336 18.2512237 33.1318838 9.5 38.718974 18.1530522 44.2438122 13.3089079 53.5523607 23.5066701 53.9172561 23.8677957 64.4530182 32.8779013 59.5602099 38.3471434 68.5 38.5 68.2502487 38.5 9.5"></polygon>
                <polygon id="Path" fill="#FFFFFF" points="56.5 40.2743213 51.5560108 37.1876081 54.3470967 31.9429105 48.5203197 31.7392202 48.3121946 25.8030211 43.1640044 28.536797 40.012769 23.5 39.8601633 23.7437605 35.5 40.1218802 39.8601633 56.5 42.7976054 51.8051064 48.0479687 54.5931804 48.251879 48.7726913 54.194491 48.5647907 51.4577618 43.4221561"></polygon>
                <polygon id="Path" fill="#FFFFFF" points="35.4989781 28.1948936 30.1349725 25.4069648 29.9266486 31.2273087 23.855411 31.4352093 26.6513757 36.5778439 21.5 39.7256787 26.5510001 42.8123919 23.6995021 48.0570895 29.6523976 48.2607798 29.8650275 54.1969789 35.1246484 51.463203 38.3440912 56.5 38.5 56.2562395 38.5 23.5"></polygon>
                <g id="Group" transform="translate(64.500000, 64.500000)" fill="#FFFFFF">
                    <polygon id="Rectangle" transform="translate(3.228387, 3.229354) rotate(135.000000) translate(-3.228387, -3.229354) " points="0.960967158 0.961934358 5.49580739 0.961934358 5.49580739 5.49677459 0.960967158 5.49677459"></polygon>
                    <polygon id="Rectangle" transform="translate(9.643066, 9.643136) rotate(135.000000) translate(-9.643066, -9.643136) " points="7.37564568 7.37571539 11.9104859 7.37571539 11.9104859 11.9105556 7.37564568 11.9105556"></polygon>
                </g>
                <g id="Group" transform="translate(0.500000, 0.500000)" fill="#FFFFFF">
                    <polygon id="Rectangle" transform="translate(2.994858, 2.994762) rotate(135.000000) translate(-2.994858, -2.994762) " points="0.877230953 0.877135602 5.11248445 0.877135602 5.11248445 5.1123891 0.877230953 5.1123891"></polygon>
                    <polygon id="Rectangle" transform="translate(8.984595, 8.984949) rotate(135.000000) translate(-8.984595, -8.984949) " points="6.86696858 6.86732183 11.1022221 6.86732183 11.1022221 11.1025753 6.86696858 11.1025753"></polygon>
                </g>
                <polygon id="Rectangle" fill="#FFFFFF" transform="translate(73.605165, 4.247436) rotate(45.000000) translate(-73.605165, -4.247436) " points="71.3896478 2.03191874 75.820683 2.03191874 75.820683 6.46295394 71.3896478 6.46295394"></polygon>
                <polygon id="Rectangle" fill="#FFFFFF" transform="translate(10.513872, 67.338858) rotate(45.000000) translate(-10.513872, -67.338858) " points="8.29835456 65.1233406 12.7293898 65.1233406 12.7293898 69.5543758 8.29835456 69.5543758"></polygon>
            </g>
        </g>
    </g>
</svg>