<?xml version="1.0" encoding="UTF-8"?>
<svg width="79px" height="65px" viewBox="0 0 79 65" version="1.1" xmlns="http://www.w3.org/2000/svg" xmlns:xlink="http://www.w3.org/1999/xlink">
    <!-- Generator: sketchtool 59 (101010) - https://sketch.com -->
    <title>0EBECADC-BF86-433B-86F3-049850B4A0D7</title>
    <desc>Created with sketchtool.</desc>
    <g id="Website-Design" stroke="none" stroke-width="1" fill="none" fill-rule="evenodd">
        <g id="JE-WS-Home-Page-01" transform="translate(-758.000000, -1628.000000)" fill="#37A35A" fill-rule="nonzero">
            <path d="M831.54757,1665.83417 C823.032695,1665.03211 819.718954,1659.00405 816.675355,1652.26744 C814.424172,1647.26804 808.97811,1640.06026 802.682001,1640.32282 C797.113475,1640.55301 793.25945,1638.07129 789.43424,1634.80189 C782.803156,1629.1335 775.847901,1625.0081 767.001652,1630.79158 C769.81473,1634.6832 767.401462,1639.1431 761.959002,1639.69699 C760.410189,1639.85165 758.785735,1638.72589 758.310285,1641.41981 C757.964503,1643.33685 757.402608,1644.72158 759.88071,1645.71786 C761.018908,1646.18543 761.804121,1647.90465 762.420045,1649.20306 C766.212838,1657.19491 774.443163,1662.79856 774.954631,1672.61754 C775.012262,1673.78646 776.463824,1675.35822 777.656051,1675.90851 C780.29984,1677.12419 781.106664,1679.49801 782.435762,1681.67761 C784.398794,1684.89665 786.704005,1687.91068 790.241064,1693 C789.427036,1686.13031 792.848834,1687.33161 795.438595,1687.38556 C797.995939,1687.44311 800.715368,1687.38556 803.049394,1688.23078 C805.055649,1688.96811 806.136216,1688.80625 807.097922,1687.11221 C809.273465,1683.25296 813.105879,1682.17395 816.956302,1682.0085 C822.441985,1681.77831 827.315346,1679.65986 832.368801,1678.04135 C836.827944,1676.60987 836.727091,1672.37296 836.986428,1669.00645 C837.249366,1665.65434 833.629464,1666.02479 831.54757,1665.83417 Z" id="Path"></path>
        </g>
    </g>
</svg>