<?xml version="1.0" encoding="UTF-8"?>
<svg width="66px" height="64px" viewBox="0 0 66 64" version="1.1" xmlns="http://www.w3.org/2000/svg" xmlns:xlink="http://www.w3.org/1999/xlink">
    <!-- Generator: sketchtool 59 (101010) - https://sketch.com -->
    <title>DE8F0D7C-BA6E-48E7-8B43-B7C91C215BE4</title>
    <desc>Created with sketchtool.</desc>
    <g id="Website-Design" stroke="none" stroke-width="1" fill="none" fill-rule="evenodd">
        <g id="JE-WS-Home-Page-01" transform="translate(-1090.000000, -2369.000000)" fill-rule="nonzero">
            <g id="target" transform="translate(1090.000000, 2369.000000)">
                <path d="M49.042646,39.4177379 L57.8324805,31.1320216 C61.1153755,28.0046413 67.4293005,31.9502203 64.0181833,35.7731666 L53.3747243,47.7019999 C52.9580021,48.1687804 52.4792042,48.5827268 51.9510509,48.9326911 C50.2353159,49.9772515 48.191902,50.3252769 46.1785084,50.3252769 L30.3837738,50.3252769 C29.241477,50.3252769 28.0996889,50.3882898 26.9650244,50.5138309 L22.4222955,51 L13,42.2896735 C13,42.2896735 18.3451353,32.6738997 28.8303519,35.4377439 C30.7913373,35.9549347 32.8205042,36.2011699 34.8552683,36.2011699 L45.2356683,36.2011699 C50.1223583,36.2011699 50.1610285,43.597919 45.1949629,43.597919 L36.1583516,43.597919" id="Path" fill="#FFCDAC"></path>
                <path d="M17.1337957,63 L25.9981131,53.7911758 C26.000629,53.7886283 26.000629,53.7845523 25.9981131,53.7820048 L10.9569006,39.0017248 C10.9543848,38.9991773 10.9503594,38.9996869 10.9478435,39.0017248 L2,48.4082376 L17.1337957,63 Z" id="Path" fill="#00B5F0"></path>
                <path d="M11.907186,12.0004936 C9.15407368,12.2616291 7,14.5827226 7,17.4078223 L7,23.1913044 C7,24.1899374 7.80857882,25 8.80648342,25 L21.1935166,25 C22.1914212,25 23,24.1899374 23,23.1913044 L23,17.4078223 C23,14.580748 20.842968,12.25768 18.0864045,12" id="Path" fill="#00F097"></path>
                <path d="M21,8.00024406 C21,11.3139209 18.0899626,14 14.5,14 C10.9100374,14 8,11.3139209 8,8.00024406 C8,4.68656726 10.9100374,2 14.5,2 C18.0899626,2 21,4.68656726 21,8.00024406 Z" id="Path" fill="#FFCDAC"></path>
                <path d="M28.9075278,12.0004936 C26.1545003,12.2616291 24,14.5827226 24,17.4078223 L24,23.1913044 C24,24.1899374 24.8090469,25 25.8069207,25 L38.1935722,25 C39.1914461,25 40,24.1899374 40,23.1913044 L40,17.4078223 C40,14.580748 37.8425415,12.25768 35.086556,12" id="Path" fill="#5C4EA0"></path>
                <path d="M38,8.00024406 C38,11.3139209 35.0900809,14 31.5002644,14 C27.9104477,14 25,11.3139209 25,8.00024406 C25,4.68656726 27.9104477,2 31.5002644,2 C35.0900809,2 38,4.68656726 38,8.00024406 Z" id="Path" fill="#FFCDAC"></path>
                <path d="M44.9075279,12.0004936 C42.1540074,12.2616291 40,14.5827226 40,17.4078223 L40,23.1913044 C40,24.1899374 40.809047,25 41.8064278,25 L54.1930793,25 C55.1909531,25 56,24.1899374 56,23.1913044 L56,17.4078223 C56,14.580748 53.8425415,12.25768 51.086063,12" id="Path" fill="#FFD98E"></path>
                <path d="M54,8.00024406 C54,11.3139209 51.0895522,14 47.4997357,14 C43.909919,14 41,11.3139209 41,8.00024406 C41,4.68656726 43.909919,2 47.4997357,2 C51.0895522,2 54,4.68656726 54,8.00024406 L54,8.00024406 Z" id="Path" fill="#FFCDAC"></path>
                <path d="M64.4405888,30.5015213 C63.4526438,29.6200081 62.1086964,29.0755153 60.7531675,29.0073319 C59.2138466,28.9303822 57.7717088,29.4612382 56.6976586,30.5005473 L49.3590707,37.5239191 C49.2140513,37.2808941 49.0483868,37.0515058 48.8625806,36.8386764 C47.9597338,35.8018025 46.6394527,35.2310105 45.1454504,35.2310105 L34.8722331,35.2310105 C32.9351158,35.2310105 31.0453313,34.9879855 29.255751,34.5092411 C24.589952,33.2609988 20.1326185,34.1727076 16.3646308,37.1474496 C14.8323594,38.357217 13.7145012,39.6731556 13.0075314,40.6325927 L11.1655832,38.9036578 C10.9233805,38.6762176 10.5950726,38.5471563 10.2571974,38.5471563 C10.2541763,38.5471563 10.2516586,38.5471563 10.2486373,38.5471563 C9.89867716,38.5495915 9.56029847,38.6903414 9.31759239,38.9338533 L0.363145564,47.9248017 C0.123460659,48.1653916 -0.00695609568,48.4887755 0.000286290869,48.8228738 C0.00815009584,49.1574593 0.152666027,49.4749989 0.402925234,49.7053612 L15.5478893,63.653239 C15.7991556,63.8845752 16.1214211,64 16.443183,64 C16.7810582,64 17.1189332,63.8728867 17.3732209,63.6206083 L26.24408,54.8181381 C26.4862826,54.5775484 26.6207277,54.2488072 26.6141818,53.9127608 C26.6076356,53.5815845 26.4641269,53.2620968 26.2183995,53.0312474 L25.4459696,52.3065558 L27.2138975,52.1141814 C28.2834158,51.9938865 29.3710616,51.9330086 30.4476296,51.9330086 L46.0780059,51.9330086 C48.6178603,51.9330086 50.7750244,51.3958212 52.4900806,50.3360571 C52.5041799,50.3272907 52.5182789,50.3180372 52.5323781,50.3087838 C53.1466964,49.8957875 53.7041149,49.4063284 54.1885202,48.8545303 L64.7215639,36.8693589 C66.5242361,34.8185012 66.4114432,32.2591905 64.4405888,30.5015213 Z M16.4094458,60.9789906 L3.13915999,48.7576127 L10.2879135,41.5793672 L23.4806541,53.9619501 L16.4094458,60.9789906 Z M62.7431564,35.2426991 L52.2101127,47.2283575 C51.8757623,47.6087232 51.4925685,47.9467178 51.0700988,48.2330878 C49.7825476,49.0215796 48.1032426,49.4219132 46.0780059,49.4219132 L30.447126,49.4219132 C29.2713608,49.4219132 28.0825034,49.4886355 26.9188233,49.6196449 L23.0325036,50.0414076 L14.8953018,42.4038987 C15.4607769,41.5930039 16.5005864,40.2824225 18.0066738,39.0931101 C21.1376837,36.6209768 24.6896529,35.892876 28.5633839,36.9297499 C30.5785499,37.4688854 32.7009699,37.7425928 34.8722331,37.7425928 L45.1454504,37.7425928 C46.9904199,37.7425928 47.4828817,39.2884067 47.4828817,40.2015766 C47.4828817,40.8687993 47.2613242,41.5038785 46.8751093,41.9441481 C46.4561643,42.4209445 45.8604768,42.6625084 45.1046637,42.6625084 L36.1617983,42.6625084 C35.4447577,42.6625084 34.8636728,43.2250211 34.8636728,43.9185431 C34.8636728,44.6120652 35.4447577,45.1740907 36.1617983,45.1740907 L45.1046637,45.1740907 C46.6142757,45.1740907 47.9456347,44.6042728 48.8540204,43.5698339 C49.6098334,42.7097497 50.0408634,41.5788801 50.0771183,40.3700868 L58.5290326,32.2811067 C59.7370242,31.1127363 61.6242912,31.4059246 62.680214,32.347829 C63.226051,32.8348529 63.9602119,33.8580901 62.7431564,35.2426991 L62.7431564,35.2426991 Z" id="Shape" fill="#00678A"></path>
                <path d="M31.9457883,43.1346696 C31.7576595,42.3439565 30.9547845,41.8542502 30.1519094,42.038959 C29.349613,42.2242378 28.8512169,43.0149509 29.0399243,43.805664 L29.0538169,43.8655233 C29.2153181,44.5427888 29.8283281,45 30.5055912,45 C30.6184683,45 30.7330821,44.987458 30.8476958,44.961234 C31.650571,44.7759552 32.1483883,43.9846718 31.9602597,43.1945289 L31.9457883,43.1346696 Z" id="Path" fill="#000000"></path>
                <path d="M9.16674798,27 L21.9108415,27 C22.6047564,27 23.2469321,26.7796324 23.7693974,26.4073898 C24.2918626,26.7796324 24.9340383,27 25.6279533,27 L38.372554,27 C39.0664689,27 39.7086447,26.7796324 40.2311099,26.4073898 C40.7535751,26.7796324 41.3957508,27 42.0896658,27 L54.8337592,27 C56.5797062,27 58,25.6097978 58,23.9014522 L58,18.0865257 C58,15.4748714 56.5061552,13.2061765 54.2702069,12.0869669 C55.3536882,10.8084375 56.0060089,9.16858453 56.0060089,7.38181982 C56.0060089,3.31147059 52.6216517,0 48.4617126,0 C44.3017735,0 40.9174162,3.31147059 40.9174162,7.38181982 C40.9174162,9.16858453 41.5697368,10.8089338 42.6532181,12.0869669 C41.6869111,12.5713786 40.8595899,13.2706985 40.2311099,14.1189155 C39.6026299,13.2702022 38.7753088,12.5708824 37.8084944,12.0869669 C38.8919757,10.8089338 39.5442964,9.16858453 39.5442964,7.38181982 C39.5442964,3.31147059 36.1599392,0 32,0 C27.8400608,0 24.4557036,3.31147059 24.4557036,7.38181982 C24.4557036,9.16858453 25.1085315,10.8089338 26.1920128,12.0874632 C25.2251986,12.5713786 24.3978774,13.2706985 23.7693974,14.1194118 C23.1409173,13.2706985 22.3135961,12.5713786 21.3467819,12.0869669 C22.4302632,10.8089338 23.0825839,9.16858453 23.0825839,7.38231611 C23.0825839,3.31147059 19.6982267,0 15.5382874,0 C11.3788556,0 7.99449831,3.31147059 7.99449831,7.38231611 C7.99449831,9.16858453 8.64681903,10.8089338 9.73030031,12.0874632 C7.49435205,13.2066728 6,15.4758639 6,18.087022 L6,23.9014522 C6,25.6097978 7.42080103,27 9.16674798,27 Z M48.4622198,2.55954041 C51.1795462,2.55954041 53.3906393,4.72251841 53.3906393,7.38181982 C53.3906393,10.0406251 51.1795462,12.2040992 48.4622198,12.2040992 C45.7443861,12.2040992 43.5338002,10.0411214 43.5338002,7.38181982 C43.533293,4.72251841 45.7443861,2.55954041 48.4622198,2.55954041 Z M45.0641668,13.969522 C46.0862711,14.4762684 47.2402599,14.7636396 48.4617126,14.7636396 C49.6836725,14.7636396 50.8376612,14.4762684 51.8592582,13.969522 C53.8918001,14.3159559 55.3846304,16.029761 55.3846304,18.0865257 L55.3846304,23.9014522 C55.3846304,24.19875 55.1376007,24.4404596 54.8337592,24.4404596 L42.0896658,24.4404596 C41.7863316,24.4404596 41.5393018,24.19875 41.5393018,23.9014522 L41.5393018,18.0865257 C41.5387947,16.0302573 43.0321322,14.3159559 45.0641668,13.969522 Z M32.0005073,2.55954041 C34.7178337,2.55954041 36.9289268,4.72251841 36.9289268,7.38181982 C36.9289268,10.0406251 34.7178337,12.2040992 32.0005073,12.2040992 C29.2826736,12.2040992 27.0720878,10.0411214 27.0720878,7.38181982 C27.0720878,4.72251841 29.2826736,2.55954041 32.0005073,2.55954041 Z M28.6029615,13.969522 C29.6245586,14.4762684 30.7785473,14.7636396 32.0005073,14.7636396 C33.2224672,14.7636396 34.3759487,14.4762684 35.3980529,13.969522 C37.4300876,14.3159559 38.9234251,16.029761 38.9234251,18.0865257 L38.9234251,23.9014522 C38.9234251,24.19875 38.6763954,24.4404596 38.372554,24.4404596 L25.6284605,24.4404596 C25.324619,24.4404596 25.0775894,24.19875 25.0775894,23.9014522 L25.0775894,18.0865257 C25.0775894,16.0302573 26.5709269,14.3159559 28.6029615,13.969522 Z M15.5387948,2.55954041 C18.2561212,2.55954041 20.4672142,4.72251841 20.4672142,7.38181982 C20.4672142,10.0406251 18.2561212,12.2040992 15.5387948,12.2040992 C12.8214683,12.2040992 10.6103751,10.0406251 10.6103751,7.38181982 C10.6103751,4.72251841 12.8214683,2.55954041 15.5387948,2.55954041 Z M8.61587695,18.0865257 C8.61587695,16.0302573 10.1092144,14.3159559 12.141249,13.969522 C13.1633534,14.4762684 14.3168348,14.7636396 15.5387948,14.7636396 C16.7607547,14.7636396 17.9142361,14.4762684 18.9363404,13.969522 C20.9688823,14.3159559 22.4617126,16.029761 22.4617126,18.0865257 L22.4617126,23.9014522 C22.4617126,24.19875 22.2146829,24.4404596 21.9108415,24.4404596 L9.16674798,24.4404596 C8.86290653,24.4404596 8.61587695,24.19875 8.61587695,23.9014522 L8.61587695,18.0865257 Z" id="Shape" fill="#00678A"></path>
            </g>
        </g>
    </g>
</svg>