<?xml version="1.0" encoding="UTF-8"?>
<svg width="56px" height="56px" viewBox="0 0 56 56" version="1.1" xmlns="http://www.w3.org/2000/svg" xmlns:xlink="http://www.w3.org/1999/xlink">
    <!-- Generator: sketchtool 59 (101010) - https://sketch.com -->
    <title>90BCAD4C-49A6-4F86-B050-CE896D32CDD0</title>
    <desc>Created with sketchtool.</desc>
    <g id="Website-Design" stroke="none" stroke-width="1" fill="none" fill-rule="evenodd">
        <g id="JE-WS-Home-Page-01" transform="translate(-612.000000, -1632.000000)" fill-rule="nonzero">
            <g id="team" transform="translate(612.000000, 1632.000000)">
                <g id="Group" transform="translate(1.500000, 1.500000)" fill="#00B5F0">
                    <path d="M39.4449006,32.1168699 L39.447643,30.2216179 C39.4512292,27.7208618 38.4614361,25.3215691 36.6967059,23.553252 L34.1984909,21.0499593 L34.1984909,21.0499593 L29.1645112,16.005748 C28.4159432,15.2556585 27.2023286,15.2556585 26.4537606,16.005748 L26.4537606,16.005748 C25.7371521,16.723813 25.7084625,17.8679187 26.3638945,18.6224472 L25.0770791,17.3330163 C24.3920081,16.6465528 23.2933631,16.5355772 22.5254929,17.1275528 C21.6244057,17.8222602 21.5313753,19.0972114 22.2416552,19.9148374 L21.0879513,18.7586829 C20.4053063,18.0746504 19.2124706,17.9880894 18.4728682,18.6098699 C17.5989939,19.3446341 17.5565923,20.6526667 18.3454523,21.4431301 L19.5309047,22.6309919 C18.7150426,21.9192683 17.4426775,22.0124878 16.7492738,22.9154065 C16.158499,23.6847317 16.2692495,24.7857154 16.9543205,25.4721789 L23.888568,32.4205203 C24.1244138,32.6568455 23.8279189,33.0356423 23.5427099,32.8623089 L21.7211278,31.7557236 C20.8347018,31.2172276 19.6641217,31.4262846 19.0649087,32.2740325 C18.4277241,33.1754715 18.6578742,34.4247398 19.572357,35.0392276 L23.8809736,37.9343171 C25.4320081,38.9765366 27.2579148,39.5317317 29.1253793,39.5290894 L32.0518296,39.5249675 L44.5015578,52 L51.8946288,44.5919024 L39.4449006,32.1168699 Z" id="Path"></path>
                    <path d="M12.4498337,19.8831301 L12.4470913,21.7783821 C12.4435051,24.2791382 13.4332982,26.6784309 15.1980284,28.446748 L17.6962434,30.9500407 L17.6962434,30.9500407 L22.7302231,35.994252 C23.4787911,36.7443415 24.6924057,36.7443415 25.4409736,35.994252 L25.4409736,35.994252 C26.1575822,35.276187 26.1862718,34.1320813 25.5308398,33.3775528 L26.8176552,34.6669837 C27.5027262,35.3534472 28.6013712,35.4645285 29.3692414,34.8724472 C30.2703286,34.1777398 30.363359,32.9027886 29.6530791,32.0851626 L30.8068884,33.2413171 C31.4895335,33.9253496 32.6823692,34.0119106 33.4219716,33.3901301 C34.2958458,32.6553659 34.3382475,31.3473333 33.5493874,30.5568699 L32.3639351,29.3690081 C33.1797972,30.0807317 34.4521623,29.9875122 35.1455659,29.0845935 C35.7363408,28.3152683 35.6255903,27.2142846 34.9405193,26.5278211 L28.0062718,19.5794797 C27.770426,19.3431545 28.0669209,18.9643577 28.3521298,19.1376911 L30.173712,20.2442764 C31.0601379,20.7827724 32.2307181,20.5737154 32.829931,19.7259675 C33.4671156,18.8245285 33.23686,17.5752602 32.3224828,16.9607724 L28.0138661,14.0656829 C26.4628316,13.0234634 24.6369249,12.4682683 22.7694604,12.4709106 L19.8430101,12.4750325 L7.39317647,0 L0.000105476673,7.40809756 L12.4498337,19.8831301 Z" id="Path"></path>
                    <path d="M32.0518296,12.4750325 L30.1604219,12.4722846 C27.6647383,12.4686911 25.2703124,13.4604959 23.5055822,15.228813 L21.0073671,17.7321057 L21.0073671,17.7321057 L15.9733874,22.7763171 C15.2248195,23.5264065 15.2248195,24.7424878 15.9733874,25.4925772 L15.9733874,25.4925772 C16.6899959,26.2106423 17.8317809,26.2393902 18.5847789,25.582626 L17.2979635,26.8720569 C16.6128925,27.5585203 16.502142,28.6593984 17.0929168,29.4288293 C17.786215,30.331748 19.0585801,30.4249675 19.8745477,29.7132439 L18.7207383,30.8693984 C18.0380933,31.5534309 17.9517079,32.7486911 18.5722272,33.4897967 C19.305501,34.3654472 20.6108803,34.407935 21.3997404,33.6174715 L22.5851927,32.4296098 C21.8749128,33.2471301 21.9679432,34.5220813 22.8690304,35.2168943 C23.6367951,35.8088699 24.7355456,35.6978943 25.4206166,35.0114309 L32.3548641,28.0630894 C32.5907099,27.8267642 32.9687383,28.1238618 32.7957566,28.4096504 L31.6914158,30.234935 C31.1540122,31.1231626 31.362645,32.296122 32.2086734,32.8965528 C33.108284,33.5350325 34.3550183,33.3043089 34.9682596,32.3880732 L37.8574767,28.0706992 C38.8975822,26.5165122 39.4516511,24.6868943 39.4490142,22.8156341 L39.4449006,19.8832358 L51.8946288,7.40809756 L44.5015578,0 L32.0518296,12.4750325 Z" id="Path"></path>
                    <path d="M19.8429047,39.5249675 L21.7343124,39.5277154 C24.2299959,39.5313089 26.6244219,38.5395041 28.3891521,36.771187 L30.8873671,34.2678943 L30.8873671,34.2678943 L35.9213469,29.2236829 C36.6699148,28.4735935 36.6699148,27.2575122 35.9213469,26.5074228 L35.9213469,26.5074228 C35.2047383,25.7893577 34.0629533,25.7606098 33.3099554,26.417374 L34.5967708,25.1279431 C35.2818418,24.4414797 35.3925923,23.3406016 34.8018174,22.5711707 C34.1085193,21.668252 32.8361542,21.5750325 32.0201866,22.2867561 L33.1739959,21.1307073 C33.856641,20.4466748 33.9430264,19.2514146 33.3225071,18.5103089 C32.5892333,17.6346585 31.283854,17.5921707 30.4949939,18.3826341 L29.3095416,19.5704959 C30.0198215,18.7529756 29.9267911,17.4780244 29.0257039,16.7832114 C28.2579391,16.1912358 27.1591886,16.3022114 26.4741176,16.9886748 L19.5398702,23.9370163 C19.3040243,24.1733415 18.9259959,23.8762439 19.0989777,23.5904553 L20.2033185,21.7651707 C20.7407221,20.8769431 20.5320892,19.7039837 19.6860609,19.1035528 C18.7864503,18.4650732 17.539716,18.6956911 16.9264746,19.6120325 L14.0372576,23.9294065 C12.9971521,25.4835935 12.4430832,27.3132114 12.4457201,29.1844715 L12.4498337,32.1168699 L0.000105476673,44.5919024 L7.39317647,52 L19.8429047,39.5249675 Z" id="Path"></path>
                </g>
                <path d="M13.3259654,22.0588154 L13.323792,23.4725809 C13.3229227,24.0391746 13.8087821,24.4991793 14.4088527,24.5 C14.409396,24.5 14.4099394,24.5 14.4104827,24.5 C15.0099013,24.5 15.496304,24.0416367 15.4971734,23.4756586 L15.5,21.6360502 C15.5004334,21.3634738 15.3858962,21.1018743 15.1817071,20.9091114 L2.35517114,8.80033926 C1.93070976,8.39993821 1.2427259,8.39983562 0.818264529,8.80033926 C0.393911824,9.20094549 0.393911824,9.85053286 0.818264529,10.2512417 L13.3259654,22.0588154 Z" id="Path" fill="#000000"></path>
                <path d="M20.9042558,15.1817042 C21.0966338,15.3854613 21.3574107,15.5 21.6293651,15.5 C21.6297753,15.5 21.6303906,15.5 21.6308008,15.5 L24.4759653,15.4957619 C25.042332,15.4948925 25.5008193,15.0077228 25.5,14.4075359 C25.4991785,13.8077837 25.040281,13.3223528 24.4745296,13.3223528 C24.4740169,13.3223528 24.4735042,13.3223528 24.4729914,13.3223528 L22.0533967,13.3259389 L10.2506555,0.818187087 C9.85020976,0.393937638 9.20088261,0.393937638 8.80033431,0.818187087 C8.39988856,1.24254521 8.39988856,1.93064652 8.80033431,2.35511331 L20.9042558,15.1817042 Z" id="Path" fill="#000000"></path>
                <path d="M46.5,3.5 C46.763,3.5 47.021,3.393 47.207,3.2069 C47.393,3.021 47.5,2.763 47.5,2.5 C47.5,2.237 47.393,1.979 47.207,1.793 C47.021,1.607 46.763,1.5 46.5,1.5 C46.237,1.5 45.979,1.6069 45.793,1.793 C45.607,1.9791 45.5,2.237 45.5,2.5 C45.5,2.763 45.607,3.021 45.793,3.2069 C45.979,3.393 46.237,3.5 46.5,3.5 Z" id="Path" fill="#000000"></path>
                <path d="M23.8094396,17.7190695 C23.3968535,18.1265387 23.3968535,18.786981 23.8094396,19.1944502 C24.0157855,19.3980805 24.2861588,19.5 24.5565322,19.5 C24.8269055,19.5 25.0973845,19.3980805 25.3036248,19.1944502 L26.2532596,18.2567286 C27.8311242,16.6988316 29.9278647,15.8415397 32.1587882,15.8415397 C32.1628031,15.8415397 32.1669237,15.8415397 32.1708329,15.8415397 L34.0654538,15.8441477 C34.0659821,15.8441477 34.0664047,15.8441477 34.066933,15.8441477 C34.3471323,15.8441477 34.6159208,15.7341957 34.8140256,15.538598 L44.1905604,6.2808262 C44.6031465,5.8734613 44.6031465,5.21291467 44.1905604,4.80544544 C43.7779743,4.39818485 43.1089614,4.39818485 42.6963752,4.80544544 L33.6299404,13.7571458 L32.1737913,13.7550595 C32.1686142,13.7550595 32.163754,13.7550595 32.1586825,13.7550595 C29.3634511,13.7550595 26.7358956,14.8295431 24.7589688,16.7813478 L23.8094396,17.7190695 Z" id="Path" fill="#000000"></path>
                <path d="M40.5,21.63091 L40.504348,24.4760704 C40.5052174,25.0419235 40.991515,25.5 41.5910466,25.5 C41.5915899,25.5 41.5921333,25.5 41.5926766,25.5 C42.1928602,25.4991796 42.6787231,25.0394624 42.6778538,24.472994 L42.674159,22.0534027 L55.1817332,10.2505761 C55.6060889,9.8501309 55.6060889,9.20080469 55.1817332,8.80025697 C54.7574861,8.39991434 54.0692799,8.39991434 53.6449241,8.80025697 L40.8182952,20.9042635 C40.6142132,21.0969489 40.4995666,21.3583407 40.5,21.63091 Z" id="Path" fill="#000000"></path>
                <path d="M54.1965787,45.7049436 L42.2738413,33.6028228 L42.2759131,32.1536974 C42.2778813,30.7721811 42.0144577,29.4248373 41.4929972,28.1488878 C41.2738057,27.6124318 40.667714,27.358083 40.1393131,27.5804673 C39.6108087,27.8029567 39.3601265,28.4181673 39.579318,28.9545183 C39.9954298,29.9728595 40.2056093,31.04819 40.2040555,32.1506482 L40.2013622,34.0361304 C40.2009478,34.3155039 40.3101293,34.5836268 40.5047706,34.7811966 L52.7316414,47.1920267 C52.9339482,47.3972721 53.1990291,47.5 53.46411,47.5 C53.729191,47.5 53.9943755,47.3972721 54.1965787,47.1920267 C54.6010886,46.7813255 54.6011922,46.1155396 54.1965787,45.7049436 Z" id="Path" fill="#000000"></path>
                <path d="M35.0957165,40.8182935 C34.9033396,40.6145378 34.6425643,40.5 34.3706115,40.5 C34.3702013,40.5 34.3695861,40.5 34.3691759,40.5 L31.5240285,40.5042381 C30.9576653,40.5051075 30.4991807,40.9922736 30.5,41.5924562 C30.5008215,42.192204 30.9597162,42.6776314 31.5254642,42.6776314 C31.5259769,42.6776314 31.5264897,42.6776314 31.5270024,42.6776314 L33.9465825,42.6740453 L45.7494576,55.1817065 C45.9497305,55.3938297 46.2121465,55.5 46.4745625,55.5 C46.7369786,55.5 46.9994971,55.3938297 47.1996675,55.1817065 C47.6001108,54.7573515 47.6001108,54.0692552 47.1996675,53.6447915 L35.0957165,40.8182935 Z" id="Path" fill="#000000"></path>
                <path d="M9.5,52.5 C9.237,52.5 8.979,52.6069 8.793,52.793 C8.607,52.979 8.5,53.237 8.5,53.5 C8.5,53.763 8.607,54.021 8.793,54.2069 C8.979,54.3929 9.237,54.5 9.5,54.5 C9.763,54.5 10.021,54.393 10.207,54.2069 C10.394,54.021 10.5,53.763 10.5,53.5 C10.5,53.237 10.394,52.979 10.207,52.793 C10.021,52.6069 9.763,52.5 9.5,52.5 Z" id="Path" fill="#000000"></path>
                <path d="M38.6218678,32.1076469 C39.7927107,30.9489282 39.7927107,29.0633729 38.6218678,27.9045486 C38.3801097,27.6652939 38.1067993,27.4762531 37.8154743,27.3358439 C38.0646941,26.8969992 38.1980449,26.4004507 38.1980449,25.8833313 C38.1980449,25.0895077 37.8857206,24.3431552 37.3185269,23.7817294 C37.061952,23.5279168 36.7702007,23.3296983 36.4586226,23.1870737 C36.9961827,22.0808898 36.803032,20.7110825 35.8775715,19.7950997 C34.9522176,18.8795389 33.5687171,18.6880718 32.4510652,19.219538 C32.3044967,18.9073886 32.1024986,18.6196078 31.8492281,18.36896 C30.678172,17.2102412 28.7731006,17.2104522 27.6021511,18.36896 L23.3463333,22.580814 C23.2651077,21.7270712 22.819859,20.9145756 22.0630323,20.3901773 C21.3871115,19.921795 20.5681397,19.7462571 19.7569494,19.8962661 C18.945759,20.046275 18.2460674,20.5023148 17.7864284,21.1805197 L14.8664631,25.489848 C13.6931685,27.2214911 13.0744893,29.2389108 13.077474,31.324056 L13.0810982,33.8130227 L0.812191019,45.9549902 C0.395936327,46.3669345 0.395936327,47.0349068 0.812191019,47.4469566 C1.02026507,47.652876 1.29314906,47.7559412 1.56592647,47.7559412 C1.83870387,47.7559412 2.11158787,47.652876 2.31966192,47.4469566 L14.9014263,34.9954771 C15.1016123,34.7972585 15.2140704,34.5282551 15.213644,34.2479642 L15.2093802,31.3212077 C15.2070351,29.6571846 15.700678,28.0470677 16.6372244,26.6650234 L19.5570832,22.3556951 C19.6950175,22.152202 19.9050103,22.0153795 20.1483673,21.9704401 C20.3916179,21.9255008 20.6375332,21.9780355 20.8402775,22.1185502 C21.2332944,22.3909293 21.3462855,22.9222901 21.0975986,23.3283269 L19.9566024,25.190885 C19.5967366,25.7782617 19.7320061,26.5123772 20.2780938,26.936453 C20.8241816,27.3605289 21.5769577,27.3155895 22.0678291,26.8299066 L29.109622,19.8609264 C29.4493413,19.5246195 30.002038,19.524725 30.3417572,19.8609264 C30.5062338,20.0238053 30.5969464,20.2402739 30.5969464,20.4705618 C30.5969464,20.6660376 30.5310705,20.8510697 30.4107244,21.0023446 L26.2434873,25.1360294 C25.8272326,25.5479738 25.8272326,26.215946 26.2434873,26.6279959 C26.659742,27.0398347 27.3347035,27.0398347 27.7510648,26.6279959 L33.1381786,21.2870661 C33.4778979,20.9508647 34.0305946,20.9508647 34.3702072,21.2869606 C34.7099265,21.6232676 34.7099265,22.1701356 34.3702072,22.506337 L28.9782966,27.8425196 C28.5620419,28.254464 28.5620419,28.9224362 28.9782966,29.3344861 C29.1864772,29.5404055 29.4592546,29.6434707 29.732032,29.6434707 C30.0048094,29.6434707 30.2776934,29.5404055 30.4857675,29.3344861 L34.657908,25.2054428 C34.9995459,24.9400262 35.4965999,24.9622849 35.8111626,25.2736958 C35.9757458,25.4365747 36.0663518,25.6530433 36.0663518,25.8833313 C36.0663518,26.1136193 35.9757458,26.3299823 35.8111626,26.4928612 L31.7128927,30.5486934 C31.296638,30.9606377 31.296638,31.62861 31.7128927,32.0406598 C31.9210733,32.2465793 32.1938507,32.3496445 32.4666282,32.3496445 C32.7394056,32.3496445 33.0122896,32.2465793 33.2203636,32.0406598 L35.9609291,29.3284731 C36.302567,29.062529 36.7998342,29.0848932 37.1146101,29.3965151 C37.2791933,29.5592885 37.3697993,29.7758626 37.3697993,30.0061505 C37.3697993,30.2364385 37.2791933,30.4529071 37.1146101,30.6156805 L29.5026389,38.1489348 C27.9107445,39.724345 25.7953606,40.5912743 23.5446006,40.5912743 C23.5405499,40.5912743 23.5363927,40.5912743 23.5324487,40.5912743 L21.6209816,40.588637 C21.6204486,40.588637 21.6200222,40.588637 21.6194892,40.588637 C21.3367985,40.588637 21.06562,40.699825 20.8657538,40.8976216 L10.9617702,50.6990489 C10.5455155,51.1109933 10.5455155,51.7789655 10.9617702,52.1910154 C11.1699508,52.3969348 11.4427283,52.5 11.7155057,52.5 C11.9882831,52.5 12.2611671,52.3969348 12.4692411,52.1910154 L22.0603675,42.6991002 L23.529464,42.70121 C23.5346872,42.70121 23.5395906,42.70121 23.5447072,42.70121 C26.3647927,42.70121 29.0157115,41.6146474 31.0102164,39.6409012 L38.6218678,32.1076469 Z" id="Path" fill="#000000"></path>
            </g>
        </g>
    </g>
</svg>