<?xml version="1.0" encoding="UTF-8"?>
<svg width="58px" height="58px" viewBox="0 0 58 58" version="1.1" xmlns="http://www.w3.org/2000/svg" xmlns:xlink="http://www.w3.org/1999/xlink">
    <!-- Generator: sketchtool 59 (101010) - https://sketch.com -->
    <title>FECE74E9-9B28-4714-BA3A-B1B375EE9AE4</title>
    <desc>Created with sketchtool.</desc>
    <g id="Website-Design" stroke="none" stroke-width="1" fill="none" fill-rule="evenodd">
        <g id="JE-WS-Home-Page-01" transform="translate(-1091.000000, -2149.000000)" fill-rule="nonzero">
            <g id="time" transform="translate(1091.000000, 2149.000000)">
                <circle id="Oval" fill="#382D72" cx="29" cy="29" r="29"></circle>
                <path d="M0,29 C0,29.295 0.013,29.586 0.022,29.879 L29,29.879 L29,0 C12.984,0 0,12.984 0,29 Z" id="Path" fill="#ED8D22"></path>
                <path d="M29,5 C28.448,5 28,5.447 28,6 L28,29 L13,29 C12.448,29 12,29.447 12,30 C12,30.553 12.448,31 13,31 L29,31 C29.552,31 30,30.553 30,30 L30,6 C30,5.447 29.552,5 29,5 Z" id="Path" fill="#00B5F0"></path>
            </g>
        </g>
    </g>
</svg>