<?xml version="1.0" encoding="UTF-8"?>
<svg width="56px" height="56px" viewBox="0 0 56 56" version="1.1" xmlns="http://www.w3.org/2000/svg" xmlns:xlink="http://www.w3.org/1999/xlink">
    <!-- Generator: sketchtool 59 (101010) - https://sketch.com -->
    <title>905165CB-203C-45B1-8ADA-FC11DA87CF16</title>
    <desc>Created with sketchtool.</desc>
    <g id="Website-Design" stroke="none" stroke-width="1" fill="none" fill-rule="evenodd">
        <g id="JE-WS-Home-Page-01" transform="translate(-1092.000000, -1632.000000)" fill-rule="nonzero">
            <g id="Group-3" transform="translate(1055.000000, 1595.000000)">
                <g id="transparency" transform="translate(37.000000, 37.000000)">
                    <path d="M37,19 C37,9.05884146 28.9411585,1 19,1 C9.05884146,1 1,9.05884146 1,19 C1,28.9411585 9.05884146,37 19,37 C19,27.0588415 27.0588415,19 37,19 Z" id="Path" fill="#50A5DC"></path>
                    <path d="M37,19 C27.0588415,19 19,27.0588415 19,37 C28.9411585,37 37,28.9411585 37,19 Z" id="Path" fill="#FCE600"></path>
                    <g id="Group" fill="#000000">
                        <path d="M26.4691875,50.1979844 C25.2627812,49.2349375 24.19375,48.111875 23.2918437,46.8599687 C22.9387812,46.3698594 22.2552969,46.258625 21.7650781,46.6119062 C21.2750781,46.9649687 21.1639531,47.6485625 21.5170156,48.1386719 C22.5352969,49.552125 23.74225,50.8201094 25.1042969,51.9075156 C25.305875,52.0684063 25.5467187,52.1465 25.7859219,52.1465 C26.1072656,52.1465 26.4255469,52.0057344 26.6414531,51.7351406 C27.0183594,51.2630781 26.9411406,50.5748906 26.4691875,50.1979844 Z" id="Path"></path>
                        <path d="M45.38625,22.43325 C46.7202969,23.2045625 47.9439844,24.1562344 49.0230781,25.2617969 C49.2374531,25.4813125 49.5216094,25.5915625 49.805875,25.5915625 C50.0813906,25.5915625 50.3570156,25.4882031 50.56975,25.2805 C51.002,24.8585313 51.0103125,24.1660781 50.5884531,23.7337188 C49.3697969,22.4853125 47.9880625,21.4107031 46.4812031,20.5394219 C45.9579531,20.2371094 45.2892344,20.4159375 44.9868125,20.93875 C44.6845,21.4617812 44.8634375,22.1309375 45.38625,22.43325 Z" id="Path"></path>
                        <path d="M53.3930469,33.2730781 C53.5085469,33.7804687 53.9593906,34.1243437 54.4585781,34.1243437 C54.5388594,34.1243437 54.6204531,34.1154844 54.7022656,34.0968906 C55.29125,33.9627969 55.6600625,33.3767656 55.5260781,32.7876719 C55.1394375,31.0882031 54.5191719,29.4497656 53.6826719,27.9180781 C53.3932656,27.3878281 52.728375,27.1924844 52.1986719,27.4823281 C51.6684219,27.7717344 51.4732969,28.4362969 51.7629219,28.9663281 C52.502625,30.3211562 53.0511406,31.7701562 53.3930469,33.2730781 Z" id="Path"></path>
                        <path d="M34.8746562,53.7412969 C33.3424219,53.5514219 31.8460625,53.1514375 30.4268125,52.5528281 C29.869875,52.3181094 29.2287188,52.5788594 28.9938906,53.1354688 C28.7590625,53.6920781 29.0199219,54.3335625 29.5765313,54.5683906 C31.1813906,55.2453125 32.8733125,55.6974688 34.6054844,55.9121719 C34.6512031,55.9178594 34.6965937,55.9205938 34.7414375,55.9205938 C35.2854687,55.9205938 35.756875,55.5150313 35.8254531,54.9612656 C35.8999375,54.3617813 35.4741406,53.8155625 34.8746562,53.7412969 Z" id="Path"></path>
                        <path d="M42.4504063,19.9067969 C42.5988281,19.3212031 42.2444531,18.7262031 41.6590781,18.5777813 C40.4752031,18.2776563 39.2593906,18.0939063 38.0323125,18.0260938 C37.4789844,8.024625 29.1684531,0.057640625 19.03125,0.057640625 C8.537375,0.057640625 0,8.59501563 0,19.0888906 C0,29.2445781 7.99585938,37.5673594 18.0229219,38.0933438 C17.9935,38.2064375 17.9809219,38.325875 17.99,38.4489219 C18.1188438,40.1917031 18.4860156,41.9039688 19.0812344,43.5381406 C19.243,43.9823125 19.6623438,44.2579375 20.1090313,44.2579375 C20.2332813,44.2579375 20.3597188,44.2366094 20.4832031,44.1916563 C21.05075,43.9848281 21.3433281,43.3572344 21.1367188,42.7896875 C20.6102969,41.3444063 20.2856719,39.8296719 20.1715938,38.2877031 C20.1664531,38.2185781 20.1543125,38.15175 20.13725,38.0872188 C29.7321719,37.5346563 37.4433281,29.8422031 38.0258594,20.2552656 L38.0268438,20.25625 C38.0277188,20.2426875 38.0290313,20.229125 38.0297969,20.2155625 C39.0760781,20.28075 40.1122969,20.4421875 41.1216094,20.698125 C41.7074219,20.8467656 42.3019844,20.4921719 42.4504063,19.9067969 Z M20.162625,35.8950156 C20.7218594,27.5072656 27.4497344,20.7795 35.8374844,20.2201563 C35.2781406,28.6079063 28.5502656,35.3357813 20.162625,35.8950156 Z M17.9717344,35.9002656 L17.9705312,35.8996094 C9.17470312,35.350875 2.1875,28.0205625 2.1875,19.0888906 C2.1875,9.80120313 9.7435625,2.24514062 19.03125,2.24514062 C27.9629219,2.24514062 35.2932344,9.23234375 35.8419687,18.0281719 L35.842625,18.029375 C26.2437656,18.5923281 18.5346875,26.3014063 17.9717344,35.9002656 Z" id="Shape"></path>
                        <path d="M54.93775,36.824375 C54.3326875,36.7934219 53.8214688,37.260125 53.7919375,37.8635469 C53.7165781,39.4089062 53.430125,40.9315156 52.9411094,42.3889375 C52.7489375,42.961625 53.057375,43.5816719 53.6300625,43.7738437 C53.7455625,43.8125625 53.8628125,43.8309375 53.9782031,43.8309375 C54.4353906,43.8309375 54.8615156,43.5420781 55.0149688,43.0848906 C55.5679687,41.4370469 55.8917187,39.7161406 55.9769219,37.9700781 C56.0064531,37.366875 55.5411719,36.8539062 54.93775,36.824375 Z" id="Path"></path>
                        <path d="M52.4104219,46.2245 C51.9113438,45.8839062 51.2310313,46.0123125 50.8904375,46.5110625 C50.0210156,47.7847344 48.9806406,48.9341562 47.7984062,49.9277188 C47.3358594,50.3163281 47.2761406,51.0062656 47.66475,51.4687031 C47.8810938,51.7261719 48.1907344,51.8587344 48.5025625,51.8587344 C48.7509531,51.8587344 49.0007656,51.7745156 49.2057344,51.60225 C50.5405469,50.4805 51.715125,49.1825469 52.6969844,47.7444844 C53.0375781,47.245625 52.9091719,46.5650937 52.4104219,46.2245 Z" id="Path"></path>
                        <path d="M43.9001719,52.3826406 C42.4954687,53.0178906 41.0093906,53.4556094 39.4829531,53.683875 C38.8855469,53.773125 38.4736406,54.3299531 38.5631094,54.9273594 C38.6441562,55.4699688 39.1108594,55.8593438 39.6434062,55.8593438 C39.6972187,55.8593438 39.7517969,55.8554063 39.8065937,55.8472031 C41.5324219,55.5891875 43.2129688,55.0940469 44.8014219,54.3758906 C45.3517969,54.1270625 45.5963594,53.4790156 45.3474219,52.9286406 C45.0984844,52.3782656 44.4505469,52.13425 43.9001719,52.3826406 Z" id="Path"></path>
                    </g>
                    <path d="M6.0769176,20 C5.4822437,20 5,19.5252975 5,18.9399231 C5,14.7462587 6.9145441,10.8428434 10.2527733,8.23038978 C10.7184324,7.86593533 11.3959213,7.94215486 11.7659502,8.40042612 C12.1361945,8.85869739 12.0587641,9.52559179 11.5932126,9.88994023 C8.77190388,12.0978685 7.15383519,15.3964039 7.15383519,18.9399231 C7.15383519,19.5254036 6.67159149,20 6.0769176,20 Z" id="Path" fill="#000000"></path>
                    <path d="M15.1316708,8 C14.6399249,8 14.1872335,7.65259569 14.0444868,7.119008 C13.8715154,6.47266307 14.2182506,5.79794618 14.8190092,5.61188456 C16.1297654,5.20578804 17.4920282,5 18.8679884,5 C19.4930852,5 20,5.54527743 20,6.21768072 C20,6.89008402 19.4930852,7.43536145 18.8679884,7.43536145 C17.7041672,7.43536145 16.552685,7.60924626 15.4456908,7.95214515 C15.3408665,7.98453545 15.2353631,8 15.1316708,8 Z" id="Path" fill="#000000"></path>
                </g>
            </g>
        </g>
    </g>
</svg>