<?xml version="1.0" encoding="UTF-8"?>
<svg width="63px" height="67px" viewBox="0 0 63 67" version="1.1" xmlns="http://www.w3.org/2000/svg" xmlns:xlink="http://www.w3.org/1999/xlink">
    <!-- Generator: sketchtool 59 (101010) - https://sketch.com -->
    <title>4B2CD12D-F794-4FBB-93A5-157A722AA48E</title>
    <desc>Created with sketchtool.</desc>
    <g id="Website-Design" stroke="none" stroke-width="1" fill="none" fill-rule="evenodd">
        <g id="JE-WS-Home-Page-01" transform="translate(-288.000000, -1627.000000)" fill-rule="nonzero">
            <g id="trust" transform="translate(288.000000, 1627.000000)">
                <path d="M31.4998829,66.5 C30.8187089,66.5 29.6313321,66.3066406 27.1943778,64.6369019 C25.6469447,63.575943 23.8547542,62.1005707 22.0114883,60.3699035 C19.4986794,58.0098114 14.7223704,53.1239624 10.9665581,46.9203491 C4.8784709,36.8646545 0.73428321,20.7322388 0.560829075,20.0504455 C0.345907844,19.2050019 0.713043997,18.3192749 1.46400414,17.8706207 C7.94602939,14.0024262 11.5036085,9.90461728 13.3468743,7.14874268 C15.2786372,4.2599335 15.7818058,2.20297248 15.8121477,2.07305908 C15.9926815,1.14453125 16.8038196,0.5 17.7545302,0.5 L45.2452355,0.5 C46.195946,0.5 47.0070841,1.14453125 47.1881236,2.07305908 C47.2179598,2.20297248 47.7211284,4.26043701 49.6528913,7.14874268 C51.4966628,9.90512091 55.0542419,14.0024262 61.5357615,17.8711242 C62.2872274,18.3192749 62.6543634,19.2055054 62.4389365,20.0509491 C62.2654824,20.7327423 58.1218004,36.8646545 52.0332074,46.9208526 C48.2773952,53.1244659 43.5010861,58.0098114 40.9882773,60.3699035 C39.1450114,62.1010742 37.3533266,63.5764465 35.8053878,64.6369019 C33.3684335,66.3071441 32.1810568,66.5 31.4998829,66.5 L31.4998829,66.5 Z" id="Path" fill="#7AB4F9"></path>
                <path d="M4.5,31.5 C6.2466321,36.5637636 8.58408793,42.4149006 11.3225485,46.9992191 C15.0130852,53.1778432 19.7063824,58.0435098 22.175519,60.394095 C23.9867491,62.1182923 25.7477915,63.5877215 27.2683304,64.6439052 C29.6629307,66.3074195 30.829671,66.5 31.4990062,66.5 L31.5,66.5 L31.5,31.5 L4.5,31.5 Z" id="Path" fill="#00678A"></path>
                <path d="M32.5,31.5005015 L32.5,66.5 C33.1698815,66.5 34.3362107,66.306918 36.7299934,64.6444067 C38.2506442,63.588223 40.0118162,62.1182923 41.8231797,60.3945965 C44.2924979,58.0440113 48.9861408,53.1783447 52.6769491,46.9992191 C55.4151145,42.4154021 57.7532393,36.5642651 59.5,31.5 L32.5,31.5 L32.5,31.5005015 Z" id="Path" fill="#00B5F0"></path>
                <path d="M58.9763269,31.5 C61.082616,25.4481104 62.3448723,20.5116017 62.4389348,20.140314 C62.6543679,19.2910058 62.2872213,18.4007245 61.5357337,17.9505254 C55.0540271,14.064144 51.4958397,9.9481105 49.6525207,7.17913322 C47.7207021,4.27762548 47.2180246,2.21075654 47.1876819,2.08024933 C47.0066372,1.14747732 46.1954757,0.5 45.2447377,0.5 L31.5,0.5 L31.5,31.5 L58.9763269,31.5 Z" id="Path" fill="#00678A"></path>
                <path d="M31.5,0.5 L17.7541364,0.5 C16.8034605,0.5 15.9923519,1.14747732 15.8118246,2.08024933 C15.7814839,2.21075654 15.2783336,4.27762548 13.346641,7.17913322 C11.5034422,9.9481105 7.94548705,14.064144 1.46420343,17.9505254 C0.712764841,18.4007245 0.345642183,19.2910058 0.561061236,20.140314 C0.655117536,20.5116017 1.91729152,25.4481104 4.0234432,31.5 L31.5,31.5 L31.5,0.5 Z" id="Path" fill="#00B5F0"></path>
                <path d="M32.5,45.5 C24.7803305,45.5 18.5,39.4434711 18.5,32 C18.5,24.556033 24.7803305,18.5 32.5,18.5 C40.2196693,18.5 46.5,24.556033 46.5,31.9995042 C46.5,39.4434711 40.2196693,45.5 32.5,45.5 Z" id="Path" fill="#35CEFF"></path>
                <path d="M29.863188,37.5 C29.8324137,37.5 29.8011508,37.4989773 29.7703764,37.4974435 C29.2301147,37.4703446 28.7264895,37.2054914 28.3830863,36.7683301 L25.9367664,33.65656 C25.2641261,32.8006442 25.3813619,31.5362 26.1990814,30.8321402 C27.0163126,30.1280805 28.2243295,30.2513037 28.8969698,31.1067083 L30.0014285,32.5117599 L34.2277784,28.0874833 C34.9761334,27.3041722 36.1900122,27.3041722 36.9383674,28.0874833 C37.6872109,28.8713059 37.6872109,30.1413744 36.9383674,30.9251968 L31.2182382,36.9125166 C30.8582267,37.2893445 30.3702328,37.5 29.863188,37.5 L29.863188,37.5 Z" id="Path" fill="#F2F7FC"></path>
                <path d="M30.0013591,32.5990325 L28.8969174,31.2185631 C28.2242875,30.3781245 27.0162892,30.2575595 26.1990706,30.9487988 C25.3813637,31.6405407 25.2641298,32.8828626 25.9367596,33.7238035 L28.3830418,36.7811311 C28.7264397,37.210644 29.2305458,37.4708634 29.7703105,37.4974883 C29.8010844,37.4989952 29.8323468,37.5 29.8631206,37.5 C30.3701576,37.5 30.8581441,37.2930301 31.2186385,36.9222926 L31.5,36.6329366 L31.5,31.0573074 L30.0013591,32.5990325 Z" id="Path" fill="#FFFFFF"></path>
            </g>
        </g>
    </g>
</svg>