<?xml version="1.0" encoding="UTF-8"?>
<svg width="75px" height="75px" viewBox="0 0 75 75" version="1.1" xmlns="http://www.w3.org/2000/svg" xmlns:xlink="http://www.w3.org/1999/xlink">
    <!-- Generator: sketchtool 59 (101010) - https://sketch.com -->
    <title>DD0FC4B6-9D7F-4DA6-BA03-43F75967EA56</title>
    <desc>Created with sketchtool.</desc>
    <defs>
        <circle id="path-1" cx="37.5" cy="37.5" r="37.5"></circle>
    </defs>
    <g id="Website-Design" stroke="none" stroke-width="1" fill="none" fill-rule="evenodd">
        <g id="JE-WS-Home-Page-01" transform="translate(-1002.000000, -5318.000000)">
            <g id="Group-17" transform="translate(335.000000, 5208.000000)">
                <g id="Group-14" transform="translate(0.000000, 88.000000)">
                    <g id="testimonial/women" transform="translate(667.000000, 22.000000)">
                        <mask id="mask-2" fill="white">
                            <use xlink:href="#path-1"></use>
                        </mask>
                        <use id="Oval" fill="#5C4EA0" xlink:href="#path-1"></use>
                        <g id="saudi-(1)" mask="url(#mask-2)">
                            <g transform="translate(6.587838, 11.148649)">
                                <path d="M48.3952703,21.7261043 C48.3952703,30.5970592 42.7991356,33.5345636 34.265227,34.4126457 C33.3998904,34.5056875 31.5619971,35.0668459 30.6587838,35.0668459 C29.7555705,35.0668459 29.0149356,34.6661846 28.1466854,34.5760504 C27.7125604,34.532437 27.1347952,36.551735 26.7123245,36.4848612 C18.8164923,35.2375195 12.9222973,30.146388 12.9222973,21.7261043 C12.9222973,16.3849229 15.291047,10.549457 19.0350117,6.35385293 C22.1496407,2.8647851 26.217014,0.506756757 30.6602406,0.506756757 C40.4557342,0.506756757 48.3952703,11.9508992 48.3952703,21.7261043 Z" id="Path" fill="#FCCF92" fill-rule="nonzero"></path>
                                <path d="M34.2060811,21.2837838 C34.2060811,24.0825196 32.6178985,26.3513514 30.6587838,26.3513514 C28.6996691,26.3513514 27.1114865,24.0825196 27.1114865,21.2837838 L34.2060811,21.2837838 L34.2060811,21.2837838 Z" id="Path" fill="#FFFFFF" fill-rule="nonzero"></path>
                                <g id="Group" stroke-width="1" fill="none" fill-rule="evenodd" transform="translate(20.016892, 17.229730)">
                                    <path d="M4.4959745,1.87837838 C4.4959745,1.87837838 4.4051437,1.86486486 4.26275219,1.82094595 C4.19260563,1.79425676 4.1032737,1.77364865 4.01424153,1.75709459 C3.92460982,1.73682432 3.83347925,1.7125 3.72376285,1.69391892 C3.62034164,1.66824324 3.50942615,1.64831081 3.3949134,1.63175676 C3.28459745,1.60405405 3.16229064,1.60472973 3.04777788,1.57972973 C2.92696993,1.57668919 2.80975923,1.55371622 2.68805196,1.5527027 C2.56784355,1.54155405 2.44583651,1.54560811 2.32442901,1.53986486 C2.20302151,1.54560811 2.08131424,1.54222973 1.96110582,1.55371622 C1.83939855,1.55608108 1.72218786,1.57702703 1.60167967,1.58141892 C1.48716692,1.60641892 1.36486011,1.60608108 1.25484393,1.63378378 C1.14033118,1.65 1.02971545,1.66993243 0.926294252,1.69560811 C0.818076703,1.71216216 0.721550247,1.74054054 0.630119909,1.76283784 C0.537490483,1.78310811 0.452055577,1.80033784 0.385206509,1.82297297 C0.247011801,1.86216216 0.152883517,1.87837838 0.152883517,1.87837838 C0.152883517,1.87837838 0.170570042,1.78074324 0.22812619,1.62060811 C0.255705177,1.53885135 0.294075942,1.44222973 0.352831176,1.34425676 C0.408888466,1.24256757 0.477236391,1.12905405 0.568366959,1.02398649 C0.612733156,0.969256757 0.661595927,0.915202703 0.712557099,0.85777027 C0.766515988,0.806756757 0.825271222,0.75777027 0.885825086,0.705067568 C1.0060335,0.596621622 1.15052341,0.518918919 1.30010944,0.432094595 C1.45509136,0.365878378 1.61786734,0.287837838 1.79233441,0.256756757 C1.96440331,0.206418919 2.14516559,0.201689189 2.32472878,0.188851351 C2.50429197,0.202027027 2.68475447,0.207094595 2.85712314,0.25777027 C3.03129045,0.290202703 3.1943662,0.366554054 3.34904834,0.433783784 C3.49863437,0.520608108 3.64312429,0.598310811 3.76303293,0.706756757 C3.82328702,0.759459459 3.88234203,0.808108108 3.93630091,0.859459459 C3.98726209,0.916891892 4.03642463,0.970608108 4.08049105,1.02533784 C4.17012276,1.12871622 4.24386658,1.24628378 4.30142273,1.34966216 C4.36377522,1.45101351 4.39824895,1.54459459 4.42253045,1.6222973 C4.47469071,1.7777027 4.4959745,1.87837838 4.4959745,1.87837838 Z" id="Path" fill="#000000" fill-rule="nonzero"></path>
                                    <path d="M21.040669,1.87837838 C21.040669,1.87837838 20.9498382,1.86486486 20.8074467,1.82094595 C20.7373002,1.79425676 20.6479682,1.77364865 20.558936,1.75709459 C20.4693043,1.73682432 20.3781738,1.7125 20.2684574,1.69391892 C20.1650362,1.66824324 20.0541207,1.64831081 19.9396079,1.63175676 C19.829292,1.60405405 19.7069852,1.60472973 19.5924724,1.57972973 C19.4716644,1.57668919 19.3544537,1.55371622 19.2327465,1.5527027 C19.1122383,1.54155405 18.990531,1.54560811 18.8691235,1.53986486 C18.747716,1.54560811 18.6260088,1.54222973 18.5058003,1.55371622 C18.3840931,1.55608108 18.2668824,1.57702703 18.1463742,1.58141892 C18.0318614,1.60641892 17.9095546,1.60608108 17.7995384,1.63378378 C17.6850257,1.65 17.5741102,1.66993243 17.470689,1.69560811 C17.3624715,1.71216216 17.2662448,1.74054054 17.1748144,1.76283784 C17.082185,1.78310811 16.9967501,1.80033784 16.929901,1.82297297 C16.7917063,1.86216216 16.697578,1.87837838 16.697578,1.87837838 C16.697578,1.87837838 16.7152646,1.78074324 16.7728207,1.62060811 C16.8003997,1.53885135 16.8387705,1.44222973 16.8975257,1.34425676 C16.953583,1.24256757 17.0219309,1.12905405 17.1130615,1.02398649 C17.1574277,0.969256757 17.2062904,0.915202703 17.2572516,0.85777027 C17.3112105,0.806756757 17.3699657,0.75777027 17.4305196,0.705067568 C17.550728,0.596621622 17.6952179,0.518918919 17.844804,0.432094595 C17.9997859,0.365878378 18.1625619,0.287837838 18.3370289,0.256756757 C18.5090978,0.206418919 18.6898601,0.201689189 18.8694233,0.188851351 C19.0489865,0.202027027 19.229449,0.207094595 19.4018177,0.25777027 C19.575985,0.290202703 19.7390607,0.366554054 19.8937429,0.433783784 C20.0433289,0.520608108 20.1878188,0.598310811 20.3077274,0.706756757 C20.3682813,0.759459459 20.4270365,0.808108108 20.4809954,0.859459459 C20.5319566,0.916891892 20.5811191,0.970608108 20.6251856,1.02533784 C20.7148173,1.12871622 20.7885611,1.24628378 20.8461172,1.34966216 C20.9084697,1.45101351 20.9429435,1.54459459 20.967225,1.6222973 C21.0193852,1.7777027 21.040669,1.87837838 21.040669,1.87837838 Z" id="Path" fill="#000000" fill-rule="nonzero"></path>
                                </g>
                                <path d="M36.7668137,40.4075065 C35.0831799,40.0460109 33.7713734,38.73633 33.4203685,37.0592274 L33.3727746,36.8340334 C37.7276153,36.3866085 41.5767709,34.8458075 44.3372163,32.2827442 C47.0976618,29.7226441 48.7664225,26.1462079 48.7664225,21.6245496 C48.7664225,11.6626784 40.6605886,0 30.659923,0 C26.1236307,0 21.971064,2.40305696 18.7911974,5.9587516 C14.9688134,10.2344744 12.550449,16.1813737 12.550449,21.6245496 C12.550449,30.205626 18.5681011,35.3939771 26.6293157,36.6651379 C27.0606353,36.7332887 27.5008788,36.7895872 27.9440968,36.8340334 L27.9054268,37.0236704 C27.5514473,38.7126254 26.221793,40.0311955 24.5232862,40.3778757 C10.673465,43.2046529 0.253378378,55.415501 0.253378378,70.0471844 C0.253378378,71.4250161 0.345591535,72.7791431 0.527043229,74.1066024 L2.60035194,74.1066024 C3.03077915,69.4776806 4.59126373,65.1749938 7.00397635,61.4741083 C9.82897101,57.1406055 16.5786766,59.2603921 16.3558777,64.4226681 L13.6019764,128.209459 L47.7151925,128.209459 L44.9636709,64.4256312 C44.740872,59.2633552 51.4911725,57.1435685 54.3155722,61.4773677 C56.7267975,65.177068 58.2860923,69.4785696 58.7165195,74.1066024 L60.7928028,74.1066024 C60.9921022,72.625063 61.0843154,71.1109297 61.0605184,69.5701287 C60.8433713,55.5073564 50.2388583,43.2965084 36.7668137,40.4075065 Z M17.1105383,18.6970276 C17.1105383,10.6789362 23.1757843,7.47881106 30.659923,7.47881106 C38.1410872,7.47881106 44.2093078,10.6789362 44.2093078,18.6970276 C44.2093078,26.7151191 38.1410872,33.2161141 30.659923,33.2161141 C23.1757843,33.2161141 17.1105383,26.7151191 17.1105383,18.6970276 Z" id="Shape" fill="#333333" fill-rule="nonzero"></path>
                                <path d="M44.3412162,18.6229302 C44.3412162,19.1801635 44.3136811,19.7282619 44.2555515,20.2702703 C43.4906881,13.2028464 37.5798239,10.3435999 30.4054054,10.3435999 C23.2279274,10.3435999 17.3201227,13.2028464 16.5552593,20.2702703 C16.4971297,19.7282619 16.4695946,19.1801635 16.4695946,18.6229302 C16.4695946,10.3831848 22.7078203,7.09459459 30.4054054,7.09459459 C38.099931,7.09459459 44.3412162,10.3831848 44.3412162,18.6229302 Z" id="Path" fill="#4D4D4D" fill-rule="nonzero" opacity="0.29"></path>
                            </g>
                        </g>
                    </g>
                </g>
            </g>
        </g>
    </g>
</svg>